%TF.GenerationSoftware,KiCad,Pcbnew,(6.0.7)*%
%TF.CreationDate,2022-10-13T01:28:40-05:00*%
%TF.ProjectId,Container65PLATE,436f6e74-6169-46e6-9572-3635504c4154,rev?*%
%TF.SameCoordinates,Original*%
%TF.FileFunction,Copper,L1,Top*%
%TF.FilePolarity,Positive*%
%FSLAX46Y46*%
G04 Gerber Fmt 4.6, Leading zero omitted, Abs format (unit mm)*
G04 Created by KiCad (PCBNEW (6.0.7)) date 2022-10-13 01:28:40*
%MOMM*%
%LPD*%
G01*
G04 APERTURE LIST*
%TA.AperFunction,NonConductor*%
%ADD10C,1.000000*%
%TD*%
G04 APERTURE END LIST*
D10*
X97698159Y-122157106D02*
G75*
G03*
X98198159Y-121657106I0J500000D01*
G01*
X84198159Y-121657106D02*
G75*
G03*
X84698159Y-122157106I500000J0D01*
G01*
X98198159Y-108657106D02*
G75*
G03*
X97698159Y-108157106I-500000J0D01*
G01*
X84698159Y-108157106D02*
G75*
G03*
X84198159Y-108657106I0J-500000D01*
G01*
X98198159Y-108657106D02*
X98198159Y-121657106D01*
X84198159Y-108657106D02*
X84198159Y-121657106D01*
X84698159Y-122157106D02*
X97698159Y-122157106D01*
X84698159Y-108157106D02*
X97698159Y-108157106D01*
X77888559Y-112871106D02*
X77888559Y-109467506D01*
X78752159Y-112871106D02*
X77888559Y-112871106D01*
X78752159Y-115665106D02*
X78752159Y-112871106D01*
X77888559Y-115665106D02*
X78752159Y-115665106D01*
X77888559Y-121761106D02*
X77888559Y-115665106D01*
X76085159Y-121761106D02*
X77888559Y-121761106D01*
X76085159Y-122929506D02*
X76085159Y-121761106D01*
X73037159Y-122929506D02*
X76085159Y-122929506D01*
X73037159Y-121761106D02*
X73037159Y-122929506D01*
X71233759Y-121761106D02*
X73037159Y-121761106D01*
X71233759Y-120973706D02*
X71233759Y-121761106D01*
X62623159Y-120973706D02*
X71233759Y-120973706D01*
X71233759Y-110280306D02*
X62623159Y-110280306D01*
X71233759Y-109467506D02*
X71233759Y-110280306D01*
X77888559Y-109467506D02*
X71233759Y-109467506D01*
X47357759Y-112871106D02*
X47357759Y-109467506D01*
X46494159Y-112871106D02*
X47357759Y-112871106D01*
X46494159Y-115665106D02*
X46494159Y-112871106D01*
X47357759Y-115665106D02*
X46494159Y-115665106D01*
X47357759Y-121761106D02*
X47357759Y-115665106D01*
X49161159Y-121761106D02*
X47357759Y-121761106D01*
X49161159Y-122929506D02*
X49161159Y-121761106D01*
X52209159Y-122929506D02*
X49161159Y-122929506D01*
X52209159Y-121761106D02*
X52209159Y-122929506D01*
X54012559Y-121761106D02*
X52209159Y-121761106D01*
X54012559Y-120973706D02*
X54012559Y-121761106D01*
X62623159Y-120973706D02*
X54012559Y-120973706D01*
X54012559Y-110280306D02*
X62623159Y-110280306D01*
X54012559Y-109467506D02*
X54012559Y-110280306D01*
X47357759Y-109467506D02*
X54012559Y-109467506D01*
X69123159Y-122157106D02*
G75*
G03*
X69623159Y-121657106I0J500000D01*
G01*
X55623159Y-121657106D02*
G75*
G03*
X56123159Y-122157106I500000J0D01*
G01*
X69623159Y-108657106D02*
G75*
G03*
X69123159Y-108157106I-500000J0D01*
G01*
X56123159Y-108157106D02*
G75*
G03*
X55623159Y-108657106I0J-500000D01*
G01*
X69623159Y-108657106D02*
X69623159Y-121657106D01*
X55623159Y-108657106D02*
X55623159Y-121657106D01*
X56123159Y-122157106D02*
X69123159Y-122157106D01*
X56123159Y-108157106D02*
X69123159Y-108157106D01*
X112534159Y-120897506D02*
X115937759Y-120897506D01*
X112534159Y-121761106D02*
X112534159Y-120897506D01*
X109740159Y-121761106D02*
X112534159Y-121761106D01*
X109740159Y-120897506D02*
X109740159Y-121761106D01*
X103644159Y-120897506D02*
X109740159Y-120897506D01*
X103644159Y-119094106D02*
X103644159Y-120897506D01*
X102475759Y-119094106D02*
X103644159Y-119094106D01*
X102475759Y-116046106D02*
X102475759Y-119094106D01*
X103644159Y-116046106D02*
X102475759Y-116046106D01*
X103644159Y-114242706D02*
X103644159Y-116046106D01*
X104431559Y-114242706D02*
X103644159Y-114242706D01*
X104431559Y-105632106D02*
X104431559Y-114242706D01*
X115124959Y-114242706D02*
X115124959Y-105632106D01*
X115937759Y-114242706D02*
X115124959Y-114242706D01*
X115937759Y-120897506D02*
X115937759Y-114242706D01*
X112534159Y-90366706D02*
X115937759Y-90366706D01*
X112534159Y-89503106D02*
X112534159Y-90366706D01*
X109740159Y-89503106D02*
X112534159Y-89503106D01*
X109740159Y-90366706D02*
X109740159Y-89503106D01*
X103644159Y-90366706D02*
X109740159Y-90366706D01*
X103644159Y-92170106D02*
X103644159Y-90366706D01*
X102475759Y-92170106D02*
X103644159Y-92170106D01*
X102475759Y-95218106D02*
X102475759Y-92170106D01*
X103644159Y-95218106D02*
X102475759Y-95218106D01*
X103644159Y-97021506D02*
X103644159Y-95218106D01*
X104431559Y-97021506D02*
X103644159Y-97021506D01*
X104431559Y-105632106D02*
X104431559Y-97021506D01*
X115124959Y-97021506D02*
X115124959Y-105632106D01*
X115937759Y-97021506D02*
X115124959Y-97021506D01*
X115937759Y-90366706D02*
X115937759Y-97021506D01*
X103248159Y-112132106D02*
G75*
G03*
X103748159Y-112632106I500000J0D01*
G01*
X103748159Y-98632106D02*
G75*
G03*
X103248159Y-99132106I0J-500000D01*
G01*
X116748159Y-112632106D02*
G75*
G03*
X117248159Y-112132106I0J500000D01*
G01*
X117248159Y-99132106D02*
G75*
G03*
X116748159Y-98632106I-500000J0D01*
G01*
X116748159Y-112632106D02*
X103748159Y-112632106D01*
X116748159Y-98632106D02*
X103748159Y-98632106D01*
X103248159Y-99132106D02*
X103248159Y-112132106D01*
X117248159Y-99132106D02*
X117248159Y-112132106D01*
X112534159Y-120897506D02*
X115937759Y-120897506D01*
X112534159Y-121761106D02*
X112534159Y-120897506D01*
X109740159Y-121761106D02*
X112534159Y-121761106D01*
X109740159Y-120897506D02*
X109740159Y-121761106D01*
X103644159Y-120897506D02*
X109740159Y-120897506D01*
X103644159Y-119094106D02*
X103644159Y-120897506D01*
X102475759Y-119094106D02*
X103644159Y-119094106D01*
X102475759Y-116046106D02*
X102475759Y-119094106D01*
X103644159Y-116046106D02*
X102475759Y-116046106D01*
X103644159Y-114242706D02*
X103644159Y-116046106D01*
X104431559Y-114242706D02*
X103644159Y-114242706D01*
X104431559Y-105632106D02*
X104431559Y-114242706D01*
X115124959Y-114242706D02*
X115124959Y-105632106D01*
X115937759Y-114242706D02*
X115124959Y-114242706D01*
X115937759Y-120897506D02*
X115937759Y-114242706D01*
X112534159Y-90366706D02*
X115937759Y-90366706D01*
X112534159Y-89503106D02*
X112534159Y-90366706D01*
X109740159Y-89503106D02*
X112534159Y-89503106D01*
X109740159Y-90366706D02*
X109740159Y-89503106D01*
X103644159Y-90366706D02*
X109740159Y-90366706D01*
X103644159Y-92170106D02*
X103644159Y-90366706D01*
X102475759Y-92170106D02*
X103644159Y-92170106D01*
X102475759Y-95218106D02*
X102475759Y-92170106D01*
X103644159Y-95218106D02*
X102475759Y-95218106D01*
X103644159Y-97021506D02*
X103644159Y-95218106D01*
X104431559Y-97021506D02*
X103644159Y-97021506D01*
X104431559Y-105632106D02*
X104431559Y-97021506D01*
X115124959Y-97021506D02*
X115124959Y-105632106D01*
X115937759Y-97021506D02*
X115124959Y-97021506D01*
X115937759Y-90366706D02*
X115937759Y-97021506D01*
X103248159Y-112132106D02*
G75*
G03*
X103748159Y-112632106I500000J0D01*
G01*
X103748159Y-98632106D02*
G75*
G03*
X103248159Y-99132106I0J-500000D01*
G01*
X116748159Y-112632106D02*
G75*
G03*
X117248159Y-112132106I0J500000D01*
G01*
X117248159Y-99132106D02*
G75*
G03*
X116748159Y-98632106I-500000J0D01*
G01*
X116748159Y-112632106D02*
X103748159Y-112632106D01*
X116748159Y-98632106D02*
X103748159Y-98632106D01*
X103248159Y-99132106D02*
X103248159Y-112132106D01*
X117248159Y-99132106D02*
X117248159Y-112132106D01*
X97698159Y-103107106D02*
G75*
G03*
X98198159Y-102607106I0J500000D01*
G01*
X84198159Y-102607106D02*
G75*
G03*
X84698159Y-103107106I500000J0D01*
G01*
X98198159Y-89607106D02*
G75*
G03*
X97698159Y-89107106I-500000J0D01*
G01*
X84698159Y-89107106D02*
G75*
G03*
X84198159Y-89607106I0J-500000D01*
G01*
X98198159Y-89607106D02*
X98198159Y-102607106D01*
X84198159Y-89607106D02*
X84198159Y-102607106D01*
X84698159Y-103107106D02*
X97698159Y-103107106D01*
X84698159Y-89107106D02*
X97698159Y-89107106D01*
X78648159Y-103107106D02*
G75*
G03*
X79148159Y-102607106I0J500000D01*
G01*
X65148159Y-102607106D02*
G75*
G03*
X65648159Y-103107106I500000J0D01*
G01*
X79148159Y-89607106D02*
G75*
G03*
X78648159Y-89107106I-500000J0D01*
G01*
X65648159Y-89107106D02*
G75*
G03*
X65148159Y-89607106I0J-500000D01*
G01*
X79148159Y-89607106D02*
X79148159Y-102607106D01*
X65148159Y-89607106D02*
X65148159Y-102607106D01*
X65648159Y-103107106D02*
X78648159Y-103107106D01*
X65648159Y-89107106D02*
X78648159Y-89107106D01*
X59598159Y-103107106D02*
G75*
G03*
X60098159Y-102607106I0J500000D01*
G01*
X46098159Y-102607106D02*
G75*
G03*
X46598159Y-103107106I500000J0D01*
G01*
X60098159Y-89607106D02*
G75*
G03*
X59598159Y-89107106I-500000J0D01*
G01*
X46598159Y-89107106D02*
G75*
G03*
X46098159Y-89607106I0J-500000D01*
G01*
X60098159Y-89607106D02*
X60098159Y-102607106D01*
X46098159Y-89607106D02*
X46098159Y-102607106D01*
X46598159Y-103107106D02*
X59598159Y-103107106D01*
X46598159Y-89107106D02*
X59598159Y-89107106D01*
X97698159Y-84057106D02*
G75*
G03*
X98198159Y-83557106I0J500000D01*
G01*
X84198159Y-83557106D02*
G75*
G03*
X84698159Y-84057106I500000J0D01*
G01*
X98198159Y-70557106D02*
G75*
G03*
X97698159Y-70057106I-500000J0D01*
G01*
X84698159Y-70057106D02*
G75*
G03*
X84198159Y-70557106I0J-500000D01*
G01*
X98198159Y-70557106D02*
X98198159Y-83557106D01*
X84198159Y-70557106D02*
X84198159Y-83557106D01*
X84698159Y-84057106D02*
X97698159Y-84057106D01*
X84698159Y-70057106D02*
X97698159Y-70057106D01*
X78648159Y-84057106D02*
G75*
G03*
X79148159Y-83557106I0J500000D01*
G01*
X65148159Y-83557106D02*
G75*
G03*
X65648159Y-84057106I500000J0D01*
G01*
X79148159Y-70557106D02*
G75*
G03*
X78648159Y-70057106I-500000J0D01*
G01*
X65648159Y-70057106D02*
G75*
G03*
X65148159Y-70557106I0J-500000D01*
G01*
X79148159Y-70557106D02*
X79148159Y-83557106D01*
X65148159Y-70557106D02*
X65148159Y-83557106D01*
X65648159Y-84057106D02*
X78648159Y-84057106D01*
X65648159Y-70057106D02*
X78648159Y-70057106D01*
X59598159Y-84057106D02*
G75*
G03*
X60098159Y-83557106I0J500000D01*
G01*
X46098159Y-83557106D02*
G75*
G03*
X46598159Y-84057106I500000J0D01*
G01*
X60098159Y-70557106D02*
G75*
G03*
X59598159Y-70057106I-500000J0D01*
G01*
X46598159Y-70057106D02*
G75*
G03*
X46098159Y-70557106I0J-500000D01*
G01*
X60098159Y-70557106D02*
X60098159Y-83557106D01*
X46098159Y-70557106D02*
X46098159Y-83557106D01*
X46598159Y-84057106D02*
X59598159Y-84057106D01*
X46598159Y-70057106D02*
X59598159Y-70057106D01*
X112534159Y-82797506D02*
X115937759Y-82797506D01*
X112534159Y-83661106D02*
X112534159Y-82797506D01*
X109740159Y-83661106D02*
X112534159Y-83661106D01*
X109740159Y-82797506D02*
X109740159Y-83661106D01*
X103644159Y-82797506D02*
X109740159Y-82797506D01*
X103644159Y-80994106D02*
X103644159Y-82797506D01*
X102475759Y-80994106D02*
X103644159Y-80994106D01*
X102475759Y-77946106D02*
X102475759Y-80994106D01*
X103644159Y-77946106D02*
X102475759Y-77946106D01*
X103644159Y-76142706D02*
X103644159Y-77946106D01*
X104431559Y-76142706D02*
X103644159Y-76142706D01*
X104431559Y-67532106D02*
X104431559Y-76142706D01*
X115124959Y-76142706D02*
X115124959Y-67532106D01*
X115937759Y-76142706D02*
X115124959Y-76142706D01*
X115937759Y-82797506D02*
X115937759Y-76142706D01*
X112534159Y-52266706D02*
X115937759Y-52266706D01*
X112534159Y-51403106D02*
X112534159Y-52266706D01*
X109740159Y-51403106D02*
X112534159Y-51403106D01*
X109740159Y-52266706D02*
X109740159Y-51403106D01*
X103644159Y-52266706D02*
X109740159Y-52266706D01*
X103644159Y-54070106D02*
X103644159Y-52266706D01*
X102475759Y-54070106D02*
X103644159Y-54070106D01*
X102475759Y-57118106D02*
X102475759Y-54070106D01*
X103644159Y-57118106D02*
X102475759Y-57118106D01*
X103644159Y-58921506D02*
X103644159Y-57118106D01*
X104431559Y-58921506D02*
X103644159Y-58921506D01*
X104431559Y-67532106D02*
X104431559Y-58921506D01*
X115124959Y-58921506D02*
X115124959Y-67532106D01*
X115937759Y-58921506D02*
X115124959Y-58921506D01*
X115937759Y-52266706D02*
X115937759Y-58921506D01*
X103248159Y-74032106D02*
G75*
G03*
X103748159Y-74532106I500000J0D01*
G01*
X103748159Y-60532106D02*
G75*
G03*
X103248159Y-61032106I0J-500000D01*
G01*
X116748159Y-74532106D02*
G75*
G03*
X117248159Y-74032106I0J500000D01*
G01*
X117248159Y-61032106D02*
G75*
G03*
X116748159Y-60532106I-500000J0D01*
G01*
X116748159Y-74532106D02*
X103748159Y-74532106D01*
X116748159Y-60532106D02*
X103748159Y-60532106D01*
X103248159Y-61032106D02*
X103248159Y-74032106D01*
X117248159Y-61032106D02*
X117248159Y-74032106D01*
X97698159Y-65007106D02*
G75*
G03*
X98198159Y-64507106I0J500000D01*
G01*
X84198159Y-64507106D02*
G75*
G03*
X84698159Y-65007106I500000J0D01*
G01*
X98198159Y-51507106D02*
G75*
G03*
X97698159Y-51007106I-500000J0D01*
G01*
X84698159Y-51007106D02*
G75*
G03*
X84198159Y-51507106I0J-500000D01*
G01*
X98198159Y-51507106D02*
X98198159Y-64507106D01*
X84198159Y-51507106D02*
X84198159Y-64507106D01*
X84698159Y-65007106D02*
X97698159Y-65007106D01*
X84698159Y-51007106D02*
X97698159Y-51007106D01*
X78648159Y-65007106D02*
G75*
G03*
X79148159Y-64507106I0J500000D01*
G01*
X65148159Y-64507106D02*
G75*
G03*
X65648159Y-65007106I500000J0D01*
G01*
X79148159Y-51507106D02*
G75*
G03*
X78648159Y-51007106I-500000J0D01*
G01*
X65648159Y-51007106D02*
G75*
G03*
X65148159Y-51507106I0J-500000D01*
G01*
X79148159Y-51507106D02*
X79148159Y-64507106D01*
X65148159Y-51507106D02*
X65148159Y-64507106D01*
X65648159Y-65007106D02*
X78648159Y-65007106D01*
X65648159Y-51007106D02*
X78648159Y-51007106D01*
X59598159Y-65007106D02*
G75*
G03*
X60098159Y-64507106I0J500000D01*
G01*
X46098159Y-64507106D02*
G75*
G03*
X46598159Y-65007106I500000J0D01*
G01*
X60098159Y-51507106D02*
G75*
G03*
X59598159Y-51007106I-500000J0D01*
G01*
X46598159Y-51007106D02*
G75*
G03*
X46098159Y-51507106I0J-500000D01*
G01*
X60098159Y-51507106D02*
X60098159Y-64507106D01*
X46098159Y-51507106D02*
X46098159Y-64507106D01*
X46598159Y-65007106D02*
X59598159Y-65007106D01*
X46598159Y-51007106D02*
X59598159Y-51007106D01*
X116748159Y-45957106D02*
G75*
G03*
X117248159Y-45457106I0J500000D01*
G01*
X103248159Y-45457106D02*
G75*
G03*
X103748159Y-45957106I500000J0D01*
G01*
X117248159Y-32457106D02*
G75*
G03*
X116748159Y-31957106I-500000J0D01*
G01*
X103748159Y-31957106D02*
G75*
G03*
X103248159Y-32457106I0J-500000D01*
G01*
X117248159Y-32457106D02*
X117248159Y-45457106D01*
X103248159Y-32457106D02*
X103248159Y-45457106D01*
X103748159Y-45957106D02*
X116748159Y-45957106D01*
X103748159Y-31957106D02*
X116748159Y-31957106D01*
X97698159Y-45957106D02*
G75*
G03*
X98198159Y-45457106I0J500000D01*
G01*
X84198159Y-45457106D02*
G75*
G03*
X84698159Y-45957106I500000J0D01*
G01*
X98198159Y-32457106D02*
G75*
G03*
X97698159Y-31957106I-500000J0D01*
G01*
X84698159Y-31957106D02*
G75*
G03*
X84198159Y-32457106I0J-500000D01*
G01*
X98198159Y-32457106D02*
X98198159Y-45457106D01*
X84198159Y-32457106D02*
X84198159Y-45457106D01*
X84698159Y-45957106D02*
X97698159Y-45957106D01*
X84698159Y-31957106D02*
X97698159Y-31957106D01*
X78648159Y-45957106D02*
G75*
G03*
X79148159Y-45457106I0J500000D01*
G01*
X65148159Y-45457106D02*
G75*
G03*
X65648159Y-45957106I500000J0D01*
G01*
X79148159Y-32457106D02*
G75*
G03*
X78648159Y-31957106I-500000J0D01*
G01*
X65648159Y-31957106D02*
G75*
G03*
X65148159Y-32457106I0J-500000D01*
G01*
X79148159Y-32457106D02*
X79148159Y-45457106D01*
X65148159Y-32457106D02*
X65148159Y-45457106D01*
X65648159Y-45957106D02*
X78648159Y-45957106D01*
X65648159Y-31957106D02*
X78648159Y-31957106D01*
X59598159Y-45957106D02*
G75*
G03*
X60098159Y-45457106I0J500000D01*
G01*
X46098159Y-45457106D02*
G75*
G03*
X46598159Y-45957106I500000J0D01*
G01*
X60098159Y-32457106D02*
G75*
G03*
X59598159Y-31957106I-500000J0D01*
G01*
X46598159Y-31957106D02*
G75*
G03*
X46098159Y-32457106I0J-500000D01*
G01*
X60098159Y-32457106D02*
X60098159Y-45457106D01*
X46098159Y-32457106D02*
X46098159Y-45457106D01*
X46598159Y-45957106D02*
X59598159Y-45957106D01*
X46598159Y-31957106D02*
X59598159Y-31957106D01*
M02*
