%TF.GenerationSoftware,KiCad,Pcbnew,(6.0.7)*%
%TF.CreationDate,2022-10-13T01:28:40-05:00*%
%TF.ProjectId,Container65PLATE,436f6e74-6169-46e6-9572-3635504c4154,rev?*%
%TF.SameCoordinates,Original*%
%TF.FileFunction,Soldermask,Top*%
%TF.FilePolarity,Negative*%
%FSLAX46Y46*%
G04 Gerber Fmt 4.6, Leading zero omitted, Abs format (unit mm)*
G04 Created by KiCad (PCBNEW (6.0.7)) date 2022-10-13 01:28:40*
%MOMM*%
%LPD*%
G01*
G04 APERTURE LIST*
%ADD10C,1.500000*%
G04 APERTURE END LIST*
D10*
X97637500Y-122093750D02*
G75*
G03*
X98137500Y-121593750I0J500000D01*
G01*
X84137500Y-121593750D02*
G75*
G03*
X84637500Y-122093750I500000J0D01*
G01*
X98137500Y-108593750D02*
G75*
G03*
X97637500Y-108093750I-500000J0D01*
G01*
X84637500Y-108093750D02*
G75*
G03*
X84137500Y-108593750I0J-500000D01*
G01*
X98137500Y-108593750D02*
X98137500Y-121593750D01*
X84137500Y-108593750D02*
X84137500Y-121593750D01*
X84637500Y-122093750D02*
X97637500Y-122093750D01*
X84637500Y-108093750D02*
X97637500Y-108093750D01*
X77827900Y-112807750D02*
X77827900Y-109404150D01*
X78691500Y-112807750D02*
X77827900Y-112807750D01*
X78691500Y-115601750D02*
X78691500Y-112807750D01*
X77827900Y-115601750D02*
X78691500Y-115601750D01*
X77827900Y-121697750D02*
X77827900Y-115601750D01*
X76024500Y-121697750D02*
X77827900Y-121697750D01*
X76024500Y-122866150D02*
X76024500Y-121697750D01*
X72976500Y-122866150D02*
X76024500Y-122866150D01*
X72976500Y-121697750D02*
X72976500Y-122866150D01*
X71173100Y-121697750D02*
X72976500Y-121697750D01*
X71173100Y-120910350D02*
X71173100Y-121697750D01*
X62562500Y-120910350D02*
X71173100Y-120910350D01*
X71173100Y-110216950D02*
X62562500Y-110216950D01*
X71173100Y-109404150D02*
X71173100Y-110216950D01*
X77827900Y-109404150D02*
X71173100Y-109404150D01*
X47297100Y-112807750D02*
X47297100Y-109404150D01*
X46433500Y-112807750D02*
X47297100Y-112807750D01*
X46433500Y-115601750D02*
X46433500Y-112807750D01*
X47297100Y-115601750D02*
X46433500Y-115601750D01*
X47297100Y-121697750D02*
X47297100Y-115601750D01*
X49100500Y-121697750D02*
X47297100Y-121697750D01*
X49100500Y-122866150D02*
X49100500Y-121697750D01*
X52148500Y-122866150D02*
X49100500Y-122866150D01*
X52148500Y-121697750D02*
X52148500Y-122866150D01*
X53951900Y-121697750D02*
X52148500Y-121697750D01*
X53951900Y-120910350D02*
X53951900Y-121697750D01*
X62562500Y-120910350D02*
X53951900Y-120910350D01*
X53951900Y-110216950D02*
X62562500Y-110216950D01*
X53951900Y-109404150D02*
X53951900Y-110216950D01*
X47297100Y-109404150D02*
X53951900Y-109404150D01*
X69062500Y-122093750D02*
G75*
G03*
X69562500Y-121593750I0J500000D01*
G01*
X55562500Y-121593750D02*
G75*
G03*
X56062500Y-122093750I500000J0D01*
G01*
X69562500Y-108593750D02*
G75*
G03*
X69062500Y-108093750I-500000J0D01*
G01*
X56062500Y-108093750D02*
G75*
G03*
X55562500Y-108593750I0J-500000D01*
G01*
X69562500Y-108593750D02*
X69562500Y-121593750D01*
X55562500Y-108593750D02*
X55562500Y-121593750D01*
X56062500Y-122093750D02*
X69062500Y-122093750D01*
X56062500Y-108093750D02*
X69062500Y-108093750D01*
X112473500Y-120834150D02*
X115877100Y-120834150D01*
X112473500Y-121697750D02*
X112473500Y-120834150D01*
X109679500Y-121697750D02*
X112473500Y-121697750D01*
X109679500Y-120834150D02*
X109679500Y-121697750D01*
X103583500Y-120834150D02*
X109679500Y-120834150D01*
X103583500Y-119030750D02*
X103583500Y-120834150D01*
X102415100Y-119030750D02*
X103583500Y-119030750D01*
X102415100Y-115982750D02*
X102415100Y-119030750D01*
X103583500Y-115982750D02*
X102415100Y-115982750D01*
X103583500Y-114179350D02*
X103583500Y-115982750D01*
X104370900Y-114179350D02*
X103583500Y-114179350D01*
X104370900Y-105568750D02*
X104370900Y-114179350D01*
X115064300Y-114179350D02*
X115064300Y-105568750D01*
X115877100Y-114179350D02*
X115064300Y-114179350D01*
X115877100Y-120834150D02*
X115877100Y-114179350D01*
X112473500Y-90303350D02*
X115877100Y-90303350D01*
X112473500Y-89439750D02*
X112473500Y-90303350D01*
X109679500Y-89439750D02*
X112473500Y-89439750D01*
X109679500Y-90303350D02*
X109679500Y-89439750D01*
X103583500Y-90303350D02*
X109679500Y-90303350D01*
X103583500Y-92106750D02*
X103583500Y-90303350D01*
X102415100Y-92106750D02*
X103583500Y-92106750D01*
X102415100Y-95154750D02*
X102415100Y-92106750D01*
X103583500Y-95154750D02*
X102415100Y-95154750D01*
X103583500Y-96958150D02*
X103583500Y-95154750D01*
X104370900Y-96958150D02*
X103583500Y-96958150D01*
X104370900Y-105568750D02*
X104370900Y-96958150D01*
X115064300Y-96958150D02*
X115064300Y-105568750D01*
X115877100Y-96958150D02*
X115064300Y-96958150D01*
X115877100Y-90303350D02*
X115877100Y-96958150D01*
X103187500Y-112068750D02*
G75*
G03*
X103687500Y-112568750I500000J0D01*
G01*
X103687500Y-98568750D02*
G75*
G03*
X103187500Y-99068750I0J-500000D01*
G01*
X116687500Y-112568750D02*
G75*
G03*
X117187500Y-112068750I0J500000D01*
G01*
X117187500Y-99068750D02*
G75*
G03*
X116687500Y-98568750I-500000J0D01*
G01*
X116687500Y-112568750D02*
X103687500Y-112568750D01*
X116687500Y-98568750D02*
X103687500Y-98568750D01*
X103187500Y-99068750D02*
X103187500Y-112068750D01*
X117187500Y-99068750D02*
X117187500Y-112068750D01*
X112473500Y-120834150D02*
X115877100Y-120834150D01*
X112473500Y-121697750D02*
X112473500Y-120834150D01*
X109679500Y-121697750D02*
X112473500Y-121697750D01*
X109679500Y-120834150D02*
X109679500Y-121697750D01*
X103583500Y-120834150D02*
X109679500Y-120834150D01*
X103583500Y-119030750D02*
X103583500Y-120834150D01*
X102415100Y-119030750D02*
X103583500Y-119030750D01*
X102415100Y-115982750D02*
X102415100Y-119030750D01*
X103583500Y-115982750D02*
X102415100Y-115982750D01*
X103583500Y-114179350D02*
X103583500Y-115982750D01*
X104370900Y-114179350D02*
X103583500Y-114179350D01*
X104370900Y-105568750D02*
X104370900Y-114179350D01*
X115064300Y-114179350D02*
X115064300Y-105568750D01*
X115877100Y-114179350D02*
X115064300Y-114179350D01*
X115877100Y-120834150D02*
X115877100Y-114179350D01*
X112473500Y-90303350D02*
X115877100Y-90303350D01*
X112473500Y-89439750D02*
X112473500Y-90303350D01*
X109679500Y-89439750D02*
X112473500Y-89439750D01*
X109679500Y-90303350D02*
X109679500Y-89439750D01*
X103583500Y-90303350D02*
X109679500Y-90303350D01*
X103583500Y-92106750D02*
X103583500Y-90303350D01*
X102415100Y-92106750D02*
X103583500Y-92106750D01*
X102415100Y-95154750D02*
X102415100Y-92106750D01*
X103583500Y-95154750D02*
X102415100Y-95154750D01*
X103583500Y-96958150D02*
X103583500Y-95154750D01*
X104370900Y-96958150D02*
X103583500Y-96958150D01*
X104370900Y-105568750D02*
X104370900Y-96958150D01*
X115064300Y-96958150D02*
X115064300Y-105568750D01*
X115877100Y-96958150D02*
X115064300Y-96958150D01*
X115877100Y-90303350D02*
X115877100Y-96958150D01*
X103187500Y-112068750D02*
G75*
G03*
X103687500Y-112568750I500000J0D01*
G01*
X103687500Y-98568750D02*
G75*
G03*
X103187500Y-99068750I0J-500000D01*
G01*
X116687500Y-112568750D02*
G75*
G03*
X117187500Y-112068750I0J500000D01*
G01*
X117187500Y-99068750D02*
G75*
G03*
X116687500Y-98568750I-500000J0D01*
G01*
X116687500Y-112568750D02*
X103687500Y-112568750D01*
X116687500Y-98568750D02*
X103687500Y-98568750D01*
X103187500Y-99068750D02*
X103187500Y-112068750D01*
X117187500Y-99068750D02*
X117187500Y-112068750D01*
X97637500Y-103043750D02*
G75*
G03*
X98137500Y-102543750I0J500000D01*
G01*
X84137500Y-102543750D02*
G75*
G03*
X84637500Y-103043750I500000J0D01*
G01*
X98137500Y-89543750D02*
G75*
G03*
X97637500Y-89043750I-500000J0D01*
G01*
X84637500Y-89043750D02*
G75*
G03*
X84137500Y-89543750I0J-500000D01*
G01*
X98137500Y-89543750D02*
X98137500Y-102543750D01*
X84137500Y-89543750D02*
X84137500Y-102543750D01*
X84637500Y-103043750D02*
X97637500Y-103043750D01*
X84637500Y-89043750D02*
X97637500Y-89043750D01*
X78587500Y-103043750D02*
G75*
G03*
X79087500Y-102543750I0J500000D01*
G01*
X65087500Y-102543750D02*
G75*
G03*
X65587500Y-103043750I500000J0D01*
G01*
X79087500Y-89543750D02*
G75*
G03*
X78587500Y-89043750I-500000J0D01*
G01*
X65587500Y-89043750D02*
G75*
G03*
X65087500Y-89543750I0J-500000D01*
G01*
X79087500Y-89543750D02*
X79087500Y-102543750D01*
X65087500Y-89543750D02*
X65087500Y-102543750D01*
X65587500Y-103043750D02*
X78587500Y-103043750D01*
X65587500Y-89043750D02*
X78587500Y-89043750D01*
X59537500Y-103043750D02*
G75*
G03*
X60037500Y-102543750I0J500000D01*
G01*
X46037500Y-102543750D02*
G75*
G03*
X46537500Y-103043750I500000J0D01*
G01*
X60037500Y-89543750D02*
G75*
G03*
X59537500Y-89043750I-500000J0D01*
G01*
X46537500Y-89043750D02*
G75*
G03*
X46037500Y-89543750I0J-500000D01*
G01*
X60037500Y-89543750D02*
X60037500Y-102543750D01*
X46037500Y-89543750D02*
X46037500Y-102543750D01*
X46537500Y-103043750D02*
X59537500Y-103043750D01*
X46537500Y-89043750D02*
X59537500Y-89043750D01*
X97637500Y-83993750D02*
G75*
G03*
X98137500Y-83493750I0J500000D01*
G01*
X84137500Y-83493750D02*
G75*
G03*
X84637500Y-83993750I500000J0D01*
G01*
X98137500Y-70493750D02*
G75*
G03*
X97637500Y-69993750I-500000J0D01*
G01*
X84637500Y-69993750D02*
G75*
G03*
X84137500Y-70493750I0J-500000D01*
G01*
X98137500Y-70493750D02*
X98137500Y-83493750D01*
X84137500Y-70493750D02*
X84137500Y-83493750D01*
X84637500Y-83993750D02*
X97637500Y-83993750D01*
X84637500Y-69993750D02*
X97637500Y-69993750D01*
X78587500Y-83993750D02*
G75*
G03*
X79087500Y-83493750I0J500000D01*
G01*
X65087500Y-83493750D02*
G75*
G03*
X65587500Y-83993750I500000J0D01*
G01*
X79087500Y-70493750D02*
G75*
G03*
X78587500Y-69993750I-500000J0D01*
G01*
X65587500Y-69993750D02*
G75*
G03*
X65087500Y-70493750I0J-500000D01*
G01*
X79087500Y-70493750D02*
X79087500Y-83493750D01*
X65087500Y-70493750D02*
X65087500Y-83493750D01*
X65587500Y-83993750D02*
X78587500Y-83993750D01*
X65587500Y-69993750D02*
X78587500Y-69993750D01*
X59537500Y-83993750D02*
G75*
G03*
X60037500Y-83493750I0J500000D01*
G01*
X46037500Y-83493750D02*
G75*
G03*
X46537500Y-83993750I500000J0D01*
G01*
X60037500Y-70493750D02*
G75*
G03*
X59537500Y-69993750I-500000J0D01*
G01*
X46537500Y-69993750D02*
G75*
G03*
X46037500Y-70493750I0J-500000D01*
G01*
X60037500Y-70493750D02*
X60037500Y-83493750D01*
X46037500Y-70493750D02*
X46037500Y-83493750D01*
X46537500Y-83993750D02*
X59537500Y-83993750D01*
X46537500Y-69993750D02*
X59537500Y-69993750D01*
X112473500Y-82734150D02*
X115877100Y-82734150D01*
X112473500Y-83597750D02*
X112473500Y-82734150D01*
X109679500Y-83597750D02*
X112473500Y-83597750D01*
X109679500Y-82734150D02*
X109679500Y-83597750D01*
X103583500Y-82734150D02*
X109679500Y-82734150D01*
X103583500Y-80930750D02*
X103583500Y-82734150D01*
X102415100Y-80930750D02*
X103583500Y-80930750D01*
X102415100Y-77882750D02*
X102415100Y-80930750D01*
X103583500Y-77882750D02*
X102415100Y-77882750D01*
X103583500Y-76079350D02*
X103583500Y-77882750D01*
X104370900Y-76079350D02*
X103583500Y-76079350D01*
X104370900Y-67468750D02*
X104370900Y-76079350D01*
X115064300Y-76079350D02*
X115064300Y-67468750D01*
X115877100Y-76079350D02*
X115064300Y-76079350D01*
X115877100Y-82734150D02*
X115877100Y-76079350D01*
X112473500Y-52203350D02*
X115877100Y-52203350D01*
X112473500Y-51339750D02*
X112473500Y-52203350D01*
X109679500Y-51339750D02*
X112473500Y-51339750D01*
X109679500Y-52203350D02*
X109679500Y-51339750D01*
X103583500Y-52203350D02*
X109679500Y-52203350D01*
X103583500Y-54006750D02*
X103583500Y-52203350D01*
X102415100Y-54006750D02*
X103583500Y-54006750D01*
X102415100Y-57054750D02*
X102415100Y-54006750D01*
X103583500Y-57054750D02*
X102415100Y-57054750D01*
X103583500Y-58858150D02*
X103583500Y-57054750D01*
X104370900Y-58858150D02*
X103583500Y-58858150D01*
X104370900Y-67468750D02*
X104370900Y-58858150D01*
X115064300Y-58858150D02*
X115064300Y-67468750D01*
X115877100Y-58858150D02*
X115064300Y-58858150D01*
X115877100Y-52203350D02*
X115877100Y-58858150D01*
X103187500Y-73968750D02*
G75*
G03*
X103687500Y-74468750I500000J0D01*
G01*
X103687500Y-60468750D02*
G75*
G03*
X103187500Y-60968750I0J-500000D01*
G01*
X116687500Y-74468750D02*
G75*
G03*
X117187500Y-73968750I0J500000D01*
G01*
X117187500Y-60968750D02*
G75*
G03*
X116687500Y-60468750I-500000J0D01*
G01*
X116687500Y-74468750D02*
X103687500Y-74468750D01*
X116687500Y-60468750D02*
X103687500Y-60468750D01*
X103187500Y-60968750D02*
X103187500Y-73968750D01*
X117187500Y-60968750D02*
X117187500Y-73968750D01*
X97637500Y-64943750D02*
G75*
G03*
X98137500Y-64443750I0J500000D01*
G01*
X84137500Y-64443750D02*
G75*
G03*
X84637500Y-64943750I500000J0D01*
G01*
X98137500Y-51443750D02*
G75*
G03*
X97637500Y-50943750I-500000J0D01*
G01*
X84637500Y-50943750D02*
G75*
G03*
X84137500Y-51443750I0J-500000D01*
G01*
X98137500Y-51443750D02*
X98137500Y-64443750D01*
X84137500Y-51443750D02*
X84137500Y-64443750D01*
X84637500Y-64943750D02*
X97637500Y-64943750D01*
X84637500Y-50943750D02*
X97637500Y-50943750D01*
X78587500Y-64943750D02*
G75*
G03*
X79087500Y-64443750I0J500000D01*
G01*
X65087500Y-64443750D02*
G75*
G03*
X65587500Y-64943750I500000J0D01*
G01*
X79087500Y-51443750D02*
G75*
G03*
X78587500Y-50943750I-500000J0D01*
G01*
X65587500Y-50943750D02*
G75*
G03*
X65087500Y-51443750I0J-500000D01*
G01*
X79087500Y-51443750D02*
X79087500Y-64443750D01*
X65087500Y-51443750D02*
X65087500Y-64443750D01*
X65587500Y-64943750D02*
X78587500Y-64943750D01*
X65587500Y-50943750D02*
X78587500Y-50943750D01*
X59537500Y-64943750D02*
G75*
G03*
X60037500Y-64443750I0J500000D01*
G01*
X46037500Y-64443750D02*
G75*
G03*
X46537500Y-64943750I500000J0D01*
G01*
X60037500Y-51443750D02*
G75*
G03*
X59537500Y-50943750I-500000J0D01*
G01*
X46537500Y-50943750D02*
G75*
G03*
X46037500Y-51443750I0J-500000D01*
G01*
X60037500Y-51443750D02*
X60037500Y-64443750D01*
X46037500Y-51443750D02*
X46037500Y-64443750D01*
X46537500Y-64943750D02*
X59537500Y-64943750D01*
X46537500Y-50943750D02*
X59537500Y-50943750D01*
X116687500Y-45893750D02*
G75*
G03*
X117187500Y-45393750I0J500000D01*
G01*
X103187500Y-45393750D02*
G75*
G03*
X103687500Y-45893750I500000J0D01*
G01*
X117187500Y-32393750D02*
G75*
G03*
X116687500Y-31893750I-500000J0D01*
G01*
X103687500Y-31893750D02*
G75*
G03*
X103187500Y-32393750I0J-500000D01*
G01*
X117187500Y-32393750D02*
X117187500Y-45393750D01*
X103187500Y-32393750D02*
X103187500Y-45393750D01*
X103687500Y-45893750D02*
X116687500Y-45893750D01*
X103687500Y-31893750D02*
X116687500Y-31893750D01*
X97637500Y-45893750D02*
G75*
G03*
X98137500Y-45393750I0J500000D01*
G01*
X84137500Y-45393750D02*
G75*
G03*
X84637500Y-45893750I500000J0D01*
G01*
X98137500Y-32393750D02*
G75*
G03*
X97637500Y-31893750I-500000J0D01*
G01*
X84637500Y-31893750D02*
G75*
G03*
X84137500Y-32393750I0J-500000D01*
G01*
X98137500Y-32393750D02*
X98137500Y-45393750D01*
X84137500Y-32393750D02*
X84137500Y-45393750D01*
X84637500Y-45893750D02*
X97637500Y-45893750D01*
X84637500Y-31893750D02*
X97637500Y-31893750D01*
X78587500Y-45893750D02*
G75*
G03*
X79087500Y-45393750I0J500000D01*
G01*
X65087500Y-45393750D02*
G75*
G03*
X65587500Y-45893750I500000J0D01*
G01*
X79087500Y-32393750D02*
G75*
G03*
X78587500Y-31893750I-500000J0D01*
G01*
X65587500Y-31893750D02*
G75*
G03*
X65087500Y-32393750I0J-500000D01*
G01*
X79087500Y-32393750D02*
X79087500Y-45393750D01*
X65087500Y-32393750D02*
X65087500Y-45393750D01*
X65587500Y-45893750D02*
X78587500Y-45893750D01*
X65587500Y-31893750D02*
X78587500Y-31893750D01*
X59537500Y-45893750D02*
G75*
G03*
X60037500Y-45393750I0J500000D01*
G01*
X46037500Y-45393750D02*
G75*
G03*
X46537500Y-45893750I500000J0D01*
G01*
X60037500Y-32393750D02*
G75*
G03*
X59537500Y-31893750I-500000J0D01*
G01*
X46537500Y-31893750D02*
G75*
G03*
X46037500Y-32393750I0J-500000D01*
G01*
X60037500Y-32393750D02*
X60037500Y-45393750D01*
X46037500Y-32393750D02*
X46037500Y-45393750D01*
X46537500Y-45893750D02*
X59537500Y-45893750D01*
X46537500Y-31893750D02*
X59537500Y-31893750D01*
M02*
