%TF.GenerationSoftware,KiCad,Pcbnew,(6.0.7)*%
%TF.CreationDate,2022-10-13T01:40:36-05:00*%
%TF.ProjectId,Container65,436f6e74-6169-46e6-9572-36352e6b6963,rev?*%
%TF.SameCoordinates,Original*%
%TF.FileFunction,Soldermask,Top*%
%TF.FilePolarity,Negative*%
%FSLAX46Y46*%
G04 Gerber Fmt 4.6, Leading zero omitted, Abs format (unit mm)*
G04 Created by KiCad (PCBNEW (6.0.7)) date 2022-10-13 01:40:36*
%MOMM*%
%LPD*%
G01*
G04 APERTURE LIST*
%ADD10C,1.750000*%
%ADD11C,3.100000*%
%ADD12C,4.000000*%
%ADD13C,3.600000*%
%ADD14C,3.987800*%
%ADD15C,3.048000*%
%ADD16O,3.200000X2.000000*%
%ADD17R,2.000000X2.000000*%
%ADD18C,2.000000*%
%ADD19O,0.650000X0.650000*%
%ADD20R,2.000000X1.500000*%
%ADD21O,2.000000X1.500000*%
%ADD22R,1.700000X1.700000*%
%ADD23O,1.700000X1.700000*%
%ADD24C,0.800000*%
%ADD25O,1.600000X2.000000*%
%ADD26C,0.750013*%
%ADD27O,1.200000X1.800000*%
%ADD28O,1.200000X2.000000*%
G04 APERTURE END LIST*
D10*
%TO.C,MX5*%
X49212500Y-62388750D03*
D11*
X46672500Y-71278750D03*
X44132500Y-64928750D03*
D10*
X49212500Y-72548750D03*
D12*
X49212500Y-67468750D03*
D13*
X46672500Y-71278750D03*
X44132500Y-64928750D03*
%TD*%
D14*
%TO.C,X3*%
X70675500Y-116393750D03*
D15*
X70675500Y-131603750D03*
X46799500Y-131603750D03*
D14*
X46799500Y-116393750D03*
%TD*%
D11*
%TO.C,MX15*%
X89852500Y-100488750D03*
D10*
X82232500Y-105568750D03*
D11*
X83502500Y-103028750D03*
D10*
X92392500Y-105568750D03*
D12*
X87312500Y-105568750D03*
D13*
X83502500Y-103028750D03*
X89852500Y-100488750D03*
%TD*%
D10*
%TO.C,MX9*%
X49212500Y-81438750D03*
X49212500Y-91598750D03*
D12*
X49212500Y-86518750D03*
D11*
X44132500Y-83978750D03*
X46672500Y-90328750D03*
D13*
X46672500Y-90328750D03*
X44132500Y-83978750D03*
%TD*%
D10*
%TO.C,MX-E-1*%
X49212500Y-71913750D03*
D11*
X54292500Y-79533750D03*
X51752500Y-73183750D03*
D12*
X49212500Y-76993750D03*
D10*
X49212500Y-82073750D03*
D13*
X51752500Y-73183750D03*
X54292500Y-79533750D03*
%TD*%
D15*
%TO.C,X4*%
X108775500Y-131603750D03*
X84899500Y-131603750D03*
D14*
X108775500Y-116393750D03*
X84899500Y-116393750D03*
%TD*%
D11*
%TO.C,MX3*%
X89852500Y-43338750D03*
X83502500Y-45878750D03*
D10*
X92392500Y-48418750D03*
D12*
X87312500Y-48418750D03*
D10*
X82232500Y-48418750D03*
D13*
X83502500Y-45878750D03*
X89852500Y-43338750D03*
%TD*%
D10*
%TO.C,MX6*%
X73342500Y-67468750D03*
X63182500Y-67468750D03*
D11*
X64452500Y-64928750D03*
D12*
X68262500Y-67468750D03*
D11*
X70802500Y-62388750D03*
D13*
X64452500Y-64928750D03*
X70802500Y-62388750D03*
%TD*%
D12*
%TO.C,MX2*%
X68262500Y-48418750D03*
D11*
X64452500Y-45878750D03*
D10*
X63182500Y-48418750D03*
X73342500Y-48418750D03*
D11*
X70802500Y-43338750D03*
D13*
X64452500Y-45878750D03*
X70802500Y-43338750D03*
%TD*%
D12*
%TO.C,MX-E-4*%
X96837500Y-124618750D03*
D10*
X91757500Y-124618750D03*
D11*
X100647500Y-127158750D03*
D10*
X101917500Y-124618750D03*
D11*
X94297500Y-129698750D03*
D13*
X100647500Y-127158750D03*
X94297500Y-129698750D03*
%TD*%
D15*
%TO.C,X2*%
X113347500Y-65055750D03*
X113347500Y-88931750D03*
D14*
X98137500Y-88931750D03*
X98137500Y-65055750D03*
%TD*%
D10*
%TO.C,MX-E-2*%
X106362500Y-71913750D03*
X106362500Y-82073750D03*
D11*
X108902500Y-73183750D03*
X111442500Y-79533750D03*
D12*
X106362500Y-76993750D03*
D13*
X108902500Y-73183750D03*
X111442500Y-79533750D03*
%TD*%
D10*
%TO.C,MX14*%
X63182500Y-105568750D03*
D12*
X68262500Y-105568750D03*
D11*
X70802500Y-100488750D03*
X64452500Y-103028750D03*
D10*
X73342500Y-105568750D03*
D13*
X64452500Y-103028750D03*
X70802500Y-100488750D03*
%TD*%
D12*
%TO.C,MX11*%
X87312500Y-86518750D03*
D11*
X83502500Y-83978750D03*
D10*
X92392500Y-86518750D03*
X82232500Y-86518750D03*
D11*
X89852500Y-81438750D03*
D13*
X83502500Y-83978750D03*
X89852500Y-81438750D03*
%TD*%
D10*
%TO.C,MX17*%
X53657500Y-124618750D03*
D11*
X56197500Y-129698750D03*
D12*
X58737500Y-124618750D03*
D11*
X62547500Y-127158750D03*
D10*
X63817500Y-124618750D03*
D13*
X62547500Y-127158750D03*
X56197500Y-129698750D03*
%TD*%
D10*
%TO.C,MX16*%
X106362500Y-100488750D03*
X106362500Y-110648750D03*
D11*
X101282500Y-103028750D03*
D12*
X106362500Y-105568750D03*
D11*
X103822500Y-109378750D03*
D13*
X103822500Y-109378750D03*
X101282500Y-103028750D03*
%TD*%
D15*
%TO.C,X1*%
X42227500Y-65055750D03*
D14*
X57437500Y-65055750D03*
X57437500Y-88931750D03*
D15*
X42227500Y-88931750D03*
%TD*%
D11*
%TO.C,MX12*%
X101282500Y-83978750D03*
X103822500Y-90328750D03*
D12*
X106362500Y-86518750D03*
D10*
X106362500Y-91598750D03*
X106362500Y-81438750D03*
D13*
X103822500Y-90328750D03*
X101282500Y-83978750D03*
%TD*%
D12*
%TO.C,MX18*%
X68262500Y-124618750D03*
D11*
X64452500Y-122078750D03*
D10*
X73342500Y-124618750D03*
D11*
X70802500Y-119538750D03*
D10*
X63182500Y-124618750D03*
D13*
X64452500Y-122078750D03*
X70802500Y-119538750D03*
%TD*%
D11*
%TO.C,MX10*%
X64452500Y-83978750D03*
D10*
X73342500Y-86518750D03*
D12*
X68262500Y-86518750D03*
D10*
X63182500Y-86518750D03*
D11*
X70802500Y-81438750D03*
D13*
X64452500Y-83978750D03*
X70802500Y-81438750D03*
%TD*%
D16*
%TO.C,SW1*%
X106362500Y-34968750D03*
X106362500Y-23768750D03*
D17*
X113862500Y-31868750D03*
D18*
X113862500Y-26868750D03*
X113862500Y-29368750D03*
X99362500Y-26868750D03*
X99362500Y-31868750D03*
%TD*%
D11*
%TO.C,MX20*%
X108902500Y-111283750D03*
X111442500Y-117633750D03*
D12*
X106362500Y-115093750D03*
D10*
X106362500Y-110013750D03*
X106362500Y-120173750D03*
D13*
X108902500Y-111283750D03*
X111442500Y-117633750D03*
%TD*%
D10*
%TO.C,MX8*%
X106362500Y-72548750D03*
D12*
X106362500Y-67468750D03*
D11*
X103822500Y-71278750D03*
X101282500Y-64928750D03*
D10*
X106362500Y-62388750D03*
D13*
X103822500Y-71278750D03*
X101282500Y-64928750D03*
%TD*%
D12*
%TO.C,MX7*%
X87312500Y-67468750D03*
D10*
X82232500Y-67468750D03*
D11*
X89852500Y-62388750D03*
X83502500Y-64928750D03*
D10*
X92392500Y-67468750D03*
D13*
X83502500Y-64928750D03*
X89852500Y-62388750D03*
%TD*%
D10*
%TO.C,MX19*%
X82232500Y-124618750D03*
D11*
X83502500Y-122078750D03*
D10*
X92392500Y-124618750D03*
D12*
X87312500Y-124618750D03*
D11*
X89852500Y-119538750D03*
D13*
X83502500Y-122078750D03*
X89852500Y-119538750D03*
%TD*%
D10*
%TO.C,MX4*%
X101282500Y-48418750D03*
X111442500Y-48418750D03*
D11*
X108902500Y-43338750D03*
X102552500Y-45878750D03*
D12*
X106362500Y-48418750D03*
D13*
X102552500Y-45878750D03*
X108902500Y-43338750D03*
%TD*%
D10*
%TO.C,MX1*%
X44132500Y-48418750D03*
X54292500Y-48418750D03*
D11*
X45402500Y-45878750D03*
X51752500Y-43338750D03*
D12*
X49212500Y-48418750D03*
D13*
X45402500Y-45878750D03*
X51752500Y-43338750D03*
%TD*%
D11*
%TO.C,MX-E-3*%
X51752500Y-111283750D03*
D10*
X49212500Y-110013750D03*
D12*
X49212500Y-115093750D03*
D11*
X54292500Y-117633750D03*
D10*
X49212500Y-120173750D03*
D13*
X51752500Y-111283750D03*
X54292500Y-117633750D03*
%TD*%
D10*
%TO.C,MX13*%
X49212500Y-100488750D03*
X49212500Y-110648750D03*
D12*
X49212500Y-105568750D03*
D11*
X46672500Y-109378750D03*
X44132500Y-103028750D03*
D13*
X46672500Y-109378750D03*
X44132500Y-103028750D03*
%TD*%
D19*
%TO.C,J3*%
X38687500Y-97283750D03*
X38687500Y-94783750D03*
D20*
X41687500Y-97283750D03*
D21*
X41687500Y-94743750D03*
%TD*%
D19*
%TO.C,J6*%
X116887500Y-59212500D03*
X116887500Y-56712500D03*
D21*
X113887500Y-59252500D03*
X113887500Y-56712500D03*
%TD*%
D22*
%TO.C,J1*%
X70287500Y-37200000D03*
D23*
X67747500Y-37200000D03*
X65207500Y-37200000D03*
%TD*%
D19*
%TO.C,J4*%
X38687500Y-56752500D03*
X38687500Y-59252500D03*
D21*
X41687500Y-59252500D03*
X41687500Y-56712500D03*
%TD*%
D24*
%TO.C,U7*%
X46037500Y-27300000D03*
X46037500Y-20300000D03*
D25*
X48337500Y-30000000D03*
X43737500Y-28900000D03*
X43737500Y-24900000D03*
X43737500Y-21900000D03*
%TD*%
D19*
%TO.C,J5*%
X116887500Y-94753750D03*
X116887500Y-97253750D03*
D20*
X113887500Y-97293750D03*
D21*
X113887500Y-94753750D03*
%TD*%
D26*
%TO.C,U2*%
X55836560Y-23153134D03*
X61636408Y-23153134D03*
D27*
X54411363Y-19453362D03*
D28*
X63061605Y-23653261D03*
X54411363Y-23653261D03*
D27*
X63061605Y-19453362D03*
%TD*%
M02*
