%TF.GenerationSoftware,KiCad,Pcbnew,(6.0.7)*%
%TF.CreationDate,2022-10-13T01:22:27-05:00*%
%TF.ProjectId,Container65PLATE,436f6e74-6169-46e6-9572-3635504c4154,rev?*%
%TF.SameCoordinates,Original*%
%TF.FileFunction,Profile,NP*%
%FSLAX46Y46*%
G04 Gerber Fmt 4.6, Leading zero omitted, Abs format (unit mm)*
G04 Created by KiCad (PCBNEW (6.0.7)) date 2022-10-13 01:22:27*
%MOMM*%
%LPD*%
G01*
G04 APERTURE LIST*
%TA.AperFunction,Profile*%
%ADD10C,0.150000*%
%TD*%
G04 APERTURE END LIST*
D10*
X39687494Y-100200000D02*
G75*
G03*
X39037500Y-99400000I-831094J-11200D01*
G01*
X115887500Y-100200000D02*
X115887500Y-131762500D01*
X49212499Y-20637451D02*
G75*
G03*
X48418701Y-19843701I-793799J-49D01*
G01*
X38437500Y-93400000D02*
X38437500Y-98600000D01*
X113506250Y-134143750D02*
X42068750Y-134143750D01*
X39087507Y-54600023D02*
G75*
G03*
X39687500Y-53800000I-233107J799823D01*
G01*
X39687500Y-53800000D02*
X39687500Y-23812500D01*
X42068801Y-21431351D02*
G75*
G03*
X42862551Y-20637551I-101J793851D01*
G01*
X39087507Y-92600023D02*
G75*
G03*
X39687500Y-91800000I-233107J799823D01*
G01*
X113506250Y-21431250D02*
X64293750Y-21431250D01*
X53975000Y-20637500D02*
X53975000Y-19050000D01*
X48418701Y-19843701D02*
X43656301Y-19843801D01*
X115887500Y-62200000D02*
X115887500Y-91800000D01*
X115887524Y-91800000D02*
G75*
G03*
X116487500Y-92600000I833076J-200D01*
G01*
X53181250Y-21431250D02*
X50006201Y-21431201D01*
X115887524Y-53800000D02*
G75*
G03*
X116487500Y-54600000I833076J-200D01*
G01*
X39687450Y-131762500D02*
G75*
G03*
X42068750Y-134143750I2381250J0D01*
G01*
X43656301Y-19843851D02*
G75*
G03*
X42862551Y-20637551I-1J-793749D01*
G01*
X39087499Y-92599995D02*
G75*
G03*
X38437500Y-93400000I181101J-811205D01*
G01*
X49212499Y-20637451D02*
G75*
G03*
X50006201Y-21431201I793801J51D01*
G01*
X113506250Y-134143700D02*
G75*
G03*
X115887500Y-131762500I-50J2381300D01*
G01*
X117137494Y-55400000D02*
G75*
G03*
X116487500Y-54600000I-831094J-11200D01*
G01*
X116537507Y-99400023D02*
G75*
G03*
X117137500Y-98600000I-233107J799823D01*
G01*
X117137500Y-60600000D02*
X117137500Y-55400000D01*
X54768750Y-18256300D02*
G75*
G03*
X53975000Y-19050000I50J-793800D01*
G01*
X39087499Y-54599995D02*
G75*
G03*
X38437500Y-55400000I181101J-811205D01*
G01*
X39687500Y-91800000D02*
X39687500Y-62200000D01*
X63499950Y-20637500D02*
G75*
G03*
X64293750Y-21431250I793850J100D01*
G01*
X42068750Y-21431250D02*
G75*
G03*
X39687500Y-23812500I150J-2381400D01*
G01*
X39687500Y-100200000D02*
X39687500Y-131762500D01*
X116537499Y-99399995D02*
G75*
G03*
X115887500Y-100200000I181101J-811205D01*
G01*
X38437524Y-60600000D02*
G75*
G03*
X39037500Y-61400000I833076J-200D01*
G01*
X115887550Y-23812500D02*
G75*
G03*
X113506250Y-21431250I-2381450J-200D01*
G01*
X115887500Y-23812500D02*
X115887500Y-53800000D01*
X117137500Y-98600000D02*
X117137500Y-93400000D01*
X117137494Y-93400000D02*
G75*
G03*
X116487500Y-92600000I-831094J-11200D01*
G01*
X63500000Y-19050000D02*
X63500000Y-20637500D01*
X39687494Y-62200000D02*
G75*
G03*
X39037500Y-61400000I-831094J-11200D01*
G01*
X63500050Y-19050000D02*
G75*
G03*
X62706250Y-18256250I-793850J-100D01*
G01*
X38437524Y-98600000D02*
G75*
G03*
X39037500Y-99400000I833076J-200D01*
G01*
X116537507Y-61400023D02*
G75*
G03*
X117137500Y-60600000I-233107J799823D01*
G01*
X54768750Y-18256250D02*
X62706250Y-18256250D01*
X53181250Y-21431200D02*
G75*
G03*
X53975000Y-20637500I-50J793800D01*
G01*
X116537499Y-61399995D02*
G75*
G03*
X115887500Y-62200000I181101J-811205D01*
G01*
X38437500Y-55400000D02*
X38437500Y-60600000D01*
%TO.C,MX5*%
X42212500Y-60468750D02*
X42212500Y-74468750D01*
X42212500Y-74468750D02*
X56212500Y-74468750D01*
X56212500Y-74468750D02*
X56212500Y-60468750D01*
X56212500Y-60468750D02*
X42212500Y-60468750D01*
%TO.C,MX15*%
X94312500Y-98568750D02*
X80312500Y-98568750D01*
X80312500Y-98568750D02*
X80312500Y-112568750D01*
X80312500Y-112568750D02*
X94312500Y-112568750D01*
X94312500Y-112568750D02*
X94312500Y-98568750D01*
%TO.C,MX9*%
X42212500Y-79518750D02*
X42212500Y-93518750D01*
X42212500Y-93518750D02*
X56212500Y-93518750D01*
X56212500Y-93518750D02*
X56212500Y-79518750D01*
X56212500Y-79518750D02*
X42212500Y-79518750D01*
%TO.C,MX-E-1*%
X56212500Y-83993750D02*
X56212500Y-69993750D01*
X56212500Y-69993750D02*
X42212500Y-69993750D01*
X42212500Y-69993750D02*
X42212500Y-83993750D01*
X42212500Y-83993750D02*
X56212500Y-83993750D01*
%TO.C,MX3*%
X94312500Y-41418750D02*
X80312500Y-41418750D01*
X80312500Y-41418750D02*
X80312500Y-55418750D01*
X80312500Y-55418750D02*
X94312500Y-55418750D01*
X94312500Y-55418750D02*
X94312500Y-41418750D01*
%TO.C,MX6*%
X75262500Y-60468750D02*
X61262500Y-60468750D01*
X61262500Y-60468750D02*
X61262500Y-74468750D01*
X61262500Y-74468750D02*
X75262500Y-74468750D01*
X75262500Y-74468750D02*
X75262500Y-60468750D01*
%TO.C,MX-E-4*%
X89837500Y-131618750D02*
X103837500Y-131618750D01*
X103837500Y-131618750D02*
X103837500Y-117618750D01*
X103837500Y-117618750D02*
X89837500Y-117618750D01*
X89837500Y-117618750D02*
X89837500Y-131618750D01*
%TO.C,MX-E-2*%
X113362500Y-83993750D02*
X113362500Y-69993750D01*
X113362500Y-69993750D02*
X99362500Y-69993750D01*
X99362500Y-69993750D02*
X99362500Y-83993750D01*
X99362500Y-83993750D02*
X113362500Y-83993750D01*
%TO.C,MX14*%
X75262500Y-98568750D02*
X61262500Y-98568750D01*
X61262500Y-98568750D02*
X61262500Y-112568750D01*
X61262500Y-112568750D02*
X75262500Y-112568750D01*
X75262500Y-112568750D02*
X75262500Y-98568750D01*
%TO.C,MX11*%
X94312500Y-79518750D02*
X80312500Y-79518750D01*
X80312500Y-79518750D02*
X80312500Y-93518750D01*
X80312500Y-93518750D02*
X94312500Y-93518750D01*
X94312500Y-93518750D02*
X94312500Y-79518750D01*
%TO.C,MX17*%
X51737500Y-131618750D02*
X65737500Y-131618750D01*
X65737500Y-131618750D02*
X65737500Y-117618750D01*
X65737500Y-117618750D02*
X51737500Y-117618750D01*
X51737500Y-117618750D02*
X51737500Y-131618750D01*
%TO.C,MX16*%
X99362500Y-98568750D02*
X99362500Y-112568750D01*
X99362500Y-112568750D02*
X113362500Y-112568750D01*
X113362500Y-112568750D02*
X113362500Y-98568750D01*
X113362500Y-98568750D02*
X99362500Y-98568750D01*
%TO.C,MX12*%
X99362500Y-79518750D02*
X99362500Y-93518750D01*
X99362500Y-93518750D02*
X113362500Y-93518750D01*
X113362500Y-93518750D02*
X113362500Y-79518750D01*
X113362500Y-79518750D02*
X99362500Y-79518750D01*
%TO.C,MX18*%
X75262500Y-117618750D02*
X61262500Y-117618750D01*
X61262500Y-117618750D02*
X61262500Y-131618750D01*
X61262500Y-131618750D02*
X75262500Y-131618750D01*
X75262500Y-131618750D02*
X75262500Y-117618750D01*
%TO.C,MX10*%
X75262500Y-79518750D02*
X61262500Y-79518750D01*
X61262500Y-79518750D02*
X61262500Y-93518750D01*
X61262500Y-93518750D02*
X75262500Y-93518750D01*
X75262500Y-93518750D02*
X75262500Y-79518750D01*
%TO.C,MX20*%
X113362500Y-122093750D02*
X113362500Y-108093750D01*
X113362500Y-108093750D02*
X99362500Y-108093750D01*
X99362500Y-108093750D02*
X99362500Y-122093750D01*
X99362500Y-122093750D02*
X113362500Y-122093750D01*
%TO.C,MX8*%
X99362500Y-60468750D02*
X99362500Y-74468750D01*
X99362500Y-74468750D02*
X113362500Y-74468750D01*
X113362500Y-74468750D02*
X113362500Y-60468750D01*
X113362500Y-60468750D02*
X99362500Y-60468750D01*
%TO.C,MX7*%
X94312500Y-60468750D02*
X80312500Y-60468750D01*
X80312500Y-60468750D02*
X80312500Y-74468750D01*
X80312500Y-74468750D02*
X94312500Y-74468750D01*
X94312500Y-74468750D02*
X94312500Y-60468750D01*
%TO.C,MX19*%
X94312500Y-117618750D02*
X80312500Y-117618750D01*
X80312500Y-117618750D02*
X80312500Y-131618750D01*
X80312500Y-131618750D02*
X94312500Y-131618750D01*
X94312500Y-131618750D02*
X94312500Y-117618750D01*
%TO.C,MX4*%
X113362500Y-41418750D02*
X99362500Y-41418750D01*
X99362500Y-41418750D02*
X99362500Y-55418750D01*
X99362500Y-55418750D02*
X113362500Y-55418750D01*
X113362500Y-55418750D02*
X113362500Y-41418750D01*
%TO.C,MX1*%
X56212500Y-41418750D02*
X42212500Y-41418750D01*
X42212500Y-41418750D02*
X42212500Y-55418750D01*
X42212500Y-55418750D02*
X56212500Y-55418750D01*
X56212500Y-55418750D02*
X56212500Y-41418750D01*
%TO.C,MX-E-3*%
X56212500Y-122093750D02*
X56212500Y-108093750D01*
X56212500Y-108093750D02*
X42212500Y-108093750D01*
X42212500Y-108093750D02*
X42212500Y-122093750D01*
X42212500Y-122093750D02*
X56212500Y-122093750D01*
%TO.C,MX13*%
X42212500Y-98568750D02*
X42212500Y-112568750D01*
X42212500Y-112568750D02*
X56212500Y-112568750D01*
X56212500Y-112568750D02*
X56212500Y-98568750D01*
X56212500Y-98568750D02*
X42212500Y-98568750D01*
%TO.C,MX2*%
X75262500Y-41418750D02*
X61262500Y-41418750D01*
X61262500Y-41418750D02*
X61262500Y-55418750D01*
X61262500Y-55418750D02*
X75262500Y-55418750D01*
X75262500Y-55418750D02*
X75262500Y-41418750D01*
%TD*%
M02*
