%TF.GenerationSoftware,KiCad,Pcbnew,(6.0.7)*%
%TF.CreationDate,2022-10-13T01:22:27-05:00*%
%TF.ProjectId,Container65PLATE,436f6e74-6169-46e6-9572-3635504c4154,rev?*%
%TF.SameCoordinates,Original*%
%TF.FileFunction,Copper,L1,Top*%
%TF.FilePolarity,Positive*%
%FSLAX46Y46*%
G04 Gerber Fmt 4.6, Leading zero omitted, Abs format (unit mm)*
G04 Created by KiCad (PCBNEW (6.0.7)) date 2022-10-13 01:22:27*
%MOMM*%
%LPD*%
G01*
G04 APERTURE LIST*
G04 Aperture macros list*
%AMRoundRect*
0 Rectangle with rounded corners*
0 $1 Rounding radius*
0 $2 $3 $4 $5 $6 $7 $8 $9 X,Y pos of 4 corners*
0 Add a 4 corners polygon primitive as box body*
4,1,4,$2,$3,$4,$5,$6,$7,$8,$9,$2,$3,0*
0 Add four circle primitives for the rounded corners*
1,1,$1+$1,$2,$3*
1,1,$1+$1,$4,$5*
1,1,$1+$1,$6,$7*
1,1,$1+$1,$8,$9*
0 Add four rect primitives between the rounded corners*
20,1,$1+$1,$2,$3,$4,$5,0*
20,1,$1+$1,$4,$5,$6,$7,0*
20,1,$1+$1,$6,$7,$8,$9,0*
20,1,$1+$1,$8,$9,$2,$3,0*%
G04 Aperture macros list end*
%TA.AperFunction,SMDPad,CuDef*%
%ADD10RoundRect,1.008000X-6.992000X6.992000X-6.992000X-6.992000X6.992000X-6.992000X6.992000X6.992000X0*%
%TD*%
%TA.AperFunction,SMDPad,CuDef*%
%ADD11RoundRect,0.466200X-7.233800X3.233800X-7.233800X-3.233800X7.233800X-3.233800X7.233800X3.233800X0*%
%TD*%
%TA.AperFunction,SMDPad,CuDef*%
%ADD12RoundRect,1.008000X6.992000X-6.992000X6.992000X6.992000X-6.992000X6.992000X-6.992000X-6.992000X0*%
%TD*%
%TA.AperFunction,SMDPad,CuDef*%
%ADD13RoundRect,0.466200X7.233800X-3.233800X7.233800X3.233800X-7.233800X3.233800X-7.233800X-3.233800X0*%
%TD*%
%TA.AperFunction,SMDPad,CuDef*%
%ADD14RoundRect,1.008000X-6.992000X-6.992000X6.992000X-6.992000X6.992000X6.992000X-6.992000X6.992000X0*%
%TD*%
%TA.AperFunction,SMDPad,CuDef*%
%ADD15RoundRect,0.466200X-3.233800X-7.233800X3.233800X-7.233800X3.233800X7.233800X-3.233800X7.233800X0*%
%TD*%
%TA.AperFunction,SMDPad,CuDef*%
%ADD16RoundRect,1.008000X6.992000X6.992000X-6.992000X6.992000X-6.992000X-6.992000X6.992000X-6.992000X0*%
%TD*%
%TA.AperFunction,WasherPad*%
%ADD17O,3.200000X2.000000*%
%TD*%
%TA.AperFunction,ComponentPad*%
%ADD18R,2.000000X2.000000*%
%TD*%
%TA.AperFunction,ComponentPad*%
%ADD19C,2.000000*%
%TD*%
%TA.AperFunction,ComponentPad*%
%ADD20C,1.397000*%
%TD*%
%TA.AperFunction,ComponentPad*%
%ADD21R,2.000000X1.500000*%
%TD*%
%TA.AperFunction,ComponentPad*%
%ADD22O,2.000000X1.500000*%
%TD*%
%TA.AperFunction,ComponentPad*%
%ADD23O,1.600000X2.000000*%
%TD*%
%TA.AperFunction,ComponentPad*%
%ADD24O,1.200000X1.800000*%
%TD*%
%TA.AperFunction,ComponentPad*%
%ADD25O,1.200000X2.000000*%
%TD*%
G04 APERTURE END LIST*
D10*
%TO.P,REF\u002A\u002A,1*%
%TO.N,N/C*%
X49212500Y-115093750D03*
D11*
X50712500Y-127031250D03*
X50712500Y-103156250D03*
%TD*%
D10*
%TO.P,REF\u002A\u002A,1*%
%TO.N,N/C*%
X49212500Y-76993750D03*
D11*
X50712500Y-88931250D03*
X50712500Y-65056250D03*
%TD*%
D12*
%TO.P,REF\u002A\u002A,1*%
%TO.N,N/C*%
X106362500Y-76993750D03*
D13*
X104862500Y-65056250D03*
X104862500Y-88931250D03*
%TD*%
D12*
%TO.P,REF\u002A\u002A,1*%
%TO.N,N/C*%
X106362500Y-115093750D03*
D13*
X104862500Y-103156250D03*
X104862500Y-127031250D03*
%TD*%
D14*
%TO.P,REF\u002A\u002A,1*%
%TO.N,N/C*%
X58737500Y-124618750D03*
D15*
X70675000Y-123118750D03*
X46800000Y-123118750D03*
%TD*%
D14*
%TO.P,REF\u002A\u002A,1*%
%TO.N,N/C*%
X96837500Y-124618750D03*
D15*
X108775000Y-123118750D03*
X84900000Y-123118750D03*
%TD*%
D10*
%TO.P,MX5,1*%
%TO.N,N/C*%
X49212500Y-67468750D03*
%TD*%
D16*
%TO.P,MX15,1*%
%TO.N,N/C*%
X87312500Y-105568750D03*
%TD*%
D10*
%TO.P,MX9,1*%
%TO.N,N/C*%
X49212500Y-86518750D03*
%TD*%
D12*
%TO.P,MX-E-1,1*%
%TO.N,N/C*%
X49212500Y-76993750D03*
%TD*%
D16*
%TO.P,MX3,1*%
%TO.N,N/C*%
X87312500Y-48418750D03*
%TD*%
%TO.P,MX6,1*%
%TO.N,N/C*%
X68262500Y-67468750D03*
%TD*%
D14*
%TO.P,MX-E-4,1*%
%TO.N,N/C*%
X96837500Y-124618750D03*
%TD*%
D12*
%TO.P,MX-E-2,1*%
%TO.N,N/C*%
X106362500Y-76993750D03*
%TD*%
D16*
%TO.P,MX14,1*%
%TO.N,N/C*%
X68262500Y-105568750D03*
%TD*%
%TO.P,MX11,1*%
%TO.N,N/C*%
X87312500Y-86518750D03*
%TD*%
D14*
%TO.P,MX17,1*%
%TO.N,N/C*%
X58737500Y-124618750D03*
%TD*%
D10*
%TO.P,MX16,1*%
%TO.N,N/C*%
X106362500Y-105568750D03*
%TD*%
%TO.P,MX12,1*%
%TO.N,N/C*%
X106362500Y-86518750D03*
%TD*%
D16*
%TO.P,MX18,1*%
%TO.N,N/C*%
X68262500Y-124618750D03*
%TD*%
%TO.P,MX10,1*%
%TO.N,N/C*%
X68262500Y-86518750D03*
%TD*%
D12*
%TO.P,MX20,1*%
%TO.N,N/C*%
X106362500Y-115093750D03*
%TD*%
D10*
%TO.P,MX8,1*%
%TO.N,N/C*%
X106362500Y-67468750D03*
%TD*%
D16*
%TO.P,MX7,1*%
%TO.N,N/C*%
X87312500Y-67468750D03*
%TD*%
%TO.P,MX19,1*%
%TO.N,N/C*%
X87312500Y-124618750D03*
%TD*%
%TO.P,MX4,1*%
%TO.N,N/C*%
X106362500Y-48418750D03*
%TD*%
%TO.P,MX1,1*%
%TO.N,N/C*%
X49212500Y-48418750D03*
%TD*%
D12*
%TO.P,MX-E-3,1*%
%TO.N,N/C*%
X49212500Y-115093750D03*
%TD*%
D10*
%TO.P,MX13,1*%
%TO.N,N/C*%
X49212500Y-105568750D03*
%TD*%
D16*
%TO.P,MX2,1*%
%TO.N,N/C*%
X68262500Y-48418750D03*
%TD*%
D17*
%TO.P,SW1,*%
%TO.N,*%
X106362500Y-34968750D03*
X106362500Y-23768750D03*
D18*
%TO.P,SW1,A,A*%
%TO.N,encB*%
X113862500Y-31868750D03*
D19*
%TO.P,SW1,B,B*%
%TO.N,encA*%
X113862500Y-26868750D03*
%TO.P,SW1,C,C*%
%TO.N,GND*%
X113862500Y-29368750D03*
%TO.P,SW1,S1,S1*%
%TO.N,Net-(D23-Pad2)*%
X99362500Y-26868750D03*
%TO.P,SW1,S2,S2*%
%TO.N,COL3*%
X99362500Y-31868750D03*
%TD*%
D20*
%TO.P,OL1,1,SDA*%
%TO.N,SDA*%
X95517500Y-33178750D03*
%TO.P,OL1,2,SCL*%
%TO.N,SCL*%
X95517500Y-30638750D03*
%TO.P,OL1,3,VCC*%
%TO.N,+3V3*%
X95517500Y-28098750D03*
%TO.P,OL1,4,GND*%
%TO.N,GND*%
X95517500Y-25558750D03*
%TD*%
D21*
%TO.P,J3,1,Pin_1*%
%TO.N,GND*%
X41687500Y-97283750D03*
D22*
%TO.P,J3,2,Pin_2*%
%TO.N,+3V3*%
X41687500Y-94743750D03*
%TD*%
%TO.P,J6,1,Pin_1*%
%TO.N,SDA*%
X113887500Y-59252500D03*
%TO.P,J6,2,Pin_2*%
%TO.N,SCL*%
X113887500Y-56712500D03*
%TD*%
%TO.P,J4,1,Pin_1*%
%TO.N,SDA*%
X41687500Y-59252500D03*
%TO.P,J4,2,Pin_2*%
%TO.N,SCL*%
X41687500Y-56712500D03*
%TD*%
D23*
%TO.P,U7,1,SLEEVE*%
%TO.N,SCL*%
X48337500Y-30000000D03*
%TO.P,U7,2,TIP*%
%TO.N,+3V3*%
X43737500Y-28900000D03*
%TO.P,U7,3,RING1*%
%TO.N,GND*%
X43737500Y-24900000D03*
%TO.P,U7,4,RING2*%
%TO.N,SDA*%
X43737500Y-21900000D03*
%TD*%
D21*
%TO.P,J5,1,Pin_1*%
%TO.N,GND*%
X113887500Y-97293750D03*
D22*
%TO.P,J5,2,Pin_2*%
%TO.N,+3V3*%
X113887500Y-94753750D03*
%TD*%
D24*
%TO.P,U2,0,0*%
%TO.N,GND*%
X54411363Y-19453362D03*
D25*
X63061605Y-23653261D03*
X54411363Y-23653261D03*
D24*
X63061605Y-19453362D03*
%TD*%
%TA.AperFunction,Conductor*%
%TO.N,GND*%
G36*
X61956292Y-18657752D02*
G01*
X62002785Y-18711408D01*
X62012889Y-18781682D01*
X62005037Y-18810848D01*
X61996644Y-18831673D01*
X61993250Y-18843132D01*
X61954748Y-19040290D01*
X61953671Y-19049153D01*
X61953605Y-19051862D01*
X61953605Y-19181247D01*
X61958080Y-19196486D01*
X61959470Y-19197691D01*
X61967153Y-19199362D01*
X62992500Y-19199362D01*
X63060621Y-19219364D01*
X63107114Y-19273020D01*
X63118500Y-19325362D01*
X63118500Y-20597596D01*
X63116951Y-20617291D01*
X63113745Y-20637549D01*
X63115298Y-20647346D01*
X63115298Y-20647765D01*
X63116264Y-20655918D01*
X63129351Y-20821958D01*
X63130506Y-20826767D01*
X63171393Y-20996998D01*
X63172552Y-21001825D01*
X63243355Y-21172720D01*
X63245942Y-21176941D01*
X63245943Y-21176943D01*
X63328665Y-21311914D01*
X63340017Y-21330437D01*
X63382309Y-21379951D01*
X63411342Y-21444737D01*
X63412500Y-21461783D01*
X63412500Y-22052526D01*
X63392498Y-22120647D01*
X63338842Y-22167140D01*
X63321367Y-22172260D01*
X63320106Y-22173351D01*
X63315605Y-22188646D01*
X63315605Y-23781261D01*
X63295603Y-23849382D01*
X63241947Y-23895875D01*
X63189605Y-23907261D01*
X62933605Y-23907261D01*
X62865484Y-23887259D01*
X62818991Y-23833603D01*
X62807605Y-23781261D01*
X62807605Y-22192859D01*
X62803632Y-22179328D01*
X62794206Y-22177973D01*
X62705068Y-22199455D01*
X62693773Y-22203344D01*
X62512223Y-22285890D01*
X62501881Y-22291837D01*
X62339208Y-22407229D01*
X62330180Y-22415022D01*
X62235522Y-22513903D01*
X62173967Y-22549279D01*
X62103057Y-22545760D01*
X62071182Y-22527522D01*
X62070681Y-22528274D01*
X62064587Y-22524210D01*
X62059009Y-22519471D01*
X61901900Y-22439248D01*
X61894794Y-22437509D01*
X61894791Y-22437508D01*
X61790165Y-22411906D01*
X61730550Y-22397318D01*
X61722953Y-22396847D01*
X61721368Y-22396748D01*
X61721355Y-22396748D01*
X61719427Y-22396628D01*
X61592234Y-22396628D01*
X61522704Y-22404734D01*
X61468459Y-22411058D01*
X61468455Y-22411059D01*
X61461189Y-22411906D01*
X61454314Y-22414402D01*
X61454312Y-22414402D01*
X61302246Y-22469600D01*
X61295370Y-22472096D01*
X61289251Y-22476108D01*
X61170011Y-22554285D01*
X61147844Y-22568818D01*
X61026526Y-22696884D01*
X60937924Y-22849424D01*
X60886790Y-23018256D01*
X60875867Y-23194323D01*
X60877107Y-23201539D01*
X60877107Y-23201541D01*
X60893169Y-23295018D01*
X60905741Y-23368181D01*
X60974810Y-23530503D01*
X61079368Y-23672582D01*
X61084944Y-23677319D01*
X61181353Y-23759225D01*
X61220317Y-23818574D01*
X61221010Y-23889567D01*
X61183211Y-23949665D01*
X61118921Y-23979787D01*
X61099773Y-23981250D01*
X56375253Y-23981250D01*
X56307132Y-23961248D01*
X56260639Y-23907592D01*
X56250535Y-23837318D01*
X56280029Y-23772738D01*
X56306168Y-23749878D01*
X56319005Y-23741462D01*
X56319006Y-23741461D01*
X56325124Y-23737450D01*
X56446442Y-23609384D01*
X56535044Y-23456844D01*
X56586178Y-23288012D01*
X56597101Y-23111945D01*
X56581003Y-23018256D01*
X56568467Y-22945302D01*
X56568466Y-22945300D01*
X56567227Y-22938087D01*
X56498158Y-22775765D01*
X56393600Y-22633686D01*
X56362946Y-22607643D01*
X56264740Y-22524210D01*
X56264736Y-22524207D01*
X56259161Y-22519471D01*
X56102052Y-22439248D01*
X56094946Y-22437509D01*
X56094943Y-22437508D01*
X55990317Y-22411906D01*
X55930702Y-22397318D01*
X55923105Y-22396847D01*
X55921520Y-22396748D01*
X55921507Y-22396748D01*
X55919579Y-22396628D01*
X55792386Y-22396628D01*
X55722856Y-22404734D01*
X55668611Y-22411058D01*
X55668607Y-22411059D01*
X55661341Y-22411906D01*
X55654466Y-22414402D01*
X55654464Y-22414402D01*
X55502398Y-22469600D01*
X55495522Y-22472096D01*
X55489403Y-22476108D01*
X55401618Y-22533662D01*
X55333682Y-22554285D01*
X55265382Y-22534905D01*
X55233445Y-22506121D01*
X55221097Y-22490401D01*
X55212864Y-22481755D01*
X55062240Y-22351049D01*
X55052516Y-22344114D01*
X54879896Y-22244251D01*
X54869032Y-22239277D01*
X54680636Y-22173854D01*
X54679647Y-22173613D01*
X54669355Y-22175081D01*
X54665363Y-22188646D01*
X54665363Y-23781261D01*
X54645361Y-23849382D01*
X54591705Y-23895875D01*
X54539363Y-23907261D01*
X54283363Y-23907261D01*
X54215242Y-23887259D01*
X54168749Y-23833603D01*
X54157363Y-23781261D01*
X54157363Y-22192859D01*
X54153390Y-22179328D01*
X54143964Y-22177973D01*
X54054817Y-22199458D01*
X54054516Y-22199561D01*
X54054357Y-22199568D01*
X54048993Y-22200861D01*
X54048744Y-22199827D01*
X53983594Y-22202824D01*
X53922167Y-22167225D01*
X53889738Y-22104067D01*
X53887500Y-22080424D01*
X53887500Y-21637871D01*
X53907502Y-21569750D01*
X53931672Y-21542058D01*
X54014806Y-21471058D01*
X54134943Y-21330408D01*
X54212273Y-21204235D01*
X54229013Y-21176921D01*
X54229014Y-21176919D01*
X54231601Y-21172698D01*
X54302401Y-21001810D01*
X54304156Y-20994506D01*
X54342944Y-20833010D01*
X54345600Y-20821951D01*
X54346245Y-20813764D01*
X54665363Y-20813764D01*
X54669336Y-20827295D01*
X54678762Y-20828650D01*
X54767900Y-20807168D01*
X54779195Y-20803279D01*
X54960745Y-20720733D01*
X54971087Y-20714786D01*
X55133760Y-20599394D01*
X55142788Y-20591601D01*
X55280705Y-20447531D01*
X55288101Y-20438166D01*
X55396284Y-20270621D01*
X55401780Y-20260017D01*
X55476324Y-20075050D01*
X55479718Y-20063592D01*
X55518220Y-19866434D01*
X55519297Y-19857571D01*
X55519363Y-19854862D01*
X55519363Y-19803194D01*
X61953605Y-19803194D01*
X61953890Y-19809170D01*
X61968076Y-19957856D01*
X61970335Y-19969590D01*
X62026477Y-20160961D01*
X62030907Y-20172037D01*
X62122224Y-20349340D01*
X62128674Y-20359386D01*
X62251867Y-20516219D01*
X62260104Y-20524868D01*
X62410728Y-20655574D01*
X62420452Y-20662509D01*
X62593072Y-20762372D01*
X62603936Y-20767346D01*
X62792332Y-20832769D01*
X62793321Y-20833010D01*
X62803613Y-20831542D01*
X62807605Y-20817977D01*
X62807605Y-19725477D01*
X62803130Y-19710238D01*
X62801740Y-19709033D01*
X62794057Y-19707362D01*
X61971720Y-19707362D01*
X61956481Y-19711837D01*
X61955276Y-19713227D01*
X61953605Y-19720910D01*
X61953605Y-19803194D01*
X55519363Y-19803194D01*
X55519363Y-19725477D01*
X55514888Y-19710238D01*
X55513498Y-19709033D01*
X55505815Y-19707362D01*
X54683478Y-19707362D01*
X54668239Y-19711837D01*
X54667034Y-19713227D01*
X54665363Y-19720910D01*
X54665363Y-20813764D01*
X54346245Y-20813764D01*
X54354176Y-20713139D01*
X54355156Y-20706447D01*
X54356016Y-20703998D01*
X54356500Y-20698409D01*
X54356500Y-20688603D01*
X54356890Y-20678702D01*
X54358635Y-20656563D01*
X54359702Y-20647552D01*
X54359702Y-20647344D01*
X54361255Y-20637549D01*
X54358049Y-20617291D01*
X54356500Y-20597596D01*
X54356500Y-19325362D01*
X54376502Y-19257241D01*
X54430158Y-19210748D01*
X54482500Y-19199362D01*
X55501248Y-19199362D01*
X55516487Y-19194887D01*
X55517692Y-19193497D01*
X55519363Y-19185814D01*
X55519363Y-19103530D01*
X55519078Y-19097554D01*
X55504892Y-18948868D01*
X55502634Y-18937137D01*
X55462173Y-18799220D01*
X55462190Y-18728223D01*
X55500588Y-18668506D01*
X55565176Y-18639028D01*
X55583078Y-18637750D01*
X61888171Y-18637750D01*
X61956292Y-18657752D01*
G37*
%TD.AperFunction*%
%TD*%
M02*
