M48
; DRILL file {KiCad (6.0.7)} date Thu Oct 13 01:22:30 2022
; FORMAT={-:-/ absolute / inch / decimal}
; #@! TF.CreationDate,2022-10-13T01:22:30-05:00
; #@! TF.GenerationSoftware,Kicad,Pcbnew,(6.0.7)
; #@! TF.FileFunction,Plated,1,2,PTH
FMAT,2
INCH
; #@! TA.AperFunction,Plated,PTH,ComponentDrill
T1C0.0315
; #@! TA.AperFunction,Plated,PTH,ComponentDrill
T2C0.0320
; #@! TA.AperFunction,Plated,PTH,ComponentDrill
T3C0.0354
; #@! TA.AperFunction,Plated,PTH,ComponentDrill
T4C0.0394
%
G90
G05
T2
X3.7605Y-1.0062
X3.7605Y-1.1062
X3.7605Y-1.2063
X3.7605Y-1.3062
T4
X1.6412Y-2.2328
X1.6412Y-2.3328
X1.6412Y-3.7301
X1.6412Y-3.8301
X3.9119Y-1.0578
X3.9119Y-1.2547
X4.4828Y-1.0578
X4.4828Y-1.1562
X4.4828Y-1.2547
X4.4838Y-2.2328
X4.4838Y-2.3328
X4.4838Y-3.7305
X4.4838Y-3.8305
T1
G00X2.1422Y-0.7541
M15
G01X2.1422Y-0.7777
M16
G05
G00X2.1422Y-0.9155
M15
G01X2.1422Y-0.947
M16
G05
G00X2.4827Y-0.7541
M15
G01X2.4827Y-0.7777
M16
G05
G00X2.4827Y-0.9155
M15
G01X2.4827Y-0.947
M16
G05
T3
G00X1.7219Y-0.8701
M15
G01X1.7219Y-0.8543
M16
G05
G00X1.7219Y-0.9882
M15
G01X1.7219Y-0.9724
M16
G05
G00X1.7219Y-1.1457
M15
G01X1.7219Y-1.1299
M16
G05
G00X1.9031Y-1.189
M15
G01X1.9031Y-1.1732
M16
G05
T0
M30
