%TF.GenerationSoftware,KiCad,Pcbnew,(6.0.7)*%
%TF.CreationDate,2022-10-13T01:22:27-05:00*%
%TF.ProjectId,Container65PLATE,436f6e74-6169-46e6-9572-3635504c4154,rev?*%
%TF.SameCoordinates,Original*%
%TF.FileFunction,Soldermask,Top*%
%TF.FilePolarity,Negative*%
%FSLAX46Y46*%
G04 Gerber Fmt 4.6, Leading zero omitted, Abs format (unit mm)*
G04 Created by KiCad (PCBNEW (6.0.7)) date 2022-10-13 01:22:27*
%MOMM*%
%LPD*%
G01*
G04 APERTURE LIST*
G04 Aperture macros list*
%AMRoundRect*
0 Rectangle with rounded corners*
0 $1 Rounding radius*
0 $2 $3 $4 $5 $6 $7 $8 $9 X,Y pos of 4 corners*
0 Add a 4 corners polygon primitive as box body*
4,1,4,$2,$3,$4,$5,$6,$7,$8,$9,$2,$3,0*
0 Add four circle primitives for the rounded corners*
1,1,$1+$1,$2,$3*
1,1,$1+$1,$4,$5*
1,1,$1+$1,$6,$7*
1,1,$1+$1,$8,$9*
0 Add four rect primitives between the rounded corners*
20,1,$1+$1,$2,$3,$4,$5,0*
20,1,$1+$1,$4,$5,$6,$7,0*
20,1,$1+$1,$6,$7,$8,$9,0*
20,1,$1+$1,$8,$9,$2,$3,0*%
G04 Aperture macros list end*
%ADD10RoundRect,1.008000X-6.992000X6.992000X-6.992000X-6.992000X6.992000X-6.992000X6.992000X6.992000X0*%
%ADD11RoundRect,0.466200X-7.233800X3.233800X-7.233800X-3.233800X7.233800X-3.233800X7.233800X3.233800X0*%
%ADD12RoundRect,1.008000X6.992000X-6.992000X6.992000X6.992000X-6.992000X6.992000X-6.992000X-6.992000X0*%
%ADD13RoundRect,0.466200X7.233800X-3.233800X7.233800X3.233800X-7.233800X3.233800X-7.233800X-3.233800X0*%
%ADD14RoundRect,1.008000X-6.992000X-6.992000X6.992000X-6.992000X6.992000X6.992000X-6.992000X6.992000X0*%
%ADD15RoundRect,0.466200X-3.233800X-7.233800X3.233800X-7.233800X3.233800X7.233800X-3.233800X7.233800X0*%
%ADD16O,0.304800X6.654800*%
%ADD17O,1.473200X0.304800*%
%ADD18O,12.293600X0.304800*%
%ADD19O,0.304800X1.168400*%
%ADD20O,0.304800X3.048000*%
%ADD21O,2.794000X0.304800*%
%ADD22O,0.304800X12.293600*%
%ADD23O,6.654800X0.304800*%
%ADD24O,1.168400X0.304800*%
%ADD25O,3.048000X0.304800*%
%ADD26O,0.304800X1.473200*%
%ADD27O,0.304800X2.794000*%
%ADD28RoundRect,1.008000X6.992000X6.992000X-6.992000X6.992000X-6.992000X-6.992000X6.992000X-6.992000X0*%
%ADD29O,3.200000X2.000000*%
%ADD30R,2.000000X2.000000*%
%ADD31C,2.000000*%
%ADD32O,0.650000X0.650000*%
%ADD33R,2.000000X1.500000*%
%ADD34O,2.000000X1.500000*%
%ADD35C,0.800000*%
%ADD36O,1.600000X2.000000*%
%ADD37C,0.750013*%
%ADD38O,1.200000X1.800000*%
%ADD39O,1.200000X2.000000*%
G04 APERTURE END LIST*
D10*
%TO.C,REF\u002A\u002A*%
X49212500Y-115093750D03*
D11*
X50712500Y-127031250D03*
X50712500Y-103156250D03*
%TD*%
D10*
%TO.C,REF\u002A\u002A*%
X49212500Y-76993750D03*
D11*
X50712500Y-88931250D03*
X50712500Y-65056250D03*
%TD*%
D12*
%TO.C,REF\u002A\u002A*%
X106362500Y-76993750D03*
D13*
X104862500Y-65056250D03*
X104862500Y-88931250D03*
%TD*%
D12*
%TO.C,REF\u002A\u002A*%
X106362500Y-115093750D03*
D13*
X104862500Y-103156250D03*
X104862500Y-127031250D03*
%TD*%
D14*
%TO.C,REF\u002A\u002A*%
X58737500Y-124618750D03*
D15*
X70675000Y-123118750D03*
X46800000Y-123118750D03*
%TD*%
D14*
%TO.C,REF\u002A\u002A*%
X96837500Y-124618750D03*
D15*
X108775000Y-123118750D03*
X84900000Y-123118750D03*
%TD*%
D16*
%TO.C,X1*%
X43675300Y-88931750D03*
D17*
X56324500Y-66427350D03*
D16*
X55664100Y-65055750D03*
D18*
X49669700Y-85756750D03*
X49669700Y-92106750D03*
D19*
X49568100Y-61448950D03*
D17*
X56324500Y-63684150D03*
X56324500Y-87560150D03*
D18*
X49669700Y-61880750D03*
D20*
X56984900Y-65055750D03*
X56984900Y-88931750D03*
D19*
X49568100Y-92538550D03*
D21*
X48323500Y-92970350D03*
X48323500Y-61017150D03*
D16*
X43675300Y-65055750D03*
X55664100Y-88931750D03*
D17*
X56324500Y-90303350D03*
D18*
X49669700Y-68230750D03*
D19*
X47078900Y-61448950D03*
X47078900Y-92538550D03*
%TD*%
D16*
%TO.C,X2*%
X111899700Y-88931750D03*
D18*
X105905300Y-68230750D03*
D16*
X111899700Y-65055750D03*
D17*
X99250500Y-66427350D03*
D18*
X105905300Y-85756750D03*
D16*
X99910900Y-65055750D03*
D20*
X98590100Y-88931750D03*
D19*
X106006900Y-61448950D03*
D17*
X99250500Y-87560150D03*
D16*
X99910900Y-88931750D03*
D19*
X108496100Y-92538550D03*
D17*
X99250500Y-63684150D03*
X99250500Y-90303350D03*
D18*
X105905300Y-61880750D03*
D19*
X106006900Y-92538550D03*
D21*
X107251500Y-61017150D03*
D20*
X98590100Y-65055750D03*
D18*
X105905300Y-92106750D03*
D19*
X108496100Y-61448950D03*
D21*
X107251500Y-92970350D03*
%TD*%
D22*
%TO.C,X4*%
X105600500Y-124161550D03*
D23*
X84899500Y-130155950D03*
D24*
X112382300Y-124263150D03*
X112382300Y-126752350D03*
D22*
X81724500Y-124161550D03*
D25*
X84899500Y-116846350D03*
D26*
X83527900Y-117506750D03*
D25*
X108775500Y-116846350D03*
D23*
X108775500Y-118167150D03*
X108775500Y-130155950D03*
D26*
X110147100Y-117506750D03*
D22*
X88074500Y-124161550D03*
X111950500Y-124161550D03*
D24*
X81292700Y-126752350D03*
X81292700Y-124263150D03*
D23*
X84899500Y-118167150D03*
D26*
X107403900Y-117506750D03*
D27*
X80860900Y-125507750D03*
D26*
X86271100Y-117506750D03*
D27*
X112814100Y-125507750D03*
%TD*%
D26*
%TO.C,X3*%
X69303900Y-117506750D03*
X72047100Y-117506750D03*
D24*
X74282300Y-124263150D03*
D25*
X70675500Y-116846350D03*
D24*
X43192700Y-124263150D03*
D27*
X74714100Y-125507750D03*
D25*
X46799500Y-116846350D03*
D23*
X70675500Y-118167150D03*
D27*
X42760900Y-125507750D03*
D24*
X74282300Y-126752350D03*
D23*
X46799500Y-130155950D03*
D26*
X48171100Y-117506750D03*
D22*
X49974500Y-124161550D03*
D26*
X45427900Y-117506750D03*
D23*
X46799500Y-118167150D03*
X70675500Y-130155950D03*
D22*
X43624500Y-124161550D03*
D24*
X43192700Y-126752350D03*
D22*
X73850500Y-124161550D03*
X67500500Y-124161550D03*
%TD*%
D10*
%TO.C,MX5*%
X49212500Y-67468750D03*
%TD*%
D28*
%TO.C,MX15*%
X87312500Y-105568750D03*
%TD*%
D10*
%TO.C,MX9*%
X49212500Y-86518750D03*
%TD*%
D12*
%TO.C,MX-E-1*%
X49212500Y-76993750D03*
%TD*%
D28*
%TO.C,MX3*%
X87312500Y-48418750D03*
%TD*%
%TO.C,MX6*%
X68262500Y-67468750D03*
%TD*%
D14*
%TO.C,MX-E-4*%
X96837500Y-124618750D03*
%TD*%
D12*
%TO.C,MX-E-2*%
X106362500Y-76993750D03*
%TD*%
D28*
%TO.C,MX14*%
X68262500Y-105568750D03*
%TD*%
%TO.C,MX11*%
X87312500Y-86518750D03*
%TD*%
D14*
%TO.C,MX17*%
X58737500Y-124618750D03*
%TD*%
D10*
%TO.C,MX16*%
X106362500Y-105568750D03*
%TD*%
%TO.C,MX12*%
X106362500Y-86518750D03*
%TD*%
D28*
%TO.C,MX18*%
X68262500Y-124618750D03*
%TD*%
%TO.C,MX10*%
X68262500Y-86518750D03*
%TD*%
D12*
%TO.C,MX20*%
X106362500Y-115093750D03*
%TD*%
D10*
%TO.C,MX8*%
X106362500Y-67468750D03*
%TD*%
D28*
%TO.C,MX7*%
X87312500Y-67468750D03*
%TD*%
%TO.C,MX19*%
X87312500Y-124618750D03*
%TD*%
%TO.C,MX4*%
X106362500Y-48418750D03*
%TD*%
%TO.C,MX1*%
X49212500Y-48418750D03*
%TD*%
D12*
%TO.C,MX-E-3*%
X49212500Y-115093750D03*
%TD*%
D10*
%TO.C,MX13*%
X49212500Y-105568750D03*
%TD*%
D28*
%TO.C,MX2*%
X68262500Y-48418750D03*
%TD*%
D29*
%TO.C,SW1*%
X106362500Y-34968750D03*
X106362500Y-23768750D03*
D30*
X113862500Y-31868750D03*
D31*
X113862500Y-26868750D03*
X113862500Y-29368750D03*
X99362500Y-26868750D03*
X99362500Y-31868750D03*
%TD*%
D32*
%TO.C,J3*%
X38687500Y-97283750D03*
X38687500Y-94783750D03*
D33*
X41687500Y-97283750D03*
D34*
X41687500Y-94743750D03*
%TD*%
D32*
%TO.C,J6*%
X116887500Y-59212500D03*
X116887500Y-56712500D03*
D34*
X113887500Y-59252500D03*
X113887500Y-56712500D03*
%TD*%
D32*
%TO.C,J4*%
X38687500Y-56752500D03*
X38687500Y-59252500D03*
D34*
X41687500Y-59252500D03*
X41687500Y-56712500D03*
%TD*%
D35*
%TO.C,U7*%
X46037500Y-27300000D03*
X46037500Y-20300000D03*
D36*
X48337500Y-30000000D03*
X43737500Y-28900000D03*
X43737500Y-24900000D03*
X43737500Y-21900000D03*
%TD*%
D32*
%TO.C,J5*%
X116887500Y-94753750D03*
X116887500Y-97253750D03*
D33*
X113887500Y-97293750D03*
D34*
X113887500Y-94753750D03*
%TD*%
D37*
%TO.C,U2*%
X55836560Y-23153134D03*
X61636408Y-23153134D03*
D38*
X54411363Y-19453362D03*
D39*
X63061605Y-23653261D03*
X54411363Y-23653261D03*
D38*
X63061605Y-19453362D03*
%TD*%
M02*
