M48
; DRILL file {KiCad (6.0.7)} date Thu Oct 13 01:22:30 2022
; FORMAT={-:-/ absolute / inch / decimal}
; #@! TF.CreationDate,2022-10-13T01:22:30-05:00
; #@! TF.GenerationSoftware,Kicad,Pcbnew,(6.0.7)
; #@! TF.FileFunction,NonPlated,1,2,NPTH
FMAT,2
INCH
; #@! TA.AperFunction,NonPlated,NPTH,ComponentDrill
T1C0.0120
; #@! TA.AperFunction,NonPlated,NPTH,ComponentDrill
T2C0.0256
; #@! TA.AperFunction,NonPlated,NPTH,ComponentDrill
T3C0.0295
; #@! TA.AperFunction,NonPlated,NPTH,ComponentDrill
T4C0.0315
; #@! TA.AperFunction,NonPlated,NPTH,ComponentDrill
T5C0.0591
%
G90
G05
T2
X1.5231Y-2.2344
X1.5231Y-2.3328
X1.5231Y-3.7316
X1.5231Y-3.8301
X4.6019Y-2.2328
X4.6019Y-2.3312
X4.6019Y-3.7305
X4.6019Y-3.8289
T3
X2.1983Y-0.9115
X2.4266Y-0.9115
T4
X1.8125Y-0.7992
X1.8125Y-1.0748
T1
G00X1.6835Y-4.9902
M15
G01X1.6835Y-4.8922
M16
G05
G00X1.7175Y-4.8922
M15
G01X1.6835Y-4.8922
M16
G05
G00X1.7175Y-4.9902
M15
G01X1.6835Y-4.9902
M16
G05
G00X1.7175Y-5.1242
M15
G01X1.7175Y-4.6522
M16
G05
G00X1.7195Y-2.6862
M15
G01X1.7195Y-2.4362
M16
G05
G00X1.7195Y-3.6262
M15
G01X1.7195Y-3.3762
M16
G05
G00X1.7885Y-4.6493
M15
G01X1.7885Y-4.6033
M16
G05
G00X1.8965Y-4.6002
M15
G01X1.7885Y-4.6002
M16
G05
G00X1.9675Y-4.6522
M15
G01X1.7175Y-4.6522
M16
G05
G00X1.9675Y-5.1242
M15
G01X1.7175Y-5.1242
M16
G05
G00X1.8535Y-2.4362
M15
G01X1.8535Y-2.4022
M16
G05
G00X1.8535Y-3.6603
M15
G01X1.8535Y-3.6262
M16
G05
G00X1.8965Y-4.6493
M15
G01X1.8965Y-4.6033
M16
G05
G00X1.8535Y-2.4022
M15
G01X1.9515Y-2.4022
M16
G05
G00X1.8535Y-3.6603
M15
G01X1.9515Y-3.6603
M16
G05
G00X1.9515Y-2.4362
M15
G01X1.9515Y-2.4022
M16
G05
G00X1.9515Y-3.6603
M15
G01X1.9515Y-3.6262
M16
G05
G00X1.7195Y-2.4362
M15
G01X2.1915Y-2.4362
M16
G05
G00X1.7195Y-2.6862
M15
G01X2.1915Y-2.6862
M16
G05
G00X1.7195Y-3.3762
M15
G01X2.1915Y-3.3762
M16
G05
G00X1.7195Y-3.6262
M15
G01X2.1915Y-3.6262
M16
G05
G00X1.9675Y-5.1242
M15
G01X1.9675Y-4.6522
M16
G05
G00X2.1915Y-2.6862
M15
G01X2.1915Y-2.4362
M16
G05
G00X2.1915Y-3.6262
M15
G01X2.1915Y-3.3762
M16
G05
G00X2.1945Y-2.5072
M15
G01X2.2405Y-2.5072
M16
G05
G00X2.1945Y-2.6153
M15
G01X2.2405Y-2.6153
M16
G05
G00X2.1945Y-3.4472
M15
G01X2.2405Y-3.4472
M16
G05
G00X2.1945Y-3.5553
M15
G01X2.2405Y-3.5553
M16
G05
G00X2.2435Y-2.6153
M15
G01X2.2435Y-2.5072
M16
G05
G00X2.2435Y-3.5553
M15
G01X2.2435Y-3.4472
M16
G05
G00X2.6575Y-5.1242
M15
G01X2.6575Y-4.6522
M16
G05
G00X2.7285Y-4.6493
M15
G01X2.7285Y-4.6033
M16
G05
G00X2.8365Y-4.6002
M15
G01X2.7285Y-4.6002
M16
G05
G00X2.9075Y-4.6522
M15
G01X2.6575Y-4.6522
M16
G05
G00X2.9075Y-5.1242
M15
G01X2.6575Y-5.1242
M16
G05
G00X2.8365Y-4.6493
M15
G01X2.8365Y-4.6033
M16
G05
G00X2.9075Y-5.1242
M15
G01X2.9075Y-4.6522
M16
G05
G00X2.9415Y-4.8922
M15
G01X2.9075Y-4.8922
M16
G05
G00X2.9415Y-4.9902
M15
G01X2.9075Y-4.9902
M16
G05
G00X2.9415Y-4.9902
M15
G01X2.9415Y-4.8922
M16
G05
G00X3.1835Y-4.9902
M15
G01X3.1835Y-4.8922
M16
G05
G00X3.2175Y-4.8922
M15
G01X3.1835Y-4.8922
M16
G05
G00X3.2175Y-4.9902
M15
G01X3.1835Y-4.9902
M16
G05
G00X3.2175Y-5.1242
M15
G01X3.2175Y-4.6522
M16
G05
G00X3.2885Y-4.6493
M15
G01X3.2885Y-4.6033
M16
G05
G00X3.3965Y-4.6002
M15
G01X3.2885Y-4.6002
M16
G05
G00X3.4675Y-4.6522
M15
G01X3.2175Y-4.6522
M16
G05
G00X3.4675Y-5.1242
M15
G01X3.2175Y-5.1242
M16
G05
G00X3.3965Y-4.6493
M15
G01X3.3965Y-4.6033
M16
G05
G00X3.4675Y-5.1242
M15
G01X3.4675Y-4.6522
M16
G05
G00X3.8815Y-2.5072
M15
G01X3.8815Y-2.6153
M16
G05
G00X3.8815Y-3.4472
M15
G01X3.8815Y-3.5553
M16
G05
G00X3.9305Y-2.5072
M15
G01X3.8845Y-2.5072
M16
G05
G00X3.9305Y-2.6153
M15
G01X3.8845Y-2.6153
M16
G05
G00X3.9305Y-3.4472
M15
G01X3.8845Y-3.4472
M16
G05
G00X3.9305Y-3.5553
M15
G01X3.8845Y-3.5553
M16
G05
G00X3.9335Y-2.4362
M15
G01X3.9335Y-2.6862
M16
G05
G00X3.9335Y-3.3762
M15
G01X3.9335Y-3.6262
M16
G05
G00X4.1575Y-5.1242
M15
G01X4.1575Y-4.6522
M16
G05
G00X4.4055Y-2.4362
M15
G01X3.9335Y-2.4362
M16
G05
G00X4.4055Y-2.6862
M15
G01X3.9335Y-2.6862
M16
G05
G00X4.4055Y-3.3762
M15
G01X3.9335Y-3.3762
M16
G05
G00X4.4055Y-3.6262
M15
G01X3.9335Y-3.6262
M16
G05
G00X4.1735Y-2.4022
M15
G01X4.1735Y-2.4362
M16
G05
G00X4.1735Y-3.6262
M15
G01X4.1735Y-3.6603
M16
G05
G00X4.2715Y-2.4022
M15
G01X4.1735Y-2.4022
M16
G05
G00X4.2715Y-3.6603
M15
G01X4.1735Y-3.6603
M16
G05
G00X4.2285Y-4.6493
M15
G01X4.2285Y-4.6033
M16
G05
G00X4.2715Y-2.4022
M15
G01X4.2715Y-2.4362
M16
G05
G00X4.2715Y-3.6262
M15
G01X4.2715Y-3.6603
M16
G05
G00X4.3365Y-4.6002
M15
G01X4.2285Y-4.6002
M16
G05
G00X4.4075Y-4.6522
M15
G01X4.1575Y-4.6522
M16
G05
G00X4.4075Y-5.1242
M15
G01X4.1575Y-5.1242
M16
G05
G00X4.3365Y-4.6493
M15
G01X4.3365Y-4.6033
M16
G05
G00X4.4055Y-2.4362
M15
G01X4.4055Y-2.6862
M16
G05
G00X4.4055Y-3.3762
M15
G01X4.4055Y-3.6262
M16
G05
G00X4.4075Y-5.1242
M15
G01X4.4075Y-4.6522
M16
G05
G00X4.4415Y-4.8922
M15
G01X4.4075Y-4.8922
M16
G05
G00X4.4415Y-4.9902
M15
G01X4.4075Y-4.9902
M16
G05
G00X4.4415Y-4.9902
M15
G01X4.4415Y-4.8922
M16
G05
T5
G00X4.2131Y-0.9358
M15
G01X4.1619Y-0.9358
M16
G05
G00X4.2131Y-1.3767
M15
G01X4.1619Y-1.3767
M16
G05
T0
M30
