M48
INCH,TZ
T1C0.0138
T2C0.0157
T3C0.0315
T4C0.0320
T5C0.0354
T6C0.0394
T7C0.1201
%
G90
G05
T1
X30162Y-11398
X30162Y-11900
X30162Y-12402
X30664Y-11398
X30664Y-11900
X30664Y-12402
X31166Y-11398
X31166Y-11900
X31166Y-12402
T2
X18460Y-9291
X19956Y-13858
X20428Y-12530
X20586Y-9291
X21216Y-13002
X21294Y-12215
X21767Y-12687
X22318Y-15591
X22554Y-12598
X22948Y-13435
X23656Y-37795
X24017Y-38301
X24916Y-12215
X25625Y-9291
X25704Y-15512
X26392Y-12169
X26419Y-12920
X26806Y-11900
X26848Y-12728
X27200Y-11427
X27357Y-10010
X27444Y-13540
X27792Y-13356
X28178Y-13431
X28588Y-13907
X28981Y-14065
X29375Y-14065
X29405Y-10640
X30428Y-9537
X30586Y-21919
X30586Y-29370
X30586Y-36919
X30586Y-44419
X30586Y-51607
X31373Y-14144
X31452Y-15354
X31531Y-11033
X31563Y-11875
X31563Y-12813
X31963Y-10386
X32114Y-14087
X32456Y-15118
X32477Y-13936
X32554Y-11073
X32554Y-11506
X32894Y-12991
X32948Y-11506
X33035Y-12032
X33164Y-15512
X33184Y-13465
X33280Y-13067
X33342Y-10758
X33893Y-11563
X34031Y-15512
X34050Y-13465
X34365Y-9380
X34547Y-11875
X34818Y-15512
X34838Y-13465
X35546Y-13465
X35684Y-15512
X36235Y-14193
X36235Y-14961
X36255Y-11900
X36924Y-11772
X37279Y-15591
X38145Y-10325
X38145Y-17087
X38538Y-10325
X38576Y-10996
X38617Y-9813
X38775Y-13081
X38932Y-15591
X39641Y-13632
X39877Y-10325
X40192Y-9931
X43814Y-13632
T4
X37605Y-10062
X37605Y-11063
X37605Y-12063
X37605Y-13063
T6
X16412Y-22328
X16412Y-23328
X16412Y-37301
X16412Y-38301
X25672Y-14646
X26672Y-14646
X27672Y-14646
X39119Y-10578
X39119Y-12547
X44828Y-10578
X44828Y-11563
X44828Y-12547
X44838Y-22328
X44838Y-23328
X44838Y-37305
X44838Y-38305
T7
X17375Y-25563
X17375Y-33063
X17375Y-40562
X17875Y-18063
X18375Y-28063
X18375Y-35563
X18375Y-43062
X20375Y-17063
X20375Y-28813
X20375Y-43813
X21375Y-31313
X21375Y-46313
X22125Y-51063
X24625Y-50063
X25375Y-18063
X25375Y-25563
X25375Y-33063
X25375Y-40562
X25375Y-48062
X27875Y-17063
X27875Y-24563
X27875Y-32063
X27875Y-39563
X27875Y-47063
X32875Y-18063
X32875Y-25563
X32875Y-33063
X32875Y-40562
X32875Y-48062
X35375Y-17063
X35375Y-24563
X35375Y-32063
X35375Y-39563
X35375Y-47063
X37125Y-51063
X39625Y-50063
X39875Y-25563
X39875Y-33063
X39875Y-40562
X40375Y-18063
X40875Y-28063
X40875Y-35563
X40875Y-43062
X42875Y-17063
X42875Y-28813
X42875Y-43813
X43875Y-31313
X43875Y-46313
T3
G00X21422Y-7541
M15
G01X21422Y-7777
M16
G05
G00X21422Y-9155
M15
G01X21422Y-9470
M16
G05
G00X24827Y-7541
M15
G01X24827Y-7777
M16
G05
G00X24827Y-9155
M15
G01X24827Y-9470
M16
G05
T5
G00X17219Y-8701
M15
G01X17219Y-8543
M16
G05
G00X17219Y-9882
M15
G01X17219Y-9724
M16
G05
G00X17219Y-11457
M15
G01X17219Y-11299
M16
G05
G00X19031Y-11890
M15
G01X19031Y-11732
M16
G05
T0
M30
