G04 #@! TF.GenerationSoftware,KiCad,Pcbnew,(6.0.7)*
G04 #@! TF.CreationDate,2022-10-25T17:13:03-05:00*
G04 #@! TF.ProjectId,Container65,436f6e74-6169-46e6-9572-36352e6b6963,rev?*
G04 #@! TF.SameCoordinates,Original*
G04 #@! TF.FileFunction,Paste,Bot*
G04 #@! TF.FilePolarity,Positive*
%FSLAX46Y46*%
G04 Gerber Fmt 4.6, Leading zero omitted, Abs format (unit mm)*
G04 Created by KiCad (PCBNEW (6.0.7)) date 2022-10-25 17:13:03*
%MOMM*%
%LPD*%
G01*
G04 APERTURE LIST*
G04 Aperture macros list*
%AMRoundRect*
0 Rectangle with rounded corners*
0 $1 Rounding radius*
0 $2 $3 $4 $5 $6 $7 $8 $9 X,Y pos of 4 corners*
0 Add a 4 corners polygon primitive as box body*
4,1,4,$2,$3,$4,$5,$6,$7,$8,$9,$2,$3,0*
0 Add four circle primitives for the rounded corners*
1,1,$1+$1,$2,$3*
1,1,$1+$1,$4,$5*
1,1,$1+$1,$6,$7*
1,1,$1+$1,$8,$9*
0 Add four rect primitives between the rounded corners*
20,1,$1+$1,$2,$3,$4,$5,0*
20,1,$1+$1,$4,$5,$6,$7,0*
20,1,$1+$1,$6,$7,$8,$9,0*
20,1,$1+$1,$8,$9,$2,$3,0*%
G04 Aperture macros list end*
%ADD10RoundRect,0.250000X0.292217X0.292217X-0.292217X0.292217X-0.292217X-0.292217X0.292217X-0.292217X0*%
%ADD11RoundRect,0.050000X0.387500X0.050000X-0.387500X0.050000X-0.387500X-0.050000X0.387500X-0.050000X0*%
%ADD12RoundRect,0.050000X0.050000X0.387500X-0.050000X0.387500X-0.050000X-0.387500X0.050000X-0.387500X0*%
%ADD13RoundRect,0.250000X-1.000000X1.025000X-1.000000X-1.025000X1.000000X-1.025000X1.000000X1.025000X0*%
%ADD14RoundRect,0.250000X1.025000X1.000000X-1.025000X1.000000X-1.025000X-1.000000X1.025000X-1.000000X0*%
%ADD15RoundRect,0.250000X1.000000X-1.025000X1.000000X1.025000X-1.000000X1.025000X-1.000000X-1.025000X0*%
%ADD16RoundRect,0.250000X-1.025000X-1.000000X1.025000X-1.000000X1.025000X1.000000X-1.025000X1.000000X0*%
%ADD17RoundRect,0.218750X-0.218750X-0.381250X0.218750X-0.381250X0.218750X0.381250X-0.218750X0.381250X0*%
%ADD18R,1.400000X1.200000*%
%ADD19R,0.600000X0.500000*%
%ADD20R,0.700000X1.300000*%
%ADD21R,0.500000X0.600000*%
%ADD22R,0.400000X0.600000*%
%ADD23RoundRect,0.150000X0.587500X0.150000X-0.587500X0.150000X-0.587500X-0.150000X0.587500X-0.150000X0*%
%ADD24RoundRect,0.065000X-0.460000X-0.260000X0.460000X-0.260000X0.460000X0.260000X-0.460000X0.260000X0*%
%ADD25R,0.600000X0.400000*%
%ADD26R,0.900000X0.500000*%
%ADD27RoundRect,0.150000X-0.650000X-0.150000X0.650000X-0.150000X0.650000X0.150000X-0.650000X0.150000X0*%
%ADD28R,0.300000X1.300000*%
G04 APERTURE END LIST*
D10*
G04 #@! TO.C,U1*
X77250000Y-29587500D03*
X77250000Y-30862500D03*
X78525000Y-30862500D03*
X78525000Y-29587500D03*
D11*
X81325000Y-27625000D03*
X81325000Y-28025000D03*
X81325000Y-28425000D03*
X81325000Y-28825000D03*
X81325000Y-29225000D03*
X81325000Y-29625000D03*
X81325000Y-30025000D03*
X81325000Y-30425000D03*
X81325000Y-30825000D03*
X81325000Y-31225000D03*
X81325000Y-31625000D03*
X81325000Y-32025000D03*
X81325000Y-32425000D03*
X81325000Y-32825000D03*
D12*
X80487500Y-33662500D03*
X80087500Y-33662500D03*
X79687500Y-33662500D03*
X79287500Y-33662500D03*
X78887500Y-33662500D03*
X78487500Y-33662500D03*
X78087500Y-33662500D03*
X77687500Y-33662500D03*
X77287500Y-33662500D03*
X76887500Y-33662500D03*
X76487500Y-33662500D03*
X76087500Y-33662500D03*
X75687500Y-33662500D03*
X75287500Y-33662500D03*
D11*
X74450000Y-32825000D03*
X74450000Y-32425000D03*
X74450000Y-32025000D03*
X74450000Y-31625000D03*
X74450000Y-31225000D03*
X74450000Y-30825000D03*
X74450000Y-30425000D03*
X74450000Y-30025000D03*
X74450000Y-29625000D03*
X74450000Y-29225000D03*
X74450000Y-28825000D03*
X74450000Y-28425000D03*
X74450000Y-28025000D03*
X74450000Y-27625000D03*
D12*
X75287500Y-26787500D03*
X75687500Y-26787500D03*
X76087500Y-26787500D03*
X76487500Y-26787500D03*
X76887500Y-26787500D03*
X77287500Y-26787500D03*
X77687500Y-26787500D03*
X78087500Y-26787500D03*
X78487500Y-26787500D03*
X78887500Y-26787500D03*
X79287500Y-26787500D03*
X79687500Y-26787500D03*
X80087500Y-26787500D03*
X80487500Y-26787500D03*
G04 #@! TD*
D13*
G04 #@! TO.C,MX-E-3*
X54292500Y-120935750D03*
X51752500Y-108008750D03*
G04 #@! TD*
G04 #@! TO.C,MX20*
X111442500Y-120935750D03*
X108902500Y-108008750D03*
G04 #@! TD*
D14*
G04 #@! TO.C,MX17*
X52895500Y-129698750D03*
X65822500Y-127158750D03*
G04 #@! TD*
D13*
G04 #@! TO.C,MX-E-2*
X111442500Y-82835750D03*
X108902500Y-69908750D03*
G04 #@! TD*
D14*
G04 #@! TO.C,MX-E-4*
X90995500Y-129698750D03*
X103922500Y-127158750D03*
G04 #@! TD*
D13*
G04 #@! TO.C,MX-E-1*
X54292500Y-82835750D03*
X51752500Y-69908750D03*
G04 #@! TD*
D15*
G04 #@! TO.C,MX13*
X46672500Y-112653750D03*
X44132500Y-99726750D03*
G04 #@! TD*
D16*
G04 #@! TO.C,MX1*
X42127500Y-45878750D03*
X55054500Y-43338750D03*
G04 #@! TD*
G04 #@! TO.C,MX4*
X99277500Y-45878750D03*
X112204500Y-43338750D03*
G04 #@! TD*
G04 #@! TO.C,MX19*
X80227500Y-122078750D03*
X93154500Y-119538750D03*
G04 #@! TD*
G04 #@! TO.C,MX7*
X80227500Y-64928750D03*
X93154500Y-62388750D03*
G04 #@! TD*
D15*
G04 #@! TO.C,MX8*
X103822500Y-74553750D03*
X101282500Y-61626750D03*
G04 #@! TD*
D16*
G04 #@! TO.C,MX10*
X61177500Y-83978750D03*
X74104500Y-81438750D03*
G04 #@! TD*
G04 #@! TO.C,MX18*
X61177500Y-122078750D03*
X74104500Y-119538750D03*
G04 #@! TD*
D15*
G04 #@! TO.C,MX12*
X103822500Y-93603750D03*
X101282500Y-80676750D03*
G04 #@! TD*
G04 #@! TO.C,MX16*
X103822500Y-112653750D03*
X101282500Y-99726750D03*
G04 #@! TD*
D16*
G04 #@! TO.C,MX11*
X80227500Y-83978750D03*
X93154500Y-81438750D03*
G04 #@! TD*
G04 #@! TO.C,MX14*
X61177500Y-103028750D03*
X74104500Y-100488750D03*
G04 #@! TD*
G04 #@! TO.C,MX2*
X61177500Y-45878750D03*
X74104500Y-43338750D03*
G04 #@! TD*
G04 #@! TO.C,MX6*
X61177500Y-64928750D03*
X74104500Y-62388750D03*
G04 #@! TD*
G04 #@! TO.C,MX3*
X80227500Y-45878750D03*
X93154500Y-43338750D03*
G04 #@! TD*
D15*
G04 #@! TO.C,MX9*
X46672500Y-93603750D03*
X44132500Y-80676750D03*
G04 #@! TD*
D16*
G04 #@! TO.C,MX15*
X80227500Y-103028750D03*
X93154500Y-100488750D03*
G04 #@! TD*
D15*
G04 #@! TO.C,MX5*
X46672500Y-74553750D03*
X44132500Y-61626750D03*
G04 #@! TD*
D17*
G04 #@! TO.C,FB1*
X87225000Y-28425000D03*
X89350000Y-28425000D03*
G04 #@! TD*
D18*
G04 #@! TO.C,D14*
X75406250Y-112825000D03*
X75406250Y-109425000D03*
G04 #@! TD*
D19*
G04 #@! TO.C,C10*
X70437500Y-30225000D03*
X69337500Y-30225000D03*
G04 #@! TD*
D18*
G04 #@! TO.C,D4*
X108743750Y-55675000D03*
X108743750Y-52275000D03*
G04 #@! TD*
G04 #@! TO.C,D8*
X94456250Y-74725000D03*
X94456250Y-71325000D03*
G04 #@! TD*
D20*
G04 #@! TO.C,D22*
X90937500Y-28425000D03*
X92837500Y-28425000D03*
G04 #@! TD*
D19*
G04 #@! TO.C,C15*
X71237500Y-29025000D03*
X70137500Y-29025000D03*
G04 #@! TD*
D21*
G04 #@! TO.C,C4*
X86887500Y-31175000D03*
X86887500Y-30075000D03*
G04 #@! TD*
D18*
G04 #@! TO.C,D23*
X94456250Y-55675000D03*
X94456250Y-52275000D03*
G04 #@! TD*
D21*
G04 #@! TO.C,C17*
X76887500Y-36675000D03*
X76887500Y-37775000D03*
G04 #@! TD*
D18*
G04 #@! TO.C,D10*
X75406250Y-93775000D03*
X75406250Y-90375000D03*
G04 #@! TD*
G04 #@! TO.C,D15*
X90487500Y-112825000D03*
X90487500Y-109425000D03*
G04 #@! TD*
G04 #@! TO.C,D12*
X94456250Y-93775000D03*
X94456250Y-90375000D03*
G04 #@! TD*
G04 #@! TO.C,D1*
X61912500Y-55675000D03*
X61912500Y-52275000D03*
G04 #@! TD*
G04 #@! TO.C,D3*
X90487500Y-55675000D03*
X90487500Y-52275000D03*
G04 #@! TD*
D22*
G04 #@! TO.C,R4*
X103637500Y-33475000D03*
X102737500Y-33475000D03*
G04 #@! TD*
D23*
G04 #@! TO.C,U3*
X90425000Y-30275000D03*
X90425000Y-32175000D03*
X88550000Y-31225000D03*
G04 #@! TD*
D24*
G04 #@! TO.C,U5*
X94754776Y-38499871D03*
X98954776Y-38499871D03*
X94754776Y-36349871D03*
X98954776Y-36349871D03*
G04 #@! TD*
D25*
G04 #@! TO.C,R9*
X93087500Y-31875000D03*
X93087500Y-30975000D03*
G04 #@! TD*
G04 #@! TO.C,R11*
X97287500Y-33175000D03*
X97287500Y-34075000D03*
G04 #@! TD*
D22*
G04 #@! TO.C,R7*
X56337500Y-31025000D03*
X55437500Y-31025000D03*
G04 #@! TD*
D18*
G04 #@! TO.C,D21*
X51887500Y-29500000D03*
X51887500Y-26100000D03*
G04 #@! TD*
G04 #@! TO.C,D17*
X46831250Y-127300000D03*
X46831250Y-123900000D03*
G04 #@! TD*
G04 #@! TO.C,D18*
X75406250Y-131081250D03*
X75406250Y-127681250D03*
G04 #@! TD*
G04 #@! TO.C,D9*
X61912500Y-93775000D03*
X61912500Y-90375000D03*
G04 #@! TD*
G04 #@! TO.C,D20*
X108743750Y-127300000D03*
X108743750Y-123900000D03*
G04 #@! TD*
D21*
G04 #@! TO.C,C13*
X85087500Y-29918750D03*
X85087500Y-28818750D03*
G04 #@! TD*
D18*
G04 #@! TO.C,D5*
X61912500Y-74725000D03*
X61912500Y-71325000D03*
G04 #@! TD*
D19*
G04 #@! TO.C,C8*
X71837500Y-25425000D03*
X70737500Y-25425000D03*
G04 #@! TD*
G04 #@! TO.C,C2*
X74137500Y-25425000D03*
X73037500Y-25425000D03*
G04 #@! TD*
D20*
G04 #@! TO.C,F1*
X50937500Y-33025000D03*
X52837500Y-33025000D03*
G04 #@! TD*
D22*
G04 #@! TO.C,R3*
X84787500Y-36500000D03*
X83887500Y-36500000D03*
G04 #@! TD*
G04 #@! TO.C,R5*
X101637500Y-33475000D03*
X100737500Y-33475000D03*
G04 #@! TD*
D19*
G04 #@! TO.C,C7*
X83687500Y-38000000D03*
X84787500Y-38000000D03*
G04 #@! TD*
D26*
G04 #@! TO.C,R1*
X64487500Y-26675000D03*
X64487500Y-28175000D03*
G04 #@! TD*
D25*
G04 #@! TO.C,R10*
X97287500Y-32075000D03*
X97287500Y-31175000D03*
G04 #@! TD*
D19*
G04 #@! TO.C,C16*
X84537500Y-23825000D03*
X85637500Y-23825000D03*
G04 #@! TD*
D18*
G04 #@! TO.C,D6*
X75406250Y-74725000D03*
X75406250Y-71325000D03*
G04 #@! TD*
D25*
G04 #@! TO.C,R8*
X62487500Y-35450000D03*
X62487500Y-34550000D03*
G04 #@! TD*
D18*
G04 #@! TO.C,D11*
X90487500Y-93775000D03*
X90487500Y-90375000D03*
G04 #@! TD*
G04 #@! TO.C,D13*
X61912500Y-112825000D03*
X61912500Y-109425000D03*
G04 #@! TD*
D21*
G04 #@! TO.C,C6*
X90837500Y-38050000D03*
X90837500Y-36950000D03*
G04 #@! TD*
D18*
G04 #@! TO.C,D19*
X80168750Y-131081250D03*
X80168750Y-127681250D03*
G04 #@! TD*
D21*
G04 #@! TO.C,C12*
X85087500Y-32375000D03*
X85087500Y-31275000D03*
G04 #@! TD*
D19*
G04 #@! TO.C,C5*
X93237500Y-33025000D03*
X92137500Y-33025000D03*
G04 #@! TD*
D18*
G04 #@! TO.C,Y1*
X88637500Y-37850000D03*
X86437500Y-37850000D03*
X86437500Y-36150000D03*
X88637500Y-36150000D03*
G04 #@! TD*
G04 #@! TO.C,D2*
X75406250Y-55675000D03*
X75406250Y-52275000D03*
G04 #@! TD*
D24*
G04 #@! TO.C,U6*
X56654776Y-38499871D03*
X60854776Y-38499871D03*
X56654776Y-36349871D03*
X60854776Y-36349871D03*
G04 #@! TD*
D26*
G04 #@! TO.C,R2*
X66287500Y-26675000D03*
X66287500Y-28175000D03*
G04 #@! TD*
D18*
G04 #@! TO.C,D16*
X94456250Y-112825000D03*
X94456250Y-109425000D03*
G04 #@! TD*
D19*
G04 #@! TO.C,C11*
X78737500Y-38000000D03*
X79837500Y-38000000D03*
G04 #@! TD*
D21*
G04 #@! TO.C,C18*
X62487500Y-36850000D03*
X62487500Y-37950000D03*
G04 #@! TD*
D18*
G04 #@! TO.C,D7*
X90487500Y-74725000D03*
X90487500Y-71325000D03*
G04 #@! TD*
D19*
G04 #@! TO.C,C14*
X90037500Y-23825000D03*
X88937500Y-23825000D03*
G04 #@! TD*
G04 #@! TO.C,C9*
X71237500Y-27825000D03*
X70137500Y-27825000D03*
G04 #@! TD*
D22*
G04 #@! TO.C,R6*
X61237500Y-31025000D03*
X62137500Y-31025000D03*
G04 #@! TD*
D27*
G04 #@! TO.C,U4*
X102762500Y-31273750D03*
X102762500Y-30003750D03*
X102762500Y-28733750D03*
X102762500Y-27463750D03*
X109962500Y-27463750D03*
X109962500Y-28733750D03*
X109962500Y-30003750D03*
X109962500Y-31273750D03*
G04 #@! TD*
D19*
G04 #@! TO.C,C1*
X71837500Y-26625000D03*
X70737500Y-26625000D03*
G04 #@! TD*
D28*
G04 #@! TO.C,U2*
X55386471Y-24421587D03*
X56186573Y-24421587D03*
X57486547Y-24421587D03*
X58486547Y-24421587D03*
X58986420Y-24421587D03*
X59986166Y-24421587D03*
X61286649Y-24421587D03*
X62086497Y-24421587D03*
X61786522Y-24421587D03*
X60986420Y-24421587D03*
X60486547Y-24421587D03*
X59486547Y-24421587D03*
X57986420Y-24421587D03*
X56986420Y-24421587D03*
X56486547Y-24421587D03*
X55686446Y-24421587D03*
G04 #@! TD*
D21*
G04 #@! TO.C,C3*
X109887500Y-33475000D03*
X109887500Y-34575000D03*
G04 #@! TD*
M02*
