G04 #@! TF.GenerationSoftware,KiCad,Pcbnew,(6.0.7)*
G04 #@! TF.CreationDate,2022-10-25T17:13:03-05:00*
G04 #@! TF.ProjectId,Container65,436f6e74-6169-46e6-9572-36352e6b6963,rev?*
G04 #@! TF.SameCoordinates,Original*
G04 #@! TF.FileFunction,Soldermask,Top*
G04 #@! TF.FilePolarity,Negative*
%FSLAX46Y46*%
G04 Gerber Fmt 4.6, Leading zero omitted, Abs format (unit mm)*
G04 Created by KiCad (PCBNEW (6.0.7)) date 2022-10-25 17:13:03*
%MOMM*%
%LPD*%
G01*
G04 APERTURE LIST*
%ADD10C,0.010000*%
%ADD11C,1.750000*%
%ADD12C,3.100000*%
%ADD13C,4.000000*%
%ADD14C,3.600000*%
%ADD15C,3.987800*%
%ADD16C,3.048000*%
%ADD17O,3.200000X2.000000*%
%ADD18R,2.000000X2.000000*%
%ADD19C,2.000000*%
%ADD20O,0.650000X0.650000*%
%ADD21R,2.000000X1.500000*%
%ADD22O,2.000000X1.500000*%
%ADD23R,1.700000X1.700000*%
%ADD24O,1.700000X1.700000*%
%ADD25C,0.800000*%
%ADD26O,1.600000X2.000000*%
%ADD27C,0.750013*%
%ADD28O,1.200000X1.800000*%
%ADD29O,1.200000X2.000000*%
G04 APERTURE END LIST*
G04 #@! TO.C,G\u002A\u002A\u002A*
G36*
X87077912Y-56434459D02*
G01*
X87531240Y-56440917D01*
X87622954Y-56505357D01*
X87723209Y-56600842D01*
X87791131Y-56721976D01*
X87824383Y-56864534D01*
X87824944Y-56870456D01*
X87821349Y-57025083D01*
X87782801Y-57159373D01*
X87711757Y-57270083D01*
X87610674Y-57353970D01*
X87482010Y-57407793D01*
X87406407Y-57422643D01*
X87306709Y-57435750D01*
X87578258Y-57763834D01*
X87660881Y-57864342D01*
X87733499Y-57953989D01*
X87792024Y-58027618D01*
X87832370Y-58080076D01*
X87850447Y-58106207D01*
X87851029Y-58107792D01*
X87832027Y-58114846D01*
X87780160Y-58120289D01*
X87704890Y-58123312D01*
X87665756Y-58123667D01*
X87479263Y-58123667D01*
X87226548Y-57801799D01*
X86973834Y-57479930D01*
X86967991Y-57801799D01*
X86962148Y-58123667D01*
X86624584Y-58123667D01*
X86624584Y-57107667D01*
X86963250Y-57107667D01*
X87176308Y-57107667D01*
X87270960Y-57105648D01*
X87352677Y-57100216D01*
X87410202Y-57092307D01*
X87428613Y-57086663D01*
X87473718Y-57040694D01*
X87497841Y-56970820D01*
X87497582Y-56891642D01*
X87484567Y-56846360D01*
X87453088Y-56796195D01*
X87403332Y-56761295D01*
X87328986Y-56739548D01*
X87223737Y-56728842D01*
X87127292Y-56726785D01*
X86963250Y-56726667D01*
X86963250Y-57107667D01*
X86624584Y-57107667D01*
X86624584Y-56428000D01*
X87077912Y-56434459D01*
G37*
D10*
X87077912Y-56434459D02*
X87531240Y-56440917D01*
X87622954Y-56505357D01*
X87723209Y-56600842D01*
X87791131Y-56721976D01*
X87824383Y-56864534D01*
X87824944Y-56870456D01*
X87821349Y-57025083D01*
X87782801Y-57159373D01*
X87711757Y-57270083D01*
X87610674Y-57353970D01*
X87482010Y-57407793D01*
X87406407Y-57422643D01*
X87306709Y-57435750D01*
X87578258Y-57763834D01*
X87660881Y-57864342D01*
X87733499Y-57953989D01*
X87792024Y-58027618D01*
X87832370Y-58080076D01*
X87850447Y-58106207D01*
X87851029Y-58107792D01*
X87832027Y-58114846D01*
X87780160Y-58120289D01*
X87704890Y-58123312D01*
X87665756Y-58123667D01*
X87479263Y-58123667D01*
X87226548Y-57801799D01*
X86973834Y-57479930D01*
X86967991Y-57801799D01*
X86962148Y-58123667D01*
X86624584Y-58123667D01*
X86624584Y-57107667D01*
X86963250Y-57107667D01*
X87176308Y-57107667D01*
X87270960Y-57105648D01*
X87352677Y-57100216D01*
X87410202Y-57092307D01*
X87428613Y-57086663D01*
X87473718Y-57040694D01*
X87497841Y-56970820D01*
X87497582Y-56891642D01*
X87484567Y-56846360D01*
X87453088Y-56796195D01*
X87403332Y-56761295D01*
X87328986Y-56739548D01*
X87223737Y-56728842D01*
X87127292Y-56726785D01*
X86963250Y-56726667D01*
X86963250Y-57107667D01*
X86624584Y-57107667D01*
X86624584Y-56428000D01*
X87077912Y-56434459D01*
G36*
X87993746Y-57199405D02*
G01*
X88006984Y-57148868D01*
X88019464Y-57118250D01*
X88073766Y-57031074D01*
X88147596Y-56951188D01*
X88227496Y-56892077D01*
X88261086Y-56876132D01*
X88318907Y-56863833D01*
X88405697Y-56856400D01*
X88509055Y-56853686D01*
X88616578Y-56855547D01*
X88715863Y-56861837D01*
X88794507Y-56872412D01*
X88831888Y-56882810D01*
X88928624Y-56941878D01*
X89002070Y-57027989D01*
X89053809Y-57144301D01*
X89085428Y-57293972D01*
X89095836Y-57408725D01*
X89107239Y-57615667D01*
X88296750Y-57615667D01*
X88296750Y-57688550D01*
X88300528Y-57736311D01*
X88315432Y-57771793D01*
X88346814Y-57796775D01*
X88400030Y-57813037D01*
X88480431Y-57822360D01*
X88593373Y-57826522D01*
X88714210Y-57827334D01*
X89037584Y-57827334D01*
X89037584Y-58123667D01*
X88661875Y-58122731D01*
X88523022Y-58121883D01*
X88419417Y-58119697D01*
X88343980Y-58115523D01*
X88289634Y-58108712D01*
X88249298Y-58098613D01*
X88215893Y-58084578D01*
X88209354Y-58081207D01*
X88110485Y-58008678D01*
X88035745Y-57912936D01*
X88001348Y-57831968D01*
X87992992Y-57780628D01*
X87986168Y-57698115D01*
X87981555Y-57595579D01*
X87979831Y-57484173D01*
X87979833Y-57478084D01*
X87981167Y-57354966D01*
X87982951Y-57317705D01*
X88296750Y-57317705D01*
X88298990Y-57336504D01*
X88310475Y-57349009D01*
X88338353Y-57356497D01*
X88389772Y-57360247D01*
X88471878Y-57361540D01*
X88542461Y-57361667D01*
X88788173Y-57361667D01*
X88774498Y-57303459D01*
X88736745Y-57224243D01*
X88667786Y-57173257D01*
X88568411Y-57151013D01*
X88537358Y-57150000D01*
X88463835Y-57153329D01*
X88414821Y-57167371D01*
X88372748Y-57198207D01*
X88358622Y-57211872D01*
X88319122Y-57261563D01*
X88297905Y-57308099D01*
X88296750Y-57317705D01*
X87982951Y-57317705D01*
X87985472Y-57265089D01*
X87993746Y-57199405D01*
G37*
X87993746Y-57199405D02*
X88006984Y-57148868D01*
X88019464Y-57118250D01*
X88073766Y-57031074D01*
X88147596Y-56951188D01*
X88227496Y-56892077D01*
X88261086Y-56876132D01*
X88318907Y-56863833D01*
X88405697Y-56856400D01*
X88509055Y-56853686D01*
X88616578Y-56855547D01*
X88715863Y-56861837D01*
X88794507Y-56872412D01*
X88831888Y-56882810D01*
X88928624Y-56941878D01*
X89002070Y-57027989D01*
X89053809Y-57144301D01*
X89085428Y-57293972D01*
X89095836Y-57408725D01*
X89107239Y-57615667D01*
X88296750Y-57615667D01*
X88296750Y-57688550D01*
X88300528Y-57736311D01*
X88315432Y-57771793D01*
X88346814Y-57796775D01*
X88400030Y-57813037D01*
X88480431Y-57822360D01*
X88593373Y-57826522D01*
X88714210Y-57827334D01*
X89037584Y-57827334D01*
X89037584Y-58123667D01*
X88661875Y-58122731D01*
X88523022Y-58121883D01*
X88419417Y-58119697D01*
X88343980Y-58115523D01*
X88289634Y-58108712D01*
X88249298Y-58098613D01*
X88215893Y-58084578D01*
X88209354Y-58081207D01*
X88110485Y-58008678D01*
X88035745Y-57912936D01*
X88001348Y-57831968D01*
X87992992Y-57780628D01*
X87986168Y-57698115D01*
X87981555Y-57595579D01*
X87979831Y-57484173D01*
X87979833Y-57478084D01*
X87981167Y-57354966D01*
X87982951Y-57317705D01*
X88296750Y-57317705D01*
X88298990Y-57336504D01*
X88310475Y-57349009D01*
X88338353Y-57356497D01*
X88389772Y-57360247D01*
X88471878Y-57361540D01*
X88542461Y-57361667D01*
X88788173Y-57361667D01*
X88774498Y-57303459D01*
X88736745Y-57224243D01*
X88667786Y-57173257D01*
X88568411Y-57151013D01*
X88537358Y-57150000D01*
X88463835Y-57153329D01*
X88414821Y-57167371D01*
X88372748Y-57198207D01*
X88358622Y-57211872D01*
X88319122Y-57261563D01*
X88297905Y-57308099D01*
X88296750Y-57317705D01*
X87982951Y-57317705D01*
X87985472Y-57265089D01*
X87993746Y-57199405D01*
G36*
X89577399Y-57187042D02*
G01*
X89612539Y-57302909D01*
X89644141Y-57407737D01*
X89669777Y-57493423D01*
X89687018Y-57551866D01*
X89692501Y-57571135D01*
X89701765Y-57575400D01*
X89718600Y-57545732D01*
X89743431Y-57480858D01*
X89776683Y-57379505D01*
X89818782Y-57240399D01*
X89870155Y-57062268D01*
X89909416Y-56922459D01*
X89928573Y-56853667D01*
X90075745Y-56853667D01*
X90148503Y-56855483D01*
X90201113Y-56860261D01*
X90222830Y-56866993D01*
X90222917Y-56867467D01*
X90217156Y-56890494D01*
X90200852Y-56949012D01*
X90175474Y-57037918D01*
X90142491Y-57152110D01*
X90103373Y-57286485D01*
X90059588Y-57435941D01*
X90043000Y-57492340D01*
X89997925Y-57645759D01*
X89956982Y-57785736D01*
X89921637Y-57907206D01*
X89893359Y-58005107D01*
X89873612Y-58074375D01*
X89863863Y-58109948D01*
X89863084Y-58113540D01*
X89843700Y-58118522D01*
X89792673Y-58122137D01*
X89720688Y-58123657D01*
X89714253Y-58123667D01*
X89620742Y-58119852D01*
X89568198Y-58108330D01*
X89555874Y-58097209D01*
X89545683Y-58065719D01*
X89525745Y-58001399D01*
X89497887Y-57910329D01*
X89463937Y-57798588D01*
X89425722Y-57672257D01*
X89385070Y-57537416D01*
X89343808Y-57400146D01*
X89303764Y-57266527D01*
X89266765Y-57142639D01*
X89234639Y-57034564D01*
X89209213Y-56948380D01*
X89192316Y-56890168D01*
X89185774Y-56866010D01*
X89185750Y-56865772D01*
X89205110Y-56859750D01*
X89255976Y-56855415D01*
X89327529Y-56853670D01*
X89330875Y-56853667D01*
X89475999Y-56853667D01*
X89577399Y-57187042D01*
G37*
X89577399Y-57187042D02*
X89612539Y-57302909D01*
X89644141Y-57407737D01*
X89669777Y-57493423D01*
X89687018Y-57551866D01*
X89692501Y-57571135D01*
X89701765Y-57575400D01*
X89718600Y-57545732D01*
X89743431Y-57480858D01*
X89776683Y-57379505D01*
X89818782Y-57240399D01*
X89870155Y-57062268D01*
X89909416Y-56922459D01*
X89928573Y-56853667D01*
X90075745Y-56853667D01*
X90148503Y-56855483D01*
X90201113Y-56860261D01*
X90222830Y-56866993D01*
X90222917Y-56867467D01*
X90217156Y-56890494D01*
X90200852Y-56949012D01*
X90175474Y-57037918D01*
X90142491Y-57152110D01*
X90103373Y-57286485D01*
X90059588Y-57435941D01*
X90043000Y-57492340D01*
X89997925Y-57645759D01*
X89956982Y-57785736D01*
X89921637Y-57907206D01*
X89893359Y-58005107D01*
X89873612Y-58074375D01*
X89863863Y-58109948D01*
X89863084Y-58113540D01*
X89843700Y-58118522D01*
X89792673Y-58122137D01*
X89720688Y-58123657D01*
X89714253Y-58123667D01*
X89620742Y-58119852D01*
X89568198Y-58108330D01*
X89555874Y-58097209D01*
X89545683Y-58065719D01*
X89525745Y-58001399D01*
X89497887Y-57910329D01*
X89463937Y-57798588D01*
X89425722Y-57672257D01*
X89385070Y-57537416D01*
X89343808Y-57400146D01*
X89303764Y-57266527D01*
X89266765Y-57142639D01*
X89234639Y-57034564D01*
X89209213Y-56948380D01*
X89192316Y-56890168D01*
X89185774Y-56866010D01*
X89185750Y-56865772D01*
X89205110Y-56859750D01*
X89255976Y-56855415D01*
X89327529Y-56853670D01*
X89330875Y-56853667D01*
X89475999Y-56853667D01*
X89577399Y-57187042D01*
G36*
X90921417Y-58123667D02*
G01*
X90603917Y-58123667D01*
X90603917Y-56749946D01*
X90488109Y-56743598D01*
X90372300Y-56737250D01*
X90564970Y-56430334D01*
X90921417Y-56430334D01*
X90921417Y-58123667D01*
G37*
X90921417Y-58123667D02*
X90603917Y-58123667D01*
X90603917Y-56749946D01*
X90488109Y-56743598D01*
X90372300Y-56737250D01*
X90564970Y-56430334D01*
X90921417Y-56430334D01*
X90921417Y-58123667D01*
G36*
X92731556Y-56399723D02*
G01*
X92806410Y-56403583D01*
X92860839Y-56412302D01*
X92905787Y-56427636D01*
X92952195Y-56451342D01*
X92952477Y-56451500D01*
X93023165Y-56502704D01*
X93090257Y-56569412D01*
X93111227Y-56596243D01*
X93140567Y-56640429D01*
X93159317Y-56679534D01*
X93169839Y-56724810D01*
X93174495Y-56787510D01*
X93175649Y-56878887D01*
X93175667Y-56903160D01*
X93174401Y-57006603D01*
X93169448Y-57078617D01*
X93159072Y-57130059D01*
X93141537Y-57171789D01*
X93129402Y-57192631D01*
X93085154Y-57250889D01*
X93014520Y-57328730D01*
X92924352Y-57419522D01*
X92821502Y-57516630D01*
X92712822Y-57613421D01*
X92605165Y-57703263D01*
X92586905Y-57717804D01*
X92421477Y-57848500D01*
X93165084Y-57848500D01*
X93165084Y-58123667D01*
X92085584Y-58123667D01*
X92085841Y-57927875D01*
X92086099Y-57732084D01*
X92239299Y-57611022D01*
X92330685Y-57536850D01*
X92429667Y-57453237D01*
X92529795Y-57365990D01*
X92624620Y-57280918D01*
X92707694Y-57203828D01*
X92772566Y-57140529D01*
X92812787Y-57096829D01*
X92818250Y-57089625D01*
X92861744Y-56998337D01*
X92874957Y-56900738D01*
X92858611Y-56819714D01*
X92824994Y-56761945D01*
X92776803Y-56726654D01*
X92704660Y-56709372D01*
X92618996Y-56705500D01*
X92509889Y-56716528D01*
X92433718Y-56751294D01*
X92386789Y-56812321D01*
X92368633Y-56876366D01*
X92355340Y-56959500D01*
X92058386Y-56959500D01*
X92071716Y-56831969D01*
X92091714Y-56715788D01*
X92128059Y-56625704D01*
X92187379Y-56546612D01*
X92204887Y-56528470D01*
X92264065Y-56474638D01*
X92321517Y-56437949D01*
X92387485Y-56415248D01*
X92472211Y-56403380D01*
X92585937Y-56399191D01*
X92625334Y-56398963D01*
X92731556Y-56399723D01*
G37*
X92731556Y-56399723D02*
X92806410Y-56403583D01*
X92860839Y-56412302D01*
X92905787Y-56427636D01*
X92952195Y-56451342D01*
X92952477Y-56451500D01*
X93023165Y-56502704D01*
X93090257Y-56569412D01*
X93111227Y-56596243D01*
X93140567Y-56640429D01*
X93159317Y-56679534D01*
X93169839Y-56724810D01*
X93174495Y-56787510D01*
X93175649Y-56878887D01*
X93175667Y-56903160D01*
X93174401Y-57006603D01*
X93169448Y-57078617D01*
X93159072Y-57130059D01*
X93141537Y-57171789D01*
X93129402Y-57192631D01*
X93085154Y-57250889D01*
X93014520Y-57328730D01*
X92924352Y-57419522D01*
X92821502Y-57516630D01*
X92712822Y-57613421D01*
X92605165Y-57703263D01*
X92586905Y-57717804D01*
X92421477Y-57848500D01*
X93165084Y-57848500D01*
X93165084Y-58123667D01*
X92085584Y-58123667D01*
X92085841Y-57927875D01*
X92086099Y-57732084D01*
X92239299Y-57611022D01*
X92330685Y-57536850D01*
X92429667Y-57453237D01*
X92529795Y-57365990D01*
X92624620Y-57280918D01*
X92707694Y-57203828D01*
X92772566Y-57140529D01*
X92812787Y-57096829D01*
X92818250Y-57089625D01*
X92861744Y-56998337D01*
X92874957Y-56900738D01*
X92858611Y-56819714D01*
X92824994Y-56761945D01*
X92776803Y-56726654D01*
X92704660Y-56709372D01*
X92618996Y-56705500D01*
X92509889Y-56716528D01*
X92433718Y-56751294D01*
X92386789Y-56812321D01*
X92368633Y-56876366D01*
X92355340Y-56959500D01*
X92058386Y-56959500D01*
X92071716Y-56831969D01*
X92091714Y-56715788D01*
X92128059Y-56625704D01*
X92187379Y-56546612D01*
X92204887Y-56528470D01*
X92264065Y-56474638D01*
X92321517Y-56437949D01*
X92387485Y-56415248D01*
X92472211Y-56403380D01*
X92585937Y-56399191D01*
X92625334Y-56398963D01*
X92731556Y-56399723D01*
G36*
X93381568Y-56625749D02*
G01*
X93435713Y-56562256D01*
X93506543Y-56501620D01*
X93539665Y-56479690D01*
X93593442Y-56451215D01*
X93645811Y-56432752D01*
X93709437Y-56421543D01*
X93796988Y-56414829D01*
X93847958Y-56412522D01*
X93993954Y-56411218D01*
X94108020Y-56422327D01*
X94199422Y-56448497D01*
X94277422Y-56492375D01*
X94350931Y-56556254D01*
X94395770Y-56604207D01*
X94430542Y-56651111D01*
X94456512Y-56703082D01*
X94474943Y-56766237D01*
X94487101Y-56846690D01*
X94494250Y-56950558D01*
X94497655Y-57083956D01*
X94498579Y-57252999D01*
X94498584Y-57270394D01*
X94497636Y-57445886D01*
X94493919Y-57585078D01*
X94486119Y-57693976D01*
X94472924Y-57778588D01*
X94453020Y-57844920D01*
X94425095Y-57898981D01*
X94387836Y-57946778D01*
X94340488Y-57993804D01*
X94272947Y-58048204D01*
X94202280Y-58085581D01*
X94118631Y-58108733D01*
X94012145Y-58120454D01*
X93883254Y-58123549D01*
X93782587Y-58122191D01*
X93710523Y-58116308D01*
X93653379Y-58103396D01*
X93597473Y-58080950D01*
X93565885Y-58065459D01*
X93451422Y-57987655D01*
X93387465Y-57915468D01*
X93323834Y-57823687D01*
X93323834Y-56875501D01*
X93609584Y-56875501D01*
X93610334Y-57261459D01*
X93611704Y-57417456D01*
X93615315Y-57535389D01*
X93621445Y-57619480D01*
X93630372Y-57673953D01*
X93639122Y-57698004D01*
X93680692Y-57751979D01*
X93738421Y-57784996D01*
X93820688Y-57800074D01*
X93924078Y-57800747D01*
X94007120Y-57795864D01*
X94060257Y-57786754D01*
X94095917Y-57769501D01*
X94126528Y-57740184D01*
X94130453Y-57735668D01*
X94148049Y-57713802D01*
X94161010Y-57690756D01*
X94170044Y-57660077D01*
X94175858Y-57615312D01*
X94179162Y-57550011D01*
X94180662Y-57457719D01*
X94181069Y-57331985D01*
X94181084Y-57274428D01*
X94179937Y-57133906D01*
X94176694Y-57013086D01*
X94171651Y-56917980D01*
X94165104Y-56854602D01*
X94159289Y-56831328D01*
X94104740Y-56773450D01*
X94017160Y-56739208D01*
X93899246Y-56729533D01*
X93868066Y-56730884D01*
X93789792Y-56738114D01*
X93739022Y-56751285D01*
X93700927Y-56776148D01*
X93670292Y-56807557D01*
X93609584Y-56875501D01*
X93323834Y-56875501D01*
X93323834Y-56712992D01*
X93381568Y-56625749D01*
G37*
X93381568Y-56625749D02*
X93435713Y-56562256D01*
X93506543Y-56501620D01*
X93539665Y-56479690D01*
X93593442Y-56451215D01*
X93645811Y-56432752D01*
X93709437Y-56421543D01*
X93796988Y-56414829D01*
X93847958Y-56412522D01*
X93993954Y-56411218D01*
X94108020Y-56422327D01*
X94199422Y-56448497D01*
X94277422Y-56492375D01*
X94350931Y-56556254D01*
X94395770Y-56604207D01*
X94430542Y-56651111D01*
X94456512Y-56703082D01*
X94474943Y-56766237D01*
X94487101Y-56846690D01*
X94494250Y-56950558D01*
X94497655Y-57083956D01*
X94498579Y-57252999D01*
X94498584Y-57270394D01*
X94497636Y-57445886D01*
X94493919Y-57585078D01*
X94486119Y-57693976D01*
X94472924Y-57778588D01*
X94453020Y-57844920D01*
X94425095Y-57898981D01*
X94387836Y-57946778D01*
X94340488Y-57993804D01*
X94272947Y-58048204D01*
X94202280Y-58085581D01*
X94118631Y-58108733D01*
X94012145Y-58120454D01*
X93883254Y-58123549D01*
X93782587Y-58122191D01*
X93710523Y-58116308D01*
X93653379Y-58103396D01*
X93597473Y-58080950D01*
X93565885Y-58065459D01*
X93451422Y-57987655D01*
X93387465Y-57915468D01*
X93323834Y-57823687D01*
X93323834Y-56875501D01*
X93609584Y-56875501D01*
X93610334Y-57261459D01*
X93611704Y-57417456D01*
X93615315Y-57535389D01*
X93621445Y-57619480D01*
X93630372Y-57673953D01*
X93639122Y-57698004D01*
X93680692Y-57751979D01*
X93738421Y-57784996D01*
X93820688Y-57800074D01*
X93924078Y-57800747D01*
X94007120Y-57795864D01*
X94060257Y-57786754D01*
X94095917Y-57769501D01*
X94126528Y-57740184D01*
X94130453Y-57735668D01*
X94148049Y-57713802D01*
X94161010Y-57690756D01*
X94170044Y-57660077D01*
X94175858Y-57615312D01*
X94179162Y-57550011D01*
X94180662Y-57457719D01*
X94181069Y-57331985D01*
X94181084Y-57274428D01*
X94179937Y-57133906D01*
X94176694Y-57013086D01*
X94171651Y-56917980D01*
X94165104Y-56854602D01*
X94159289Y-56831328D01*
X94104740Y-56773450D01*
X94017160Y-56739208D01*
X93899246Y-56729533D01*
X93868066Y-56730884D01*
X93789792Y-56738114D01*
X93739022Y-56751285D01*
X93700927Y-56776148D01*
X93670292Y-56807557D01*
X93609584Y-56875501D01*
X93323834Y-56875501D01*
X93323834Y-56712992D01*
X93381568Y-56625749D01*
G36*
X95295029Y-56399737D02*
G01*
X95372090Y-56404261D01*
X95428508Y-56413754D01*
X95475111Y-56429811D01*
X95508066Y-56446013D01*
X95616464Y-56526230D01*
X95692597Y-56632918D01*
X95735955Y-56764552D01*
X95746030Y-56919607D01*
X95723561Y-57090750D01*
X95710814Y-57140527D01*
X95692468Y-57183848D01*
X95662854Y-57228667D01*
X95616305Y-57282939D01*
X95547153Y-57354617D01*
X95506603Y-57395216D01*
X95413515Y-57484929D01*
X95311238Y-57578694D01*
X95213521Y-57664131D01*
X95148072Y-57718008D01*
X94982643Y-57848500D01*
X95726250Y-57848500D01*
X95726250Y-58123667D01*
X94646750Y-58123667D01*
X94646948Y-57927875D01*
X94647146Y-57732084D01*
X94819438Y-57594500D01*
X94902668Y-57525215D01*
X95003373Y-57437106D01*
X95109094Y-57341282D01*
X95207371Y-57248854D01*
X95211110Y-57245250D01*
X95430490Y-57033584D01*
X95430203Y-56924340D01*
X95426643Y-56854925D01*
X95411753Y-56810065D01*
X95378535Y-56772206D01*
X95364793Y-56760298D01*
X95318112Y-56727684D01*
X95267190Y-56711074D01*
X95195183Y-56705665D01*
X95172665Y-56705500D01*
X95097068Y-56708072D01*
X95047615Y-56719292D01*
X95008253Y-56744421D01*
X94983789Y-56767372D01*
X94932945Y-56839669D01*
X94921917Y-56894372D01*
X94921917Y-56959500D01*
X94619704Y-56959500D01*
X94631221Y-56832492D01*
X94662336Y-56688530D01*
X94726657Y-56569383D01*
X94823001Y-56477042D01*
X94853688Y-56457354D01*
X94901207Y-56431233D01*
X94944494Y-56414242D01*
X94994553Y-56404436D01*
X95062390Y-56399874D01*
X95159011Y-56398612D01*
X95186500Y-56398584D01*
X95295029Y-56399737D01*
G37*
X95295029Y-56399737D02*
X95372090Y-56404261D01*
X95428508Y-56413754D01*
X95475111Y-56429811D01*
X95508066Y-56446013D01*
X95616464Y-56526230D01*
X95692597Y-56632918D01*
X95735955Y-56764552D01*
X95746030Y-56919607D01*
X95723561Y-57090750D01*
X95710814Y-57140527D01*
X95692468Y-57183848D01*
X95662854Y-57228667D01*
X95616305Y-57282939D01*
X95547153Y-57354617D01*
X95506603Y-57395216D01*
X95413515Y-57484929D01*
X95311238Y-57578694D01*
X95213521Y-57664131D01*
X95148072Y-57718008D01*
X94982643Y-57848500D01*
X95726250Y-57848500D01*
X95726250Y-58123667D01*
X94646750Y-58123667D01*
X94646948Y-57927875D01*
X94647146Y-57732084D01*
X94819438Y-57594500D01*
X94902668Y-57525215D01*
X95003373Y-57437106D01*
X95109094Y-57341282D01*
X95207371Y-57248854D01*
X95211110Y-57245250D01*
X95430490Y-57033584D01*
X95430203Y-56924340D01*
X95426643Y-56854925D01*
X95411753Y-56810065D01*
X95378535Y-56772206D01*
X95364793Y-56760298D01*
X95318112Y-56727684D01*
X95267190Y-56711074D01*
X95195183Y-56705665D01*
X95172665Y-56705500D01*
X95097068Y-56708072D01*
X95047615Y-56719292D01*
X95008253Y-56744421D01*
X94983789Y-56767372D01*
X94932945Y-56839669D01*
X94921917Y-56894372D01*
X94921917Y-56959500D01*
X94619704Y-56959500D01*
X94631221Y-56832492D01*
X94662336Y-56688530D01*
X94726657Y-56569383D01*
X94823001Y-56477042D01*
X94853688Y-56457354D01*
X94901207Y-56431233D01*
X94944494Y-56414242D01*
X94994553Y-56404436D01*
X95062390Y-56399874D01*
X95159011Y-56398612D01*
X95186500Y-56398584D01*
X95295029Y-56399737D01*
G36*
X96530436Y-56400381D02*
G01*
X96639841Y-56422235D01*
X96718815Y-56452769D01*
X96815764Y-56530367D01*
X96887633Y-56635663D01*
X96932677Y-56761030D01*
X96949153Y-56898845D01*
X96935314Y-57041481D01*
X96889417Y-57181315D01*
X96886817Y-57186897D01*
X96847264Y-57247747D01*
X96778900Y-57327886D01*
X96687267Y-57421866D01*
X96577908Y-57524239D01*
X96456364Y-57629556D01*
X96345762Y-57718762D01*
X96192690Y-57837917D01*
X96552137Y-57843708D01*
X96911584Y-57849500D01*
X96911584Y-58123667D01*
X95853250Y-58123667D01*
X95853250Y-57726269D01*
X96006709Y-57602646D01*
X96132274Y-57498886D01*
X96252795Y-57394455D01*
X96363401Y-57293990D01*
X96459226Y-57202131D01*
X96535399Y-57123514D01*
X96587053Y-57062780D01*
X96607369Y-57030382D01*
X96635100Y-56928923D01*
X96625216Y-56843580D01*
X96577177Y-56770039D01*
X96574545Y-56767372D01*
X96533691Y-56731797D01*
X96492033Y-56713171D01*
X96433518Y-56706237D01*
X96385669Y-56705500D01*
X96274152Y-56718549D01*
X96192230Y-56756341D01*
X96142781Y-56816838D01*
X96128417Y-56887298D01*
X96128417Y-56959500D01*
X95832084Y-56959500D01*
X95832548Y-56848375D01*
X95852417Y-56711376D01*
X95908009Y-56592247D01*
X95995111Y-56496382D01*
X96109511Y-56429172D01*
X96176826Y-56407709D01*
X96284789Y-56391943D01*
X96407372Y-56389892D01*
X96530436Y-56400381D01*
G37*
X96530436Y-56400381D02*
X96639841Y-56422235D01*
X96718815Y-56452769D01*
X96815764Y-56530367D01*
X96887633Y-56635663D01*
X96932677Y-56761030D01*
X96949153Y-56898845D01*
X96935314Y-57041481D01*
X96889417Y-57181315D01*
X96886817Y-57186897D01*
X96847264Y-57247747D01*
X96778900Y-57327886D01*
X96687267Y-57421866D01*
X96577908Y-57524239D01*
X96456364Y-57629556D01*
X96345762Y-57718762D01*
X96192690Y-57837917D01*
X96552137Y-57843708D01*
X96911584Y-57849500D01*
X96911584Y-58123667D01*
X95853250Y-58123667D01*
X95853250Y-57726269D01*
X96006709Y-57602646D01*
X96132274Y-57498886D01*
X96252795Y-57394455D01*
X96363401Y-57293990D01*
X96459226Y-57202131D01*
X96535399Y-57123514D01*
X96587053Y-57062780D01*
X96607369Y-57030382D01*
X96635100Y-56928923D01*
X96625216Y-56843580D01*
X96577177Y-56770039D01*
X96574545Y-56767372D01*
X96533691Y-56731797D01*
X96492033Y-56713171D01*
X96433518Y-56706237D01*
X96385669Y-56705500D01*
X96274152Y-56718549D01*
X96192230Y-56756341D01*
X96142781Y-56816838D01*
X96128417Y-56887298D01*
X96128417Y-56959500D01*
X95832084Y-56959500D01*
X95832548Y-56848375D01*
X95852417Y-56711376D01*
X95908009Y-56592247D01*
X95995111Y-56496382D01*
X96109511Y-56429172D01*
X96176826Y-56407709D01*
X96284789Y-56391943D01*
X96407372Y-56389892D01*
X96530436Y-56400381D01*
G36*
X89764307Y-54095290D02*
G01*
X89776069Y-54013142D01*
X89795935Y-53950605D01*
X89825865Y-53900124D01*
X89867821Y-53854145D01*
X89891102Y-53832949D01*
X89940896Y-53794141D01*
X89994225Y-53765277D01*
X90058184Y-53744965D01*
X90139868Y-53731812D01*
X90246371Y-53724426D01*
X90384787Y-53721417D01*
X90461042Y-53721118D01*
X90794417Y-53721000D01*
X90794417Y-54430927D01*
X90794266Y-54624708D01*
X90793655Y-54780860D01*
X90792344Y-54904084D01*
X90790094Y-54999082D01*
X90786666Y-55070558D01*
X90781822Y-55123214D01*
X90775321Y-55161752D01*
X90766926Y-55190875D01*
X90756396Y-55215286D01*
X90754336Y-55219385D01*
X90713004Y-55289334D01*
X90665566Y-55342621D01*
X90605900Y-55381403D01*
X90527887Y-55407836D01*
X90425405Y-55424077D01*
X90292333Y-55432281D01*
X90143542Y-55434571D01*
X89820750Y-55435500D01*
X89820750Y-55139167D01*
X90114739Y-55139167D01*
X90247970Y-55137714D01*
X90345356Y-55132054D01*
X90413321Y-55120231D01*
X90458293Y-55100291D01*
X90486699Y-55070280D01*
X90504966Y-55028242D01*
X90507540Y-55019709D01*
X90511391Y-55000453D01*
X90505268Y-54987315D01*
X90482467Y-54978804D01*
X90436285Y-54973427D01*
X90360018Y-54969693D01*
X90269695Y-54966792D01*
X90160258Y-54962770D01*
X90083262Y-54957194D01*
X90028816Y-54948173D01*
X89987028Y-54933819D01*
X89948008Y-54912241D01*
X89932881Y-54902438D01*
X89871183Y-54855197D01*
X89825375Y-54802036D01*
X89793276Y-54736077D01*
X89772702Y-54650436D01*
X89761472Y-54538235D01*
X89757404Y-54392591D01*
X89757250Y-54348637D01*
X89757282Y-54345417D01*
X90053584Y-54345417D01*
X90054214Y-54440568D01*
X90057716Y-54503783D01*
X90066504Y-54545455D01*
X90082996Y-54575979D01*
X90109606Y-54605750D01*
X90115455Y-54611628D01*
X90149342Y-54642564D01*
X90182546Y-54661005D01*
X90227139Y-54670160D01*
X90295194Y-54673237D01*
X90348289Y-54673500D01*
X90519250Y-54673500D01*
X90519250Y-54017334D01*
X90348289Y-54017334D01*
X90261742Y-54018402D01*
X90205443Y-54023744D01*
X90167321Y-54036570D01*
X90135304Y-54060085D01*
X90115455Y-54079205D01*
X90086835Y-54109907D01*
X90068755Y-54139552D01*
X90058798Y-54178535D01*
X90054549Y-54237250D01*
X90053593Y-54326091D01*
X90053584Y-54345417D01*
X89757282Y-54345417D01*
X89758687Y-54204604D01*
X89764307Y-54095290D01*
G37*
X89764307Y-54095290D02*
X89776069Y-54013142D01*
X89795935Y-53950605D01*
X89825865Y-53900124D01*
X89867821Y-53854145D01*
X89891102Y-53832949D01*
X89940896Y-53794141D01*
X89994225Y-53765277D01*
X90058184Y-53744965D01*
X90139868Y-53731812D01*
X90246371Y-53724426D01*
X90384787Y-53721417D01*
X90461042Y-53721118D01*
X90794417Y-53721000D01*
X90794417Y-54430927D01*
X90794266Y-54624708D01*
X90793655Y-54780860D01*
X90792344Y-54904084D01*
X90790094Y-54999082D01*
X90786666Y-55070558D01*
X90781822Y-55123214D01*
X90775321Y-55161752D01*
X90766926Y-55190875D01*
X90756396Y-55215286D01*
X90754336Y-55219385D01*
X90713004Y-55289334D01*
X90665566Y-55342621D01*
X90605900Y-55381403D01*
X90527887Y-55407836D01*
X90425405Y-55424077D01*
X90292333Y-55432281D01*
X90143542Y-55434571D01*
X89820750Y-55435500D01*
X89820750Y-55139167D01*
X90114739Y-55139167D01*
X90247970Y-55137714D01*
X90345356Y-55132054D01*
X90413321Y-55120231D01*
X90458293Y-55100291D01*
X90486699Y-55070280D01*
X90504966Y-55028242D01*
X90507540Y-55019709D01*
X90511391Y-55000453D01*
X90505268Y-54987315D01*
X90482467Y-54978804D01*
X90436285Y-54973427D01*
X90360018Y-54969693D01*
X90269695Y-54966792D01*
X90160258Y-54962770D01*
X90083262Y-54957194D01*
X90028816Y-54948173D01*
X89987028Y-54933819D01*
X89948008Y-54912241D01*
X89932881Y-54902438D01*
X89871183Y-54855197D01*
X89825375Y-54802036D01*
X89793276Y-54736077D01*
X89772702Y-54650436D01*
X89761472Y-54538235D01*
X89757404Y-54392591D01*
X89757250Y-54348637D01*
X89757282Y-54345417D01*
X90053584Y-54345417D01*
X90054214Y-54440568D01*
X90057716Y-54503783D01*
X90066504Y-54545455D01*
X90082996Y-54575979D01*
X90109606Y-54605750D01*
X90115455Y-54611628D01*
X90149342Y-54642564D01*
X90182546Y-54661005D01*
X90227139Y-54670160D01*
X90295194Y-54673237D01*
X90348289Y-54673500D01*
X90519250Y-54673500D01*
X90519250Y-54017334D01*
X90348289Y-54017334D01*
X90261742Y-54018402D01*
X90205443Y-54023744D01*
X90167321Y-54036570D01*
X90135304Y-54060085D01*
X90115455Y-54079205D01*
X90086835Y-54109907D01*
X90068755Y-54139552D01*
X90058798Y-54178535D01*
X90054549Y-54237250D01*
X90053593Y-54326091D01*
X90053584Y-54345417D01*
X89757282Y-54345417D01*
X89758687Y-54204604D01*
X89764307Y-54095290D01*
G36*
X93840300Y-53927375D02*
G01*
X93874259Y-54039145D01*
X93910148Y-54158684D01*
X93941867Y-54265634D01*
X93951283Y-54297792D01*
X93974983Y-54373836D01*
X93995801Y-54431160D01*
X94010132Y-54460118D01*
X94012582Y-54461834D01*
X94023435Y-54442780D01*
X94042904Y-54390943D01*
X94068203Y-54314306D01*
X94095709Y-54223709D01*
X94128247Y-54112962D01*
X94161177Y-54001827D01*
X94190021Y-53905375D01*
X94205801Y-53853292D01*
X94246284Y-53721000D01*
X94395027Y-53721000D01*
X94472637Y-53722128D01*
X94516058Y-53726970D01*
X94533405Y-53737715D01*
X94532795Y-53756554D01*
X94532349Y-53758042D01*
X94523845Y-53786410D01*
X94504777Y-53850489D01*
X94476593Y-53945398D01*
X94440741Y-54066255D01*
X94398670Y-54208178D01*
X94351828Y-54366286D01*
X94307864Y-54514750D01*
X94256939Y-54686489D01*
X94208503Y-54849316D01*
X94164192Y-54997776D01*
X94125640Y-55126414D01*
X94094479Y-55229776D01*
X94072345Y-55302408D01*
X94062157Y-55334959D01*
X94029515Y-55435500D01*
X93739572Y-55435500D01*
X93780939Y-55292625D01*
X93805729Y-55208631D01*
X93825145Y-55140956D01*
X93838535Y-55083587D01*
X93845250Y-55030512D01*
X93844641Y-54975719D01*
X93836056Y-54913195D01*
X93818846Y-54836928D01*
X93792361Y-54740905D01*
X93755951Y-54619114D01*
X93708967Y-54465543D01*
X93681978Y-54377167D01*
X93635259Y-54223953D01*
X93592241Y-54083298D01*
X93554545Y-53960465D01*
X93523789Y-53860717D01*
X93501594Y-53789317D01*
X93489579Y-53751527D01*
X93488175Y-53747459D01*
X93494424Y-53732855D01*
X93530576Y-53724424D01*
X93602041Y-53721138D01*
X93627577Y-53721000D01*
X93777099Y-53721000D01*
X93840300Y-53927375D01*
G37*
X93840300Y-53927375D02*
X93874259Y-54039145D01*
X93910148Y-54158684D01*
X93941867Y-54265634D01*
X93951283Y-54297792D01*
X93974983Y-54373836D01*
X93995801Y-54431160D01*
X94010132Y-54460118D01*
X94012582Y-54461834D01*
X94023435Y-54442780D01*
X94042904Y-54390943D01*
X94068203Y-54314306D01*
X94095709Y-54223709D01*
X94128247Y-54112962D01*
X94161177Y-54001827D01*
X94190021Y-53905375D01*
X94205801Y-53853292D01*
X94246284Y-53721000D01*
X94395027Y-53721000D01*
X94472637Y-53722128D01*
X94516058Y-53726970D01*
X94533405Y-53737715D01*
X94532795Y-53756554D01*
X94532349Y-53758042D01*
X94523845Y-53786410D01*
X94504777Y-53850489D01*
X94476593Y-53945398D01*
X94440741Y-54066255D01*
X94398670Y-54208178D01*
X94351828Y-54366286D01*
X94307864Y-54514750D01*
X94256939Y-54686489D01*
X94208503Y-54849316D01*
X94164192Y-54997776D01*
X94125640Y-55126414D01*
X94094479Y-55229776D01*
X94072345Y-55302408D01*
X94062157Y-55334959D01*
X94029515Y-55435500D01*
X93739572Y-55435500D01*
X93780939Y-55292625D01*
X93805729Y-55208631D01*
X93825145Y-55140956D01*
X93838535Y-55083587D01*
X93845250Y-55030512D01*
X93844641Y-54975719D01*
X93836056Y-54913195D01*
X93818846Y-54836928D01*
X93792361Y-54740905D01*
X93755951Y-54619114D01*
X93708967Y-54465543D01*
X93681978Y-54377167D01*
X93635259Y-54223953D01*
X93592241Y-54083298D01*
X93554545Y-53960465D01*
X93523789Y-53860717D01*
X93501594Y-53789317D01*
X93489579Y-53751527D01*
X93488175Y-53747459D01*
X93494424Y-53732855D01*
X93530576Y-53724424D01*
X93602041Y-53721138D01*
X93627577Y-53721000D01*
X93777099Y-53721000D01*
X93840300Y-53927375D01*
G36*
X87034175Y-53297667D02*
G01*
X87214485Y-53299361D01*
X87358101Y-53305678D01*
X87470569Y-53318467D01*
X87557438Y-53339578D01*
X87624254Y-53370861D01*
X87676566Y-53414165D01*
X87719921Y-53471341D01*
X87757143Y-53538742D01*
X87773686Y-53573153D01*
X87786352Y-53605543D01*
X87795659Y-53641955D01*
X87802123Y-53688431D01*
X87806263Y-53751012D01*
X87808596Y-53835740D01*
X87809638Y-53948656D01*
X87809909Y-54095803D01*
X87809917Y-54154917D01*
X87809791Y-54315125D01*
X87809070Y-54439041D01*
X87807236Y-54532707D01*
X87803771Y-54602165D01*
X87798158Y-54653457D01*
X87789879Y-54692623D01*
X87778417Y-54725707D01*
X87763255Y-54758749D01*
X87757143Y-54771091D01*
X87717142Y-54842860D01*
X87673353Y-54899034D01*
X87620231Y-54941462D01*
X87552226Y-54971994D01*
X87463791Y-54992480D01*
X87349380Y-55004770D01*
X87203443Y-55010713D01*
X87034175Y-55012167D01*
X86624584Y-55012167D01*
X86624584Y-54673500D01*
X86963250Y-54673500D01*
X87169625Y-54672827D01*
X87279914Y-54669636D01*
X87360817Y-54661304D01*
X87406362Y-54648489D01*
X87409584Y-54646369D01*
X87438170Y-54620067D01*
X87459413Y-54587069D01*
X87474367Y-54541128D01*
X87484085Y-54475995D01*
X87489621Y-54385424D01*
X87492028Y-54263166D01*
X87492417Y-54155257D01*
X87491073Y-53997297D01*
X87486379Y-53876363D01*
X87477336Y-53787213D01*
X87462947Y-53724604D01*
X87442216Y-53683295D01*
X87414146Y-53658044D01*
X87396219Y-53649482D01*
X87360800Y-53643708D01*
X87294523Y-53639226D01*
X87208858Y-53636679D01*
X87162602Y-53636334D01*
X86963250Y-53636334D01*
X86963250Y-54673500D01*
X86624584Y-54673500D01*
X86624584Y-53297667D01*
X87034175Y-53297667D01*
G37*
X87034175Y-53297667D02*
X87214485Y-53299361D01*
X87358101Y-53305678D01*
X87470569Y-53318467D01*
X87557438Y-53339578D01*
X87624254Y-53370861D01*
X87676566Y-53414165D01*
X87719921Y-53471341D01*
X87757143Y-53538742D01*
X87773686Y-53573153D01*
X87786352Y-53605543D01*
X87795659Y-53641955D01*
X87802123Y-53688431D01*
X87806263Y-53751012D01*
X87808596Y-53835740D01*
X87809638Y-53948656D01*
X87809909Y-54095803D01*
X87809917Y-54154917D01*
X87809791Y-54315125D01*
X87809070Y-54439041D01*
X87807236Y-54532707D01*
X87803771Y-54602165D01*
X87798158Y-54653457D01*
X87789879Y-54692623D01*
X87778417Y-54725707D01*
X87763255Y-54758749D01*
X87757143Y-54771091D01*
X87717142Y-54842860D01*
X87673353Y-54899034D01*
X87620231Y-54941462D01*
X87552226Y-54971994D01*
X87463791Y-54992480D01*
X87349380Y-55004770D01*
X87203443Y-55010713D01*
X87034175Y-55012167D01*
X86624584Y-55012167D01*
X86624584Y-54673500D01*
X86963250Y-54673500D01*
X87169625Y-54672827D01*
X87279914Y-54669636D01*
X87360817Y-54661304D01*
X87406362Y-54648489D01*
X87409584Y-54646369D01*
X87438170Y-54620067D01*
X87459413Y-54587069D01*
X87474367Y-54541128D01*
X87484085Y-54475995D01*
X87489621Y-54385424D01*
X87492028Y-54263166D01*
X87492417Y-54155257D01*
X87491073Y-53997297D01*
X87486379Y-53876363D01*
X87477336Y-53787213D01*
X87462947Y-53724604D01*
X87442216Y-53683295D01*
X87414146Y-53658044D01*
X87396219Y-53649482D01*
X87360800Y-53643708D01*
X87294523Y-53639226D01*
X87208858Y-53636679D01*
X87162602Y-53636334D01*
X86963250Y-53636334D01*
X86963250Y-54673500D01*
X86624584Y-54673500D01*
X86624584Y-53297667D01*
X87034175Y-53297667D01*
G36*
X88328500Y-53731584D02*
G01*
X88334102Y-54371875D01*
X88339704Y-55012167D01*
X88021584Y-55012167D01*
X88021584Y-53719146D01*
X88328500Y-53731584D01*
G37*
X88328500Y-53731584D02*
X88334102Y-54371875D01*
X88339704Y-55012167D01*
X88021584Y-55012167D01*
X88021584Y-53719146D01*
X88328500Y-53731584D01*
G36*
X88771944Y-53723297D02*
G01*
X88824863Y-53729340D01*
X88846966Y-53737862D01*
X88847084Y-53738562D01*
X88865851Y-53744613D01*
X88914437Y-53742182D01*
X88965656Y-53734632D01*
X89098084Y-53724017D01*
X89229955Y-53737103D01*
X89348302Y-53771478D01*
X89437284Y-53822371D01*
X89485299Y-53862676D01*
X89522715Y-53900554D01*
X89550940Y-53941855D01*
X89571383Y-53992429D01*
X89585450Y-54058126D01*
X89594549Y-54144795D01*
X89600090Y-54258286D01*
X89603479Y-54404449D01*
X89605199Y-54520042D01*
X89611898Y-55012167D01*
X89291584Y-55012167D01*
X89291584Y-54567667D01*
X89291351Y-54418880D01*
X89290314Y-54306567D01*
X89287963Y-54224872D01*
X89283788Y-54167936D01*
X89277281Y-54129901D01*
X89267932Y-54104909D01*
X89255231Y-54087104D01*
X89249250Y-54080834D01*
X89195287Y-54051557D01*
X89117535Y-54037399D01*
X89031777Y-54038447D01*
X88953799Y-54054789D01*
X88907637Y-54078925D01*
X88891032Y-54093548D01*
X88878488Y-54110774D01*
X88869332Y-54136418D01*
X88862890Y-54176293D01*
X88858487Y-54236211D01*
X88855449Y-54321986D01*
X88853102Y-54439432D01*
X88851187Y-54565759D01*
X88844707Y-55012167D01*
X88550750Y-55012167D01*
X88550750Y-53721000D01*
X88698917Y-53721000D01*
X88771944Y-53723297D01*
G37*
X88771944Y-53723297D02*
X88824863Y-53729340D01*
X88846966Y-53737862D01*
X88847084Y-53738562D01*
X88865851Y-53744613D01*
X88914437Y-53742182D01*
X88965656Y-53734632D01*
X89098084Y-53724017D01*
X89229955Y-53737103D01*
X89348302Y-53771478D01*
X89437284Y-53822371D01*
X89485299Y-53862676D01*
X89522715Y-53900554D01*
X89550940Y-53941855D01*
X89571383Y-53992429D01*
X89585450Y-54058126D01*
X89594549Y-54144795D01*
X89600090Y-54258286D01*
X89603479Y-54404449D01*
X89605199Y-54520042D01*
X89611898Y-55012167D01*
X89291584Y-55012167D01*
X89291584Y-54567667D01*
X89291351Y-54418880D01*
X89290314Y-54306567D01*
X89287963Y-54224872D01*
X89283788Y-54167936D01*
X89277281Y-54129901D01*
X89267932Y-54104909D01*
X89255231Y-54087104D01*
X89249250Y-54080834D01*
X89195287Y-54051557D01*
X89117535Y-54037399D01*
X89031777Y-54038447D01*
X88953799Y-54054789D01*
X88907637Y-54078925D01*
X88891032Y-54093548D01*
X88878488Y-54110774D01*
X88869332Y-54136418D01*
X88862890Y-54176293D01*
X88858487Y-54236211D01*
X88855449Y-54321986D01*
X88853102Y-54439432D01*
X88851187Y-54565759D01*
X88844707Y-55012167D01*
X88550750Y-55012167D01*
X88550750Y-53721000D01*
X88698917Y-53721000D01*
X88771944Y-53723297D01*
G36*
X91334167Y-53962123D02*
G01*
X91586082Y-53629895D01*
X91837998Y-53297667D01*
X92004124Y-53297667D01*
X92081937Y-53299397D01*
X92140233Y-53303987D01*
X92168898Y-53310541D01*
X92170250Y-53312421D01*
X92157981Y-53332711D01*
X92123512Y-53381837D01*
X92070353Y-53455004D01*
X92002015Y-53547414D01*
X91922007Y-53654271D01*
X91861189Y-53734767D01*
X91552128Y-54142359D01*
X91600971Y-54212138D01*
X91628870Y-54250786D01*
X91677322Y-54316639D01*
X91741420Y-54403081D01*
X91816257Y-54503496D01*
X91896927Y-54611267D01*
X91900288Y-54615747D01*
X91978149Y-54720269D01*
X92047386Y-54814635D01*
X92103879Y-54893114D01*
X92143510Y-54949976D01*
X92162158Y-54979491D01*
X92162770Y-54980872D01*
X92162246Y-54996693D01*
X92140984Y-55006229D01*
X92091827Y-55010909D01*
X92007623Y-55012167D01*
X91837998Y-55012167D01*
X91586082Y-54679939D01*
X91334167Y-54347711D01*
X91322509Y-55012167D01*
X90984917Y-55012167D01*
X90984917Y-53297667D01*
X91322509Y-53297667D01*
X91334167Y-53962123D01*
G37*
X91334167Y-53962123D02*
X91586082Y-53629895D01*
X91837998Y-53297667D01*
X92004124Y-53297667D01*
X92081937Y-53299397D01*
X92140233Y-53303987D01*
X92168898Y-53310541D01*
X92170250Y-53312421D01*
X92157981Y-53332711D01*
X92123512Y-53381837D01*
X92070353Y-53455004D01*
X92002015Y-53547414D01*
X91922007Y-53654271D01*
X91861189Y-53734767D01*
X91552128Y-54142359D01*
X91600971Y-54212138D01*
X91628870Y-54250786D01*
X91677322Y-54316639D01*
X91741420Y-54403081D01*
X91816257Y-54503496D01*
X91896927Y-54611267D01*
X91900288Y-54615747D01*
X91978149Y-54720269D01*
X92047386Y-54814635D01*
X92103879Y-54893114D01*
X92143510Y-54949976D01*
X92162158Y-54979491D01*
X92162770Y-54980872D01*
X92162246Y-54996693D01*
X92140984Y-55006229D01*
X92091827Y-55010909D01*
X92007623Y-55012167D01*
X91837998Y-55012167D01*
X91586082Y-54679939D01*
X91334167Y-54347711D01*
X91322509Y-55012167D01*
X90984917Y-55012167D01*
X90984917Y-53297667D01*
X91322509Y-53297667D01*
X91334167Y-53962123D01*
G36*
X92350270Y-53941643D02*
G01*
X92410270Y-53861821D01*
X92485812Y-53802405D01*
X92530186Y-53777657D01*
X92586938Y-53750138D01*
X92635384Y-53733134D01*
X92688126Y-53724628D01*
X92757763Y-53722602D01*
X92856898Y-53725037D01*
X92858457Y-53725090D01*
X93004178Y-53736824D01*
X93116566Y-53763282D01*
X93203153Y-53808134D01*
X93271469Y-53875051D01*
X93319607Y-53949822D01*
X93345630Y-54001476D01*
X93362324Y-54049000D01*
X93371722Y-54104109D01*
X93375853Y-54178521D01*
X93376750Y-54279490D01*
X93376750Y-54504167D01*
X92593584Y-54504167D01*
X92593584Y-54563621D01*
X92604290Y-54623723D01*
X92623584Y-54664163D01*
X92638399Y-54679710D01*
X92661058Y-54691046D01*
X92698166Y-54699026D01*
X92756330Y-54704501D01*
X92842157Y-54708326D01*
X92962254Y-54711353D01*
X92994000Y-54711998D01*
X93334417Y-54718747D01*
X93334417Y-55012167D01*
X92967329Y-55012167D01*
X92832748Y-55011819D01*
X92732984Y-55010239D01*
X92660526Y-55006623D01*
X92607859Y-55000168D01*
X92567471Y-54990070D01*
X92531849Y-54975525D01*
X92506954Y-54962917D01*
X92436638Y-54913922D01*
X92370146Y-54848964D01*
X92350167Y-54823539D01*
X92286667Y-54733412D01*
X92286667Y-54210352D01*
X92592427Y-54210352D01*
X92606297Y-54232238D01*
X92646905Y-54244165D01*
X92719340Y-54249139D01*
X92828690Y-54250165D01*
X92837000Y-54250167D01*
X92941712Y-54249674D01*
X93011231Y-54247399D01*
X93052691Y-54242149D01*
X93073228Y-54232731D01*
X93079977Y-54217951D01*
X93080417Y-54209458D01*
X93067339Y-54167594D01*
X93034964Y-54115327D01*
X93025619Y-54103624D01*
X92989814Y-54066256D01*
X92953157Y-54046737D01*
X92900169Y-54039407D01*
X92847433Y-54038500D01*
X92756715Y-54041138D01*
X92697438Y-54051814D01*
X92658887Y-54074669D01*
X92630349Y-54113847D01*
X92624551Y-54124681D01*
X92600208Y-54175501D01*
X92592427Y-54210352D01*
X92286667Y-54210352D01*
X92286667Y-54045869D01*
X92350270Y-53941643D01*
G37*
X92350270Y-53941643D02*
X92410270Y-53861821D01*
X92485812Y-53802405D01*
X92530186Y-53777657D01*
X92586938Y-53750138D01*
X92635384Y-53733134D01*
X92688126Y-53724628D01*
X92757763Y-53722602D01*
X92856898Y-53725037D01*
X92858457Y-53725090D01*
X93004178Y-53736824D01*
X93116566Y-53763282D01*
X93203153Y-53808134D01*
X93271469Y-53875051D01*
X93319607Y-53949822D01*
X93345630Y-54001476D01*
X93362324Y-54049000D01*
X93371722Y-54104109D01*
X93375853Y-54178521D01*
X93376750Y-54279490D01*
X93376750Y-54504167D01*
X92593584Y-54504167D01*
X92593584Y-54563621D01*
X92604290Y-54623723D01*
X92623584Y-54664163D01*
X92638399Y-54679710D01*
X92661058Y-54691046D01*
X92698166Y-54699026D01*
X92756330Y-54704501D01*
X92842157Y-54708326D01*
X92962254Y-54711353D01*
X92994000Y-54711998D01*
X93334417Y-54718747D01*
X93334417Y-55012167D01*
X92967329Y-55012167D01*
X92832748Y-55011819D01*
X92732984Y-55010239D01*
X92660526Y-55006623D01*
X92607859Y-55000168D01*
X92567471Y-54990070D01*
X92531849Y-54975525D01*
X92506954Y-54962917D01*
X92436638Y-54913922D01*
X92370146Y-54848964D01*
X92350167Y-54823539D01*
X92286667Y-54733412D01*
X92286667Y-54210352D01*
X92592427Y-54210352D01*
X92606297Y-54232238D01*
X92646905Y-54244165D01*
X92719340Y-54249139D01*
X92828690Y-54250165D01*
X92837000Y-54250167D01*
X92941712Y-54249674D01*
X93011231Y-54247399D01*
X93052691Y-54242149D01*
X93073228Y-54232731D01*
X93079977Y-54217951D01*
X93080417Y-54209458D01*
X93067339Y-54167594D01*
X93034964Y-54115327D01*
X93025619Y-54103624D01*
X92989814Y-54066256D01*
X92953157Y-54046737D01*
X92900169Y-54039407D01*
X92847433Y-54038500D01*
X92756715Y-54041138D01*
X92697438Y-54051814D01*
X92658887Y-54074669D01*
X92630349Y-54113847D01*
X92624551Y-54124681D01*
X92600208Y-54175501D01*
X92592427Y-54210352D01*
X92286667Y-54210352D01*
X92286667Y-54045869D01*
X92350270Y-53941643D01*
G36*
X95985542Y-53301398D02*
G01*
X96131400Y-53303951D01*
X96241631Y-53306814D01*
X96322938Y-53310755D01*
X96382023Y-53316540D01*
X96425591Y-53324934D01*
X96460344Y-53336704D01*
X96492986Y-53352616D01*
X96508477Y-53361167D01*
X96579219Y-53412399D01*
X96646310Y-53479093D01*
X96667148Y-53505752D01*
X96700996Y-53559217D01*
X96721539Y-53610229D01*
X96732869Y-53673608D01*
X96739080Y-53764172D01*
X96739188Y-53766529D01*
X96736393Y-53911362D01*
X96711399Y-54026677D01*
X96661402Y-54120588D01*
X96591180Y-54194825D01*
X96523436Y-54243574D01*
X96447023Y-54277781D01*
X96353440Y-54299495D01*
X96234186Y-54310763D01*
X96097877Y-54313667D01*
X95874417Y-54313667D01*
X95874417Y-55012167D01*
X95556917Y-55012167D01*
X95556917Y-53999912D01*
X95874417Y-53999912D01*
X96109161Y-53992748D01*
X96212920Y-53988921D01*
X96283053Y-53983772D01*
X96328266Y-53975492D01*
X96357263Y-53962276D01*
X96378749Y-53942315D01*
X96384328Y-53935614D01*
X96420953Y-53859757D01*
X96419969Y-53777273D01*
X96382282Y-53699099D01*
X96362878Y-53677039D01*
X96332872Y-53648941D01*
X96303983Y-53630967D01*
X96266164Y-53620857D01*
X96209372Y-53616354D01*
X96123561Y-53615199D01*
X96087712Y-53615167D01*
X95874417Y-53615167D01*
X95874417Y-53999912D01*
X95556917Y-53999912D01*
X95556917Y-53294546D01*
X95985542Y-53301398D01*
G37*
X95985542Y-53301398D02*
X96131400Y-53303951D01*
X96241631Y-53306814D01*
X96322938Y-53310755D01*
X96382023Y-53316540D01*
X96425591Y-53324934D01*
X96460344Y-53336704D01*
X96492986Y-53352616D01*
X96508477Y-53361167D01*
X96579219Y-53412399D01*
X96646310Y-53479093D01*
X96667148Y-53505752D01*
X96700996Y-53559217D01*
X96721539Y-53610229D01*
X96732869Y-53673608D01*
X96739080Y-53764172D01*
X96739188Y-53766529D01*
X96736393Y-53911362D01*
X96711399Y-54026677D01*
X96661402Y-54120588D01*
X96591180Y-54194825D01*
X96523436Y-54243574D01*
X96447023Y-54277781D01*
X96353440Y-54299495D01*
X96234186Y-54310763D01*
X96097877Y-54313667D01*
X95874417Y-54313667D01*
X95874417Y-55012167D01*
X95556917Y-55012167D01*
X95556917Y-53999912D01*
X95874417Y-53999912D01*
X96109161Y-53992748D01*
X96212920Y-53988921D01*
X96283053Y-53983772D01*
X96328266Y-53975492D01*
X96357263Y-53962276D01*
X96378749Y-53942315D01*
X96384328Y-53935614D01*
X96420953Y-53859757D01*
X96419969Y-53777273D01*
X96382282Y-53699099D01*
X96362878Y-53677039D01*
X96332872Y-53648941D01*
X96303983Y-53630967D01*
X96266164Y-53620857D01*
X96209372Y-53616354D01*
X96123561Y-53615199D01*
X96087712Y-53615167D01*
X95874417Y-53615167D01*
X95874417Y-53999912D01*
X95556917Y-53999912D01*
X95556917Y-53294546D01*
X95985542Y-53301398D01*
G36*
X96900647Y-54449421D02*
G01*
X96910818Y-54425229D01*
X96945771Y-54360382D01*
X96987506Y-54313457D01*
X97043098Y-54281718D01*
X97119619Y-54262427D01*
X97224144Y-54252849D01*
X97363057Y-54250246D01*
X97634614Y-54250167D01*
X97620652Y-54181375D01*
X97593941Y-54109513D01*
X97544819Y-54064512D01*
X97467061Y-54042433D01*
X97395110Y-54038500D01*
X97318383Y-54041480D01*
X97268323Y-54053507D01*
X97229494Y-54079209D01*
X97215686Y-54092307D01*
X97182344Y-54121216D01*
X97146851Y-54136602D01*
X97095741Y-54141714D01*
X97018444Y-54139932D01*
X96875008Y-54133750D01*
X96901739Y-54028750D01*
X96950787Y-53915105D01*
X97032379Y-53826857D01*
X97144410Y-53765083D01*
X97284773Y-53730861D01*
X97451362Y-53725268D01*
X97489928Y-53727869D01*
X97630307Y-53752264D01*
X97739462Y-53801171D01*
X97822760Y-53877813D01*
X97872621Y-53957683D01*
X97890441Y-53994600D01*
X97903922Y-54028587D01*
X97913670Y-54066059D01*
X97920289Y-54113427D01*
X97924384Y-54177106D01*
X97926562Y-54263508D01*
X97927426Y-54379047D01*
X97927583Y-54530136D01*
X97927584Y-54540073D01*
X97927584Y-55012167D01*
X97540485Y-55012167D01*
X97401562Y-55011825D01*
X97297710Y-55010319D01*
X97221671Y-55006933D01*
X97166184Y-55000948D01*
X97123990Y-54991646D01*
X97087831Y-54978309D01*
X97058943Y-54964542D01*
X96970966Y-54897869D01*
X96908806Y-54804494D01*
X96874805Y-54692943D01*
X96873122Y-54634646D01*
X97152767Y-54634646D01*
X97174665Y-54684762D01*
X97192706Y-54708605D01*
X97215134Y-54723819D01*
X97251019Y-54732334D01*
X97309430Y-54736080D01*
X97399439Y-54736989D01*
X97420071Y-54737000D01*
X97631250Y-54737000D01*
X97631250Y-54502735D01*
X97405430Y-54508742D01*
X97179611Y-54514750D01*
X97160024Y-54573637D01*
X97152767Y-54634646D01*
X96873122Y-54634646D01*
X96871304Y-54571743D01*
X96900647Y-54449421D01*
G37*
X96900647Y-54449421D02*
X96910818Y-54425229D01*
X96945771Y-54360382D01*
X96987506Y-54313457D01*
X97043098Y-54281718D01*
X97119619Y-54262427D01*
X97224144Y-54252849D01*
X97363057Y-54250246D01*
X97634614Y-54250167D01*
X97620652Y-54181375D01*
X97593941Y-54109513D01*
X97544819Y-54064512D01*
X97467061Y-54042433D01*
X97395110Y-54038500D01*
X97318383Y-54041480D01*
X97268323Y-54053507D01*
X97229494Y-54079209D01*
X97215686Y-54092307D01*
X97182344Y-54121216D01*
X97146851Y-54136602D01*
X97095741Y-54141714D01*
X97018444Y-54139932D01*
X96875008Y-54133750D01*
X96901739Y-54028750D01*
X96950787Y-53915105D01*
X97032379Y-53826857D01*
X97144410Y-53765083D01*
X97284773Y-53730861D01*
X97451362Y-53725268D01*
X97489928Y-53727869D01*
X97630307Y-53752264D01*
X97739462Y-53801171D01*
X97822760Y-53877813D01*
X97872621Y-53957683D01*
X97890441Y-53994600D01*
X97903922Y-54028587D01*
X97913670Y-54066059D01*
X97920289Y-54113427D01*
X97924384Y-54177106D01*
X97926562Y-54263508D01*
X97927426Y-54379047D01*
X97927583Y-54530136D01*
X97927584Y-54540073D01*
X97927584Y-55012167D01*
X97540485Y-55012167D01*
X97401562Y-55011825D01*
X97297710Y-55010319D01*
X97221671Y-55006933D01*
X97166184Y-55000948D01*
X97123990Y-54991646D01*
X97087831Y-54978309D01*
X97058943Y-54964542D01*
X96970966Y-54897869D01*
X96908806Y-54804494D01*
X96874805Y-54692943D01*
X96873122Y-54634646D01*
X97152767Y-54634646D01*
X97174665Y-54684762D01*
X97192706Y-54708605D01*
X97215134Y-54723819D01*
X97251019Y-54732334D01*
X97309430Y-54736080D01*
X97399439Y-54736989D01*
X97420071Y-54737000D01*
X97631250Y-54737000D01*
X97631250Y-54502735D01*
X97405430Y-54508742D01*
X97179611Y-54514750D01*
X97160024Y-54573637D01*
X97152767Y-54634646D01*
X96873122Y-54634646D01*
X96871304Y-54571743D01*
X96900647Y-54449421D01*
G36*
X98087155Y-54105997D02*
G01*
X98103827Y-54018764D01*
X98130979Y-53950149D01*
X98170870Y-53892300D01*
X98225761Y-53837367D01*
X98229904Y-53833709D01*
X98327618Y-53773700D01*
X98453598Y-53736828D01*
X98599478Y-53725009D01*
X98683588Y-53729720D01*
X98816584Y-53743346D01*
X98816584Y-53297667D01*
X99112917Y-53297667D01*
X99112917Y-55012167D01*
X98800709Y-55010041D01*
X98682448Y-55007958D01*
X98572482Y-55003705D01*
X98481035Y-54997836D01*
X98418332Y-54990912D01*
X98405724Y-54988498D01*
X98285678Y-54944143D01*
X98194727Y-54871853D01*
X98130160Y-54774374D01*
X98108375Y-54727839D01*
X98093340Y-54684700D01*
X98083831Y-54635733D01*
X98078625Y-54571710D01*
X98076498Y-54483410D01*
X98076215Y-54367719D01*
X98076234Y-54366584D01*
X98372084Y-54366584D01*
X98372746Y-54467606D01*
X98375915Y-54535719D01*
X98383363Y-54580338D01*
X98396860Y-54610881D01*
X98418180Y-54636765D01*
X98424038Y-54642712D01*
X98454739Y-54669032D01*
X98489440Y-54684634D01*
X98539795Y-54692243D01*
X98617462Y-54694584D01*
X98646288Y-54694667D01*
X98816584Y-54694667D01*
X98816584Y-54418538D01*
X98816192Y-54305266D01*
X98814162Y-54226208D01*
X98809207Y-54173247D01*
X98800042Y-54138264D01*
X98785381Y-54113143D01*
X98764629Y-54090455D01*
X98724551Y-54058753D01*
X98676308Y-54043079D01*
X98603838Y-54038532D01*
X98594334Y-54038500D01*
X98518447Y-54042178D01*
X98468446Y-54056476D01*
X98428269Y-54086296D01*
X98424038Y-54090455D01*
X98400779Y-54116573D01*
X98385727Y-54145299D01*
X98377112Y-54186048D01*
X98373162Y-54248238D01*
X98372104Y-54341285D01*
X98372084Y-54366584D01*
X98076234Y-54366584D01*
X98078705Y-54219698D01*
X98087155Y-54105997D01*
G37*
X98087155Y-54105997D02*
X98103827Y-54018764D01*
X98130979Y-53950149D01*
X98170870Y-53892300D01*
X98225761Y-53837367D01*
X98229904Y-53833709D01*
X98327618Y-53773700D01*
X98453598Y-53736828D01*
X98599478Y-53725009D01*
X98683588Y-53729720D01*
X98816584Y-53743346D01*
X98816584Y-53297667D01*
X99112917Y-53297667D01*
X99112917Y-55012167D01*
X98800709Y-55010041D01*
X98682448Y-55007958D01*
X98572482Y-55003705D01*
X98481035Y-54997836D01*
X98418332Y-54990912D01*
X98405724Y-54988498D01*
X98285678Y-54944143D01*
X98194727Y-54871853D01*
X98130160Y-54774374D01*
X98108375Y-54727839D01*
X98093340Y-54684700D01*
X98083831Y-54635733D01*
X98078625Y-54571710D01*
X98076498Y-54483410D01*
X98076215Y-54367719D01*
X98076234Y-54366584D01*
X98372084Y-54366584D01*
X98372746Y-54467606D01*
X98375915Y-54535719D01*
X98383363Y-54580338D01*
X98396860Y-54610881D01*
X98418180Y-54636765D01*
X98424038Y-54642712D01*
X98454739Y-54669032D01*
X98489440Y-54684634D01*
X98539795Y-54692243D01*
X98617462Y-54694584D01*
X98646288Y-54694667D01*
X98816584Y-54694667D01*
X98816584Y-54418538D01*
X98816192Y-54305266D01*
X98814162Y-54226208D01*
X98809207Y-54173247D01*
X98800042Y-54138264D01*
X98785381Y-54113143D01*
X98764629Y-54090455D01*
X98724551Y-54058753D01*
X98676308Y-54043079D01*
X98603838Y-54038532D01*
X98594334Y-54038500D01*
X98518447Y-54042178D01*
X98468446Y-54056476D01*
X98428269Y-54086296D01*
X98424038Y-54090455D01*
X98400779Y-54116573D01*
X98385727Y-54145299D01*
X98377112Y-54186048D01*
X98373162Y-54248238D01*
X98372104Y-54341285D01*
X98372084Y-54366584D01*
X98076234Y-54366584D01*
X98078705Y-54219698D01*
X98087155Y-54105997D01*
G36*
X88339084Y-53615167D02*
G01*
X88021584Y-53615167D01*
X88021584Y-53297667D01*
X88339084Y-53297667D01*
X88339084Y-53615167D01*
G37*
X88339084Y-53615167D02*
X88021584Y-53615167D01*
X88021584Y-53297667D01*
X88339084Y-53297667D01*
X88339084Y-53615167D01*
G36*
X66434779Y-51773921D02*
G01*
X66492207Y-51803609D01*
X66579737Y-51851014D01*
X66694409Y-51914425D01*
X66833260Y-51992129D01*
X66993330Y-52082417D01*
X67171655Y-52183577D01*
X67365274Y-52293897D01*
X67571225Y-52411666D01*
X67786546Y-52535173D01*
X68008277Y-52662706D01*
X68233454Y-52792555D01*
X68459116Y-52923007D01*
X68682301Y-53052352D01*
X68900047Y-53178878D01*
X69109393Y-53300874D01*
X69307377Y-53416629D01*
X69491037Y-53524431D01*
X69657411Y-53622569D01*
X69803536Y-53709332D01*
X69926453Y-53783008D01*
X70023198Y-53841886D01*
X70090810Y-53884255D01*
X70126327Y-53908403D01*
X70131037Y-53913403D01*
X70104291Y-53932051D01*
X70048991Y-53966032D01*
X69972477Y-54011198D01*
X69882086Y-54063404D01*
X69785159Y-54118504D01*
X69689035Y-54172352D01*
X69601053Y-54220803D01*
X69528553Y-54259709D01*
X69478874Y-54284925D01*
X69459959Y-54292500D01*
X69438718Y-54282124D01*
X69383331Y-54251939D01*
X69296279Y-54203361D01*
X69180042Y-54137805D01*
X69037102Y-54056688D01*
X68869941Y-53961425D01*
X68681040Y-53853432D01*
X68472881Y-53734124D01*
X68247944Y-53604917D01*
X68008711Y-53467228D01*
X67757664Y-53322471D01*
X67586568Y-53223668D01*
X67329353Y-53075012D01*
X67082589Y-52932333D01*
X66848735Y-52797054D01*
X66630247Y-52670601D01*
X66429583Y-52554396D01*
X66249199Y-52449865D01*
X66091554Y-52358432D01*
X65959103Y-52281521D01*
X65854305Y-52220556D01*
X65779616Y-52176962D01*
X65737494Y-52152162D01*
X65728719Y-52146775D01*
X65741901Y-52133168D01*
X65785618Y-52103726D01*
X65852947Y-52062339D01*
X65936965Y-52012897D01*
X66030751Y-51959291D01*
X66127382Y-51905410D01*
X66219936Y-51855146D01*
X66301489Y-51812389D01*
X66365121Y-51781029D01*
X66403909Y-51764956D01*
X66410417Y-51763662D01*
X66434779Y-51773921D01*
G37*
X66434779Y-51773921D02*
X66492207Y-51803609D01*
X66579737Y-51851014D01*
X66694409Y-51914425D01*
X66833260Y-51992129D01*
X66993330Y-52082417D01*
X67171655Y-52183577D01*
X67365274Y-52293897D01*
X67571225Y-52411666D01*
X67786546Y-52535173D01*
X68008277Y-52662706D01*
X68233454Y-52792555D01*
X68459116Y-52923007D01*
X68682301Y-53052352D01*
X68900047Y-53178878D01*
X69109393Y-53300874D01*
X69307377Y-53416629D01*
X69491037Y-53524431D01*
X69657411Y-53622569D01*
X69803536Y-53709332D01*
X69926453Y-53783008D01*
X70023198Y-53841886D01*
X70090810Y-53884255D01*
X70126327Y-53908403D01*
X70131037Y-53913403D01*
X70104291Y-53932051D01*
X70048991Y-53966032D01*
X69972477Y-54011198D01*
X69882086Y-54063404D01*
X69785159Y-54118504D01*
X69689035Y-54172352D01*
X69601053Y-54220803D01*
X69528553Y-54259709D01*
X69478874Y-54284925D01*
X69459959Y-54292500D01*
X69438718Y-54282124D01*
X69383331Y-54251939D01*
X69296279Y-54203361D01*
X69180042Y-54137805D01*
X69037102Y-54056688D01*
X68869941Y-53961425D01*
X68681040Y-53853432D01*
X68472881Y-53734124D01*
X68247944Y-53604917D01*
X68008711Y-53467228D01*
X67757664Y-53322471D01*
X67586568Y-53223668D01*
X67329353Y-53075012D01*
X67082589Y-52932333D01*
X66848735Y-52797054D01*
X66630247Y-52670601D01*
X66429583Y-52554396D01*
X66249199Y-52449865D01*
X66091554Y-52358432D01*
X65959103Y-52281521D01*
X65854305Y-52220556D01*
X65779616Y-52176962D01*
X65737494Y-52152162D01*
X65728719Y-52146775D01*
X65741901Y-52133168D01*
X65785618Y-52103726D01*
X65852947Y-52062339D01*
X65936965Y-52012897D01*
X66030751Y-51959291D01*
X66127382Y-51905410D01*
X66219936Y-51855146D01*
X66301489Y-51812389D01*
X66365121Y-51781029D01*
X66403909Y-51764956D01*
X66410417Y-51763662D01*
X66434779Y-51773921D01*
G36*
X70180693Y-53995078D02*
G01*
X70183858Y-54050955D01*
X70186369Y-54136100D01*
X70188035Y-54243981D01*
X70188666Y-54368064D01*
X70188667Y-54373310D01*
X70188667Y-54771619D01*
X69851020Y-54965976D01*
X69743396Y-55027581D01*
X69648677Y-55081143D01*
X69572834Y-55123336D01*
X69521842Y-55150838D01*
X69501770Y-55160334D01*
X69498140Y-55140256D01*
X69494975Y-55084378D01*
X69492464Y-54999233D01*
X69490798Y-54891353D01*
X69490167Y-54767270D01*
X69490167Y-54363714D01*
X69827813Y-54169357D01*
X69935437Y-54107752D01*
X70030156Y-54054191D01*
X70105999Y-54011998D01*
X70156991Y-53984496D01*
X70177063Y-53975000D01*
X70180693Y-53995078D01*
G37*
X70180693Y-53995078D02*
X70183858Y-54050955D01*
X70186369Y-54136100D01*
X70188035Y-54243981D01*
X70188666Y-54368064D01*
X70188667Y-54373310D01*
X70188667Y-54771619D01*
X69851020Y-54965976D01*
X69743396Y-55027581D01*
X69648677Y-55081143D01*
X69572834Y-55123336D01*
X69521842Y-55150838D01*
X69501770Y-55160334D01*
X69498140Y-55140256D01*
X69494975Y-55084378D01*
X69492464Y-54999233D01*
X69490798Y-54891353D01*
X69490167Y-54767270D01*
X69490167Y-54363714D01*
X69827813Y-54169357D01*
X69935437Y-54107752D01*
X70030156Y-54054191D01*
X70105999Y-54011998D01*
X70156991Y-53984496D01*
X70177063Y-53975000D01*
X70180693Y-53995078D01*
G36*
X65729548Y-52233246D02*
G01*
X65785498Y-52264372D01*
X65873099Y-52313856D01*
X65989858Y-52380271D01*
X66133284Y-52462187D01*
X66300884Y-52558178D01*
X66490166Y-52666813D01*
X66698640Y-52786667D01*
X66923812Y-52916309D01*
X67163191Y-53054312D01*
X67414285Y-53199248D01*
X67580989Y-53295568D01*
X69426667Y-54362385D01*
X69426667Y-54761359D01*
X69425868Y-54885982D01*
X69423646Y-54994590D01*
X69420259Y-55080679D01*
X69415967Y-55137744D01*
X69411030Y-55159281D01*
X69410792Y-55159311D01*
X69388274Y-55148732D01*
X69335474Y-55119983D01*
X69258506Y-55076512D01*
X69163483Y-55021770D01*
X69066833Y-54965275D01*
X68951337Y-54897596D01*
X68803346Y-54811304D01*
X68627087Y-54708843D01*
X68426791Y-54592658D01*
X68206687Y-54465191D01*
X67971004Y-54328888D01*
X67723971Y-54186191D01*
X67469818Y-54039545D01*
X67212773Y-53891393D01*
X66957066Y-53744180D01*
X66706926Y-53600349D01*
X66466582Y-53462344D01*
X66382440Y-53414084D01*
X65681051Y-53011917D01*
X65680609Y-52613490D01*
X65681008Y-52469783D01*
X65682786Y-52363732D01*
X65686266Y-52290673D01*
X65691770Y-52245942D01*
X65699623Y-52224875D01*
X65707739Y-52221906D01*
X65729548Y-52233246D01*
G37*
X65729548Y-52233246D02*
X65785498Y-52264372D01*
X65873099Y-52313856D01*
X65989858Y-52380271D01*
X66133284Y-52462187D01*
X66300884Y-52558178D01*
X66490166Y-52666813D01*
X66698640Y-52786667D01*
X66923812Y-52916309D01*
X67163191Y-53054312D01*
X67414285Y-53199248D01*
X67580989Y-53295568D01*
X69426667Y-54362385D01*
X69426667Y-54761359D01*
X69425868Y-54885982D01*
X69423646Y-54994590D01*
X69420259Y-55080679D01*
X69415967Y-55137744D01*
X69411030Y-55159281D01*
X69410792Y-55159311D01*
X69388274Y-55148732D01*
X69335474Y-55119983D01*
X69258506Y-55076512D01*
X69163483Y-55021770D01*
X69066833Y-54965275D01*
X68951337Y-54897596D01*
X68803346Y-54811304D01*
X68627087Y-54708843D01*
X68426791Y-54592658D01*
X68206687Y-54465191D01*
X67971004Y-54328888D01*
X67723971Y-54186191D01*
X67469818Y-54039545D01*
X67212773Y-53891393D01*
X66957066Y-53744180D01*
X66706926Y-53600349D01*
X66466582Y-53462344D01*
X66382440Y-53414084D01*
X65681051Y-53011917D01*
X65680609Y-52613490D01*
X65681008Y-52469783D01*
X65682786Y-52363732D01*
X65686266Y-52290673D01*
X65691770Y-52245942D01*
X65699623Y-52224875D01*
X65707739Y-52221906D01*
X65729548Y-52233246D01*
G36*
X68008028Y-54429670D02*
G01*
X68061749Y-54457916D01*
X68139615Y-54500840D01*
X68235456Y-54555047D01*
X68333872Y-54611771D01*
X68664667Y-54804042D01*
X68664487Y-54934563D01*
X68664308Y-55065084D01*
X68334936Y-55255584D01*
X68228000Y-55317202D01*
X68133331Y-55371313D01*
X68057175Y-55414384D01*
X68005775Y-55442881D01*
X67985865Y-55453139D01*
X67979788Y-55434941D01*
X67974648Y-55378239D01*
X67970594Y-55286855D01*
X67967772Y-55164613D01*
X67966328Y-55015335D01*
X67966167Y-54939847D01*
X67966883Y-54796470D01*
X67968899Y-54668215D01*
X67972011Y-54560798D01*
X67976016Y-54479933D01*
X67980711Y-54431336D01*
X67984622Y-54419500D01*
X68008028Y-54429670D01*
G37*
X68008028Y-54429670D02*
X68061749Y-54457916D01*
X68139615Y-54500840D01*
X68235456Y-54555047D01*
X68333872Y-54611771D01*
X68664667Y-54804042D01*
X68664487Y-54934563D01*
X68664308Y-55065084D01*
X68334936Y-55255584D01*
X68228000Y-55317202D01*
X68133331Y-55371313D01*
X68057175Y-55414384D01*
X68005775Y-55442881D01*
X67985865Y-55453139D01*
X67979788Y-55434941D01*
X67974648Y-55378239D01*
X67970594Y-55286855D01*
X67967772Y-55164613D01*
X67966328Y-55015335D01*
X67966167Y-54939847D01*
X67966883Y-54796470D01*
X67968899Y-54668215D01*
X67972011Y-54560798D01*
X67976016Y-54479933D01*
X67980711Y-54431336D01*
X67984622Y-54419500D01*
X68008028Y-54429670D01*
G36*
X71249580Y-55426403D02*
G01*
X71300871Y-55452064D01*
X71374279Y-55491338D01*
X71462809Y-55540227D01*
X71559465Y-55594734D01*
X71657253Y-55650863D01*
X71749176Y-55704616D01*
X71828240Y-55751996D01*
X71887448Y-55789007D01*
X71919805Y-55811651D01*
X71923747Y-55816220D01*
X71905715Y-55830299D01*
X71855002Y-55862266D01*
X71775990Y-55909553D01*
X71673061Y-55969592D01*
X71550598Y-56039815D01*
X71412982Y-56117654D01*
X71330816Y-56163678D01*
X71234715Y-56217322D01*
X70918066Y-56035539D01*
X70812406Y-55974365D01*
X70718646Y-55919109D01*
X70643387Y-55873737D01*
X70593229Y-55842217D01*
X70575817Y-55829837D01*
X70575193Y-55815715D01*
X70597444Y-55792209D01*
X70645941Y-55756949D01*
X70724054Y-55707561D01*
X70835151Y-55641676D01*
X70880479Y-55615417D01*
X70987349Y-55553934D01*
X71081684Y-55499969D01*
X71157313Y-55457028D01*
X71208064Y-55428616D01*
X71227402Y-55418351D01*
X71249580Y-55426403D01*
G37*
X71249580Y-55426403D02*
X71300871Y-55452064D01*
X71374279Y-55491338D01*
X71462809Y-55540227D01*
X71559465Y-55594734D01*
X71657253Y-55650863D01*
X71749176Y-55704616D01*
X71828240Y-55751996D01*
X71887448Y-55789007D01*
X71919805Y-55811651D01*
X71923747Y-55816220D01*
X71905715Y-55830299D01*
X71855002Y-55862266D01*
X71775990Y-55909553D01*
X71673061Y-55969592D01*
X71550598Y-56039815D01*
X71412982Y-56117654D01*
X71330816Y-56163678D01*
X71234715Y-56217322D01*
X70918066Y-56035539D01*
X70812406Y-55974365D01*
X70718646Y-55919109D01*
X70643387Y-55873737D01*
X70593229Y-55842217D01*
X70575817Y-55829837D01*
X70575193Y-55815715D01*
X70597444Y-55792209D01*
X70645941Y-55756949D01*
X70724054Y-55707561D01*
X70835151Y-55641676D01*
X70880479Y-55615417D01*
X70987349Y-55553934D01*
X71081684Y-55499969D01*
X71157313Y-55457028D01*
X71208064Y-55428616D01*
X71227402Y-55418351D01*
X71249580Y-55426403D01*
G36*
X67128368Y-55753044D02*
G01*
X67133434Y-55806471D01*
X67137388Y-55889053D01*
X67139904Y-55994202D01*
X67140667Y-56100486D01*
X67139948Y-56241403D01*
X67137581Y-56344419D01*
X67133251Y-56413946D01*
X67126642Y-56454394D01*
X67117440Y-56470176D01*
X67114208Y-56470767D01*
X67087589Y-56459846D01*
X67031576Y-56430975D01*
X66953113Y-56387926D01*
X66859142Y-56334465D01*
X66803974Y-56302349D01*
X66704996Y-56243816D01*
X66618693Y-56191922D01*
X66551818Y-56150797D01*
X66511125Y-56124567D01*
X66502395Y-56118029D01*
X66515287Y-56103880D01*
X66557887Y-56072856D01*
X66623245Y-56029247D01*
X66704406Y-55977343D01*
X66794417Y-55921435D01*
X66886327Y-55865814D01*
X66973182Y-55814769D01*
X67048030Y-55772592D01*
X67103917Y-55743573D01*
X67122518Y-55735361D01*
X67128368Y-55753044D01*
G37*
X67128368Y-55753044D02*
X67133434Y-55806471D01*
X67137388Y-55889053D01*
X67139904Y-55994202D01*
X67140667Y-56100486D01*
X67139948Y-56241403D01*
X67137581Y-56344419D01*
X67133251Y-56413946D01*
X67126642Y-56454394D01*
X67117440Y-56470176D01*
X67114208Y-56470767D01*
X67087589Y-56459846D01*
X67031576Y-56430975D01*
X66953113Y-56387926D01*
X66859142Y-56334465D01*
X66803974Y-56302349D01*
X66704996Y-56243816D01*
X66618693Y-56191922D01*
X66551818Y-56150797D01*
X66511125Y-56124567D01*
X66502395Y-56118029D01*
X66515287Y-56103880D01*
X66557887Y-56072856D01*
X66623245Y-56029247D01*
X66704406Y-55977343D01*
X66794417Y-55921435D01*
X66886327Y-55865814D01*
X66973182Y-55814769D01*
X67048030Y-55772592D01*
X67103917Y-55743573D01*
X67122518Y-55735361D01*
X67128368Y-55753044D01*
G36*
X68719551Y-55138861D02*
G01*
X68774735Y-55168308D01*
X68859143Y-55214845D01*
X68969080Y-55276393D01*
X69100849Y-55350872D01*
X69250756Y-55436204D01*
X69415105Y-55530309D01*
X69580993Y-55625795D01*
X70442667Y-56123006D01*
X70442667Y-56520087D01*
X70441864Y-56644446D01*
X70439631Y-56752822D01*
X70436229Y-56838682D01*
X70431920Y-56895493D01*
X70426964Y-56916721D01*
X70426792Y-56916740D01*
X70406196Y-56906357D01*
X70352042Y-56876530D01*
X70267413Y-56829015D01*
X70155394Y-56765569D01*
X70019067Y-56687951D01*
X69861516Y-56597916D01*
X69685824Y-56497222D01*
X69495076Y-56387626D01*
X69292354Y-56270884D01*
X69210252Y-56223532D01*
X69004052Y-56104397D01*
X68809045Y-55991425D01*
X68628267Y-55886392D01*
X68464755Y-55791078D01*
X68321546Y-55707263D01*
X68201677Y-55636725D01*
X68108185Y-55581244D01*
X68044107Y-55542598D01*
X68012479Y-55522566D01*
X68009594Y-55520167D01*
X68026996Y-55506297D01*
X68074500Y-55476135D01*
X68145061Y-55433693D01*
X68231632Y-55382983D01*
X68327170Y-55328016D01*
X68424629Y-55272804D01*
X68516964Y-55221358D01*
X68597129Y-55177691D01*
X68658080Y-55145813D01*
X68692771Y-55129737D01*
X68697285Y-55128584D01*
X68719551Y-55138861D01*
G37*
X68719551Y-55138861D02*
X68774735Y-55168308D01*
X68859143Y-55214845D01*
X68969080Y-55276393D01*
X69100849Y-55350872D01*
X69250756Y-55436204D01*
X69415105Y-55530309D01*
X69580993Y-55625795D01*
X70442667Y-56123006D01*
X70442667Y-56520087D01*
X70441864Y-56644446D01*
X70439631Y-56752822D01*
X70436229Y-56838682D01*
X70431920Y-56895493D01*
X70426964Y-56916721D01*
X70426792Y-56916740D01*
X70406196Y-56906357D01*
X70352042Y-56876530D01*
X70267413Y-56829015D01*
X70155394Y-56765569D01*
X70019067Y-56687951D01*
X69861516Y-56597916D01*
X69685824Y-56497222D01*
X69495076Y-56387626D01*
X69292354Y-56270884D01*
X69210252Y-56223532D01*
X69004052Y-56104397D01*
X68809045Y-55991425D01*
X68628267Y-55886392D01*
X68464755Y-55791078D01*
X68321546Y-55707263D01*
X68201677Y-55636725D01*
X68108185Y-55581244D01*
X68044107Y-55542598D01*
X68012479Y-55522566D01*
X68009594Y-55520167D01*
X68026996Y-55506297D01*
X68074500Y-55476135D01*
X68145061Y-55433693D01*
X68231632Y-55382983D01*
X68327170Y-55328016D01*
X68424629Y-55272804D01*
X68516964Y-55221358D01*
X68597129Y-55177691D01*
X68658080Y-55145813D01*
X68692771Y-55129737D01*
X68697285Y-55128584D01*
X68719551Y-55138861D01*
G36*
X72536908Y-56168647D02*
G01*
X72553714Y-56174744D01*
X72615593Y-56205561D01*
X72695234Y-56249007D01*
X72785854Y-56300932D01*
X72880673Y-56357182D01*
X72972906Y-56413605D01*
X73055773Y-56466048D01*
X73122490Y-56510359D01*
X73166276Y-56542385D01*
X73180348Y-56557975D01*
X73180130Y-56558268D01*
X73152655Y-56577737D01*
X73096748Y-56612447D01*
X73019769Y-56658226D01*
X72929079Y-56710899D01*
X72832039Y-56766291D01*
X72736008Y-56820229D01*
X72648346Y-56868539D01*
X72576415Y-56907046D01*
X72527574Y-56931576D01*
X72509965Y-56938334D01*
X72483917Y-56928226D01*
X72427853Y-56900215D01*
X72348297Y-56857766D01*
X72251778Y-56804346D01*
X72167227Y-56756322D01*
X72062294Y-56695710D01*
X71969950Y-56641693D01*
X71896573Y-56598056D01*
X71848541Y-56568583D01*
X71832686Y-56557782D01*
X71844530Y-56542672D01*
X71888018Y-56510539D01*
X71957772Y-56464898D01*
X72048419Y-56409262D01*
X72154581Y-56347146D01*
X72157248Y-56345620D01*
X72278527Y-56276717D01*
X72369019Y-56226847D01*
X72434414Y-56193556D01*
X72480401Y-56174395D01*
X72512669Y-56166909D01*
X72536908Y-56168647D01*
G37*
X72536908Y-56168647D02*
X72553714Y-56174744D01*
X72615593Y-56205561D01*
X72695234Y-56249007D01*
X72785854Y-56300932D01*
X72880673Y-56357182D01*
X72972906Y-56413605D01*
X73055773Y-56466048D01*
X73122490Y-56510359D01*
X73166276Y-56542385D01*
X73180348Y-56557975D01*
X73180130Y-56558268D01*
X73152655Y-56577737D01*
X73096748Y-56612447D01*
X73019769Y-56658226D01*
X72929079Y-56710899D01*
X72832039Y-56766291D01*
X72736008Y-56820229D01*
X72648346Y-56868539D01*
X72576415Y-56907046D01*
X72527574Y-56931576D01*
X72509965Y-56938334D01*
X72483917Y-56928226D01*
X72427853Y-56900215D01*
X72348297Y-56857766D01*
X72251778Y-56804346D01*
X72167227Y-56756322D01*
X72062294Y-56695710D01*
X71969950Y-56641693D01*
X71896573Y-56598056D01*
X71848541Y-56568583D01*
X71832686Y-56557782D01*
X71844530Y-56542672D01*
X71888018Y-56510539D01*
X71957772Y-56464898D01*
X72048419Y-56409262D01*
X72154581Y-56347146D01*
X72157248Y-56345620D01*
X72278527Y-56276717D01*
X72369019Y-56226847D01*
X72434414Y-56193556D01*
X72480401Y-56174395D01*
X72512669Y-56166909D01*
X72536908Y-56168647D01*
G36*
X71966667Y-56386341D02*
G01*
X71839918Y-56455962D01*
X71713169Y-56525584D01*
X71712918Y-56822387D01*
X71712667Y-57119191D01*
X71503900Y-57240429D01*
X71419826Y-57288589D01*
X71349389Y-57327688D01*
X71300457Y-57353441D01*
X71281293Y-57361667D01*
X71277772Y-57341434D01*
X71275013Y-57284457D01*
X71273099Y-57196322D01*
X71272115Y-57082614D01*
X71272145Y-56948916D01*
X71273101Y-56816876D01*
X71278750Y-56272085D01*
X71543333Y-56117624D01*
X71645452Y-56058308D01*
X71741362Y-56003141D01*
X71821812Y-55957405D01*
X71877551Y-55926386D01*
X71887292Y-55921151D01*
X71966667Y-55879140D01*
X71966667Y-56386341D01*
G37*
X71966667Y-56386341D02*
X71839918Y-56455962D01*
X71713169Y-56525584D01*
X71712918Y-56822387D01*
X71712667Y-57119191D01*
X71503900Y-57240429D01*
X71419826Y-57288589D01*
X71349389Y-57327688D01*
X71300457Y-57353441D01*
X71281293Y-57361667D01*
X71277772Y-57341434D01*
X71275013Y-57284457D01*
X71273099Y-57196322D01*
X71272115Y-57082614D01*
X71272145Y-56948916D01*
X71273101Y-56816876D01*
X71278750Y-56272085D01*
X71543333Y-56117624D01*
X71645452Y-56058308D01*
X71741362Y-56003141D01*
X71821812Y-55957405D01*
X71877551Y-55926386D01*
X71887292Y-55921151D01*
X71966667Y-55879140D01*
X71966667Y-56386341D01*
G36*
X70545939Y-55895876D02*
G01*
X70599416Y-55925850D01*
X70677241Y-55969956D01*
X70773242Y-56024698D01*
X70871678Y-56081084D01*
X71203565Y-56271584D01*
X71204116Y-56816625D01*
X71203675Y-56963447D01*
X71202149Y-57095209D01*
X71199695Y-57206345D01*
X71196470Y-57291284D01*
X71192631Y-57344458D01*
X71188792Y-57360552D01*
X71166263Y-57350010D01*
X71113333Y-57321397D01*
X71036082Y-57278117D01*
X70940592Y-57223574D01*
X70839542Y-57165024D01*
X70506167Y-56970609D01*
X70506167Y-56423541D01*
X70506787Y-56276822D01*
X70508534Y-56145507D01*
X70511236Y-56035073D01*
X70514725Y-55950999D01*
X70518828Y-55898764D01*
X70522979Y-55883528D01*
X70545939Y-55895876D01*
G37*
X70545939Y-55895876D02*
X70599416Y-55925850D01*
X70677241Y-55969956D01*
X70773242Y-56024698D01*
X70871678Y-56081084D01*
X71203565Y-56271584D01*
X71204116Y-56816625D01*
X71203675Y-56963447D01*
X71202149Y-57095209D01*
X71199695Y-57206345D01*
X71196470Y-57291284D01*
X71192631Y-57344458D01*
X71188792Y-57360552D01*
X71166263Y-57350010D01*
X71113333Y-57321397D01*
X71036082Y-57278117D01*
X70940592Y-57223574D01*
X70839542Y-57165024D01*
X70506167Y-56970609D01*
X70506167Y-56423541D01*
X70506787Y-56276822D01*
X70508534Y-56145507D01*
X70511236Y-56035073D01*
X70514725Y-55950999D01*
X70518828Y-55898764D01*
X70522979Y-55883528D01*
X70545939Y-55895876D01*
G36*
X71703132Y-57214498D02*
G01*
X71708268Y-57264933D01*
X71711630Y-57341467D01*
X71712667Y-57423918D01*
X71711329Y-57517549D01*
X71707703Y-57593057D01*
X71702362Y-57641999D01*
X71696792Y-57656400D01*
X71673042Y-57645475D01*
X71621498Y-57617250D01*
X71550540Y-57576415D01*
X71492912Y-57542304D01*
X71409161Y-57491770D01*
X71357035Y-57457906D01*
X71331774Y-57435743D01*
X71328619Y-57420312D01*
X71342810Y-57406644D01*
X71355329Y-57398667D01*
X71394834Y-57374840D01*
X71455996Y-57338551D01*
X71527627Y-57296367D01*
X71598543Y-57254849D01*
X71657559Y-57220563D01*
X71693490Y-57200073D01*
X71696792Y-57198277D01*
X71703132Y-57214498D01*
G37*
X71703132Y-57214498D02*
X71708268Y-57264933D01*
X71711630Y-57341467D01*
X71712667Y-57423918D01*
X71711329Y-57517549D01*
X71707703Y-57593057D01*
X71702362Y-57641999D01*
X71696792Y-57656400D01*
X71673042Y-57645475D01*
X71621498Y-57617250D01*
X71550540Y-57576415D01*
X71492912Y-57542304D01*
X71409161Y-57491770D01*
X71357035Y-57457906D01*
X71331774Y-57435743D01*
X71328619Y-57420312D01*
X71342810Y-57406644D01*
X71355329Y-57398667D01*
X71394834Y-57374840D01*
X71455996Y-57338551D01*
X71527627Y-57296367D01*
X71598543Y-57254849D01*
X71657559Y-57220563D01*
X71693490Y-57200073D01*
X71696792Y-57198277D01*
X71703132Y-57214498D01*
G36*
X73228377Y-56641069D02*
G01*
X73231055Y-56698053D01*
X73233272Y-56786201D01*
X73234918Y-56899928D01*
X73235884Y-57033651D01*
X73236081Y-57165875D01*
X73235495Y-57710917D01*
X72987372Y-57852392D01*
X72884954Y-57910698D01*
X72785984Y-57966879D01*
X72701305Y-58014791D01*
X72641756Y-58048291D01*
X72638708Y-58049994D01*
X72538167Y-58106119D01*
X72538167Y-57011856D01*
X72876098Y-56816345D01*
X72983682Y-56754440D01*
X73078359Y-56700605D01*
X73154177Y-56658172D01*
X73205184Y-56630473D01*
X73225348Y-56620834D01*
X73228377Y-56641069D01*
G37*
X73228377Y-56641069D02*
X73231055Y-56698053D01*
X73233272Y-56786201D01*
X73234918Y-56899928D01*
X73235884Y-57033651D01*
X73236081Y-57165875D01*
X73235495Y-57710917D01*
X72987372Y-57852392D01*
X72884954Y-57910698D01*
X72785984Y-57966879D01*
X72701305Y-58014791D01*
X72641756Y-58048291D01*
X72638708Y-58049994D01*
X72538167Y-58106119D01*
X72538167Y-57011856D01*
X72876098Y-56816345D01*
X72983682Y-56754440D01*
X73078359Y-56700605D01*
X73154177Y-56658172D01*
X73205184Y-56630473D01*
X73225348Y-56620834D01*
X73228377Y-56641069D01*
G36*
X71809785Y-56630890D02*
G01*
X71861964Y-56658843D01*
X71938753Y-56701365D01*
X72034141Y-56755129D01*
X72137832Y-56814346D01*
X72474667Y-57007859D01*
X72474667Y-57555180D01*
X72474471Y-57702369D01*
X72473920Y-57834552D01*
X72473067Y-57946163D01*
X72471967Y-58031635D01*
X72470673Y-58085399D01*
X72469375Y-58102078D01*
X72450275Y-58091888D01*
X72400359Y-58063809D01*
X72325451Y-58021158D01*
X72231376Y-57967249D01*
X72125417Y-57906242D01*
X71786750Y-57710828D01*
X71781101Y-57165831D01*
X71780053Y-57018949D01*
X71780021Y-56887057D01*
X71780933Y-56775739D01*
X71782715Y-56690578D01*
X71785295Y-56637158D01*
X71788224Y-56620834D01*
X71809785Y-56630890D01*
G37*
X71809785Y-56630890D02*
X71861964Y-56658843D01*
X71938753Y-56701365D01*
X72034141Y-56755129D01*
X72137832Y-56814346D01*
X72474667Y-57007859D01*
X72474667Y-57555180D01*
X72474471Y-57702369D01*
X72473920Y-57834552D01*
X72473067Y-57946163D01*
X72471967Y-58031635D01*
X72470673Y-58085399D01*
X72469375Y-58102078D01*
X72450275Y-58091888D01*
X72400359Y-58063809D01*
X72325451Y-58021158D01*
X72231376Y-57967249D01*
X72125417Y-57906242D01*
X71786750Y-57710828D01*
X71781101Y-57165831D01*
X71780053Y-57018949D01*
X71780021Y-56887057D01*
X71780933Y-56775739D01*
X71782715Y-56690578D01*
X71785295Y-56637158D01*
X71788224Y-56620834D01*
X71809785Y-56630890D01*
G36*
X68654083Y-56851723D02*
G01*
X68659245Y-57281320D01*
X68664408Y-57710917D01*
X68458649Y-57827334D01*
X68355891Y-57885461D01*
X68248563Y-57946154D01*
X68152778Y-58000302D01*
X68109528Y-58024742D01*
X67966167Y-58105733D01*
X67966167Y-56453111D01*
X68654083Y-56851723D01*
G37*
X68654083Y-56851723D02*
X68659245Y-57281320D01*
X68664408Y-57710917D01*
X68458649Y-57827334D01*
X68355891Y-57885461D01*
X68248563Y-57946154D01*
X68152778Y-58000302D01*
X68109528Y-58024742D01*
X67966167Y-58105733D01*
X67966167Y-56453111D01*
X68654083Y-56851723D01*
G36*
X67239376Y-53985080D02*
G01*
X67291718Y-54013095D01*
X67368603Y-54055705D01*
X67464002Y-54109570D01*
X67566856Y-54168454D01*
X67902667Y-54361907D01*
X67902667Y-56232204D01*
X67902608Y-56509548D01*
X67902438Y-56774469D01*
X67902166Y-57023953D01*
X67901799Y-57254984D01*
X67901347Y-57464548D01*
X67900818Y-57649631D01*
X67900220Y-57807217D01*
X67899562Y-57934293D01*
X67898852Y-58027844D01*
X67898099Y-58084856D01*
X67897375Y-58102443D01*
X67878304Y-58092334D01*
X67828354Y-58064221D01*
X67753248Y-58021370D01*
X67658706Y-57967048D01*
X67550453Y-57904519D01*
X67542833Y-57900107D01*
X67193583Y-57697828D01*
X66817875Y-57045847D01*
X66718371Y-56872868D01*
X66638123Y-56732295D01*
X66575072Y-56619958D01*
X66527158Y-56531687D01*
X66492322Y-56463312D01*
X66468505Y-56410665D01*
X66453647Y-56369575D01*
X66445689Y-56335871D01*
X66442572Y-56305386D01*
X66442167Y-56285100D01*
X66443766Y-56223753D01*
X66447866Y-56184311D01*
X66451285Y-56176334D01*
X66471598Y-56186416D01*
X66522705Y-56214484D01*
X66598791Y-56257265D01*
X66694042Y-56311488D01*
X66802640Y-56373883D01*
X66808764Y-56377417D01*
X66919004Y-56440365D01*
X67017394Y-56495251D01*
X67097822Y-56538770D01*
X67154175Y-56567617D01*
X67180340Y-56578486D01*
X67180645Y-56578500D01*
X67185894Y-56565014D01*
X67190410Y-56523384D01*
X67194225Y-56451850D01*
X67197370Y-56348652D01*
X67199877Y-56212031D01*
X67201779Y-56040227D01*
X67203106Y-55831481D01*
X67203891Y-55584034D01*
X67204166Y-55296125D01*
X67204167Y-55276750D01*
X67204379Y-55046331D01*
X67204991Y-54828932D01*
X67205965Y-54628168D01*
X67207265Y-54447652D01*
X67208852Y-54290997D01*
X67210690Y-54161817D01*
X67212742Y-54063726D01*
X67214969Y-54000337D01*
X67217334Y-53975264D01*
X67217606Y-53975000D01*
X67239376Y-53985080D01*
G37*
X67239376Y-53985080D02*
X67291718Y-54013095D01*
X67368603Y-54055705D01*
X67464002Y-54109570D01*
X67566856Y-54168454D01*
X67902667Y-54361907D01*
X67902667Y-56232204D01*
X67902608Y-56509548D01*
X67902438Y-56774469D01*
X67902166Y-57023953D01*
X67901799Y-57254984D01*
X67901347Y-57464548D01*
X67900818Y-57649631D01*
X67900220Y-57807217D01*
X67899562Y-57934293D01*
X67898852Y-58027844D01*
X67898099Y-58084856D01*
X67897375Y-58102443D01*
X67878304Y-58092334D01*
X67828354Y-58064221D01*
X67753248Y-58021370D01*
X67658706Y-57967048D01*
X67550453Y-57904519D01*
X67542833Y-57900107D01*
X67193583Y-57697828D01*
X66817875Y-57045847D01*
X66718371Y-56872868D01*
X66638123Y-56732295D01*
X66575072Y-56619958D01*
X66527158Y-56531687D01*
X66492322Y-56463312D01*
X66468505Y-56410665D01*
X66453647Y-56369575D01*
X66445689Y-56335871D01*
X66442572Y-56305386D01*
X66442167Y-56285100D01*
X66443766Y-56223753D01*
X66447866Y-56184311D01*
X66451285Y-56176334D01*
X66471598Y-56186416D01*
X66522705Y-56214484D01*
X66598791Y-56257265D01*
X66694042Y-56311488D01*
X66802640Y-56373883D01*
X66808764Y-56377417D01*
X66919004Y-56440365D01*
X67017394Y-56495251D01*
X67097822Y-56538770D01*
X67154175Y-56567617D01*
X67180340Y-56578486D01*
X67180645Y-56578500D01*
X67185894Y-56565014D01*
X67190410Y-56523384D01*
X67194225Y-56451850D01*
X67197370Y-56348652D01*
X67199877Y-56212031D01*
X67201779Y-56040227D01*
X67203106Y-55831481D01*
X67203891Y-55584034D01*
X67204166Y-55296125D01*
X67204167Y-55276750D01*
X67204379Y-55046331D01*
X67204991Y-54828932D01*
X67205965Y-54628168D01*
X67207265Y-54447652D01*
X67208852Y-54290997D01*
X67210690Y-54161817D01*
X67212742Y-54063726D01*
X67214969Y-54000337D01*
X67217334Y-53975264D01*
X67217606Y-53975000D01*
X67239376Y-53985080D01*
G36*
X73307548Y-57792110D02*
G01*
X73376739Y-57824591D01*
X73473794Y-57876248D01*
X73602438Y-57948846D01*
X73615076Y-57956112D01*
X73722546Y-58018602D01*
X73816074Y-58074186D01*
X73889947Y-58119369D01*
X73938450Y-58150656D01*
X73955871Y-58164552D01*
X73955871Y-58164566D01*
X73951472Y-58170621D01*
X73936116Y-58182125D01*
X73906093Y-58201258D01*
X73857693Y-58230201D01*
X73787208Y-58271132D01*
X73690928Y-58326233D01*
X73565143Y-58397683D01*
X73406177Y-58487645D01*
X73267797Y-58565874D01*
X72943202Y-58378640D01*
X72836900Y-58316887D01*
X72743018Y-58261526D01*
X72667877Y-58216348D01*
X72617795Y-58185147D01*
X72599642Y-58172442D01*
X72611798Y-58157497D01*
X72654317Y-58125698D01*
X72720724Y-58081050D01*
X72804544Y-58027560D01*
X72899303Y-57969233D01*
X72998525Y-57910074D01*
X73095737Y-57854089D01*
X73184462Y-57805282D01*
X73237861Y-57777630D01*
X73262497Y-57777044D01*
X73307548Y-57792110D01*
G37*
X73307548Y-57792110D02*
X73376739Y-57824591D01*
X73473794Y-57876248D01*
X73602438Y-57948846D01*
X73615076Y-57956112D01*
X73722546Y-58018602D01*
X73816074Y-58074186D01*
X73889947Y-58119369D01*
X73938450Y-58150656D01*
X73955871Y-58164552D01*
X73955871Y-58164566D01*
X73951472Y-58170621D01*
X73936116Y-58182125D01*
X73906093Y-58201258D01*
X73857693Y-58230201D01*
X73787208Y-58271132D01*
X73690928Y-58326233D01*
X73565143Y-58397683D01*
X73406177Y-58487645D01*
X73267797Y-58565874D01*
X72943202Y-58378640D01*
X72836900Y-58316887D01*
X72743018Y-58261526D01*
X72667877Y-58216348D01*
X72617795Y-58185147D01*
X72599642Y-58172442D01*
X72611798Y-58157497D01*
X72654317Y-58125698D01*
X72720724Y-58081050D01*
X72804544Y-58027560D01*
X72899303Y-57969233D01*
X72998525Y-57910074D01*
X73095737Y-57854089D01*
X73184462Y-57805282D01*
X73237861Y-57777630D01*
X73262497Y-57777044D01*
X73307548Y-57792110D01*
G36*
X73998667Y-59028885D02*
G01*
X73663165Y-59221859D01*
X73555682Y-59283255D01*
X73460898Y-59336587D01*
X73384865Y-59378516D01*
X73333635Y-59405703D01*
X73313448Y-59414834D01*
X73309281Y-59394764D01*
X73306207Y-59338922D01*
X73304366Y-59253858D01*
X73303898Y-59146121D01*
X73304944Y-59022263D01*
X73304991Y-59018958D01*
X73310750Y-58623083D01*
X73518630Y-58500570D01*
X73619797Y-58441336D01*
X73724283Y-58380807D01*
X73816991Y-58327699D01*
X73862588Y-58301956D01*
X73998667Y-58225857D01*
X73998667Y-59028885D01*
G37*
X73998667Y-59028885D02*
X73663165Y-59221859D01*
X73555682Y-59283255D01*
X73460898Y-59336587D01*
X73384865Y-59378516D01*
X73333635Y-59405703D01*
X73313448Y-59414834D01*
X73309281Y-59394764D01*
X73306207Y-59338922D01*
X73304366Y-59253858D01*
X73303898Y-59146121D01*
X73304944Y-59022263D01*
X73304991Y-59018958D01*
X73310750Y-58623083D01*
X73518630Y-58500570D01*
X73619797Y-58441336D01*
X73724283Y-58380807D01*
X73816991Y-58327699D01*
X73862588Y-58301956D01*
X73998667Y-58225857D01*
X73998667Y-59028885D01*
G36*
X68001909Y-55601427D02*
G01*
X68008096Y-55604618D01*
X68033237Y-55618852D01*
X68091858Y-55652475D01*
X68180805Y-55703667D01*
X68296923Y-55770605D01*
X68437055Y-55851470D01*
X68598047Y-55944439D01*
X68776743Y-56047691D01*
X68969988Y-56159406D01*
X69174626Y-56277762D01*
X69262221Y-56328441D01*
X69490962Y-56460778D01*
X69725331Y-56596346D01*
X69959993Y-56732059D01*
X70189615Y-56864835D01*
X70408860Y-56991589D01*
X70612395Y-57109237D01*
X70794885Y-57214694D01*
X70950996Y-57304877D01*
X71067083Y-57371905D01*
X71236030Y-57469441D01*
X71415421Y-57573043D01*
X71595997Y-57677361D01*
X71768497Y-57777045D01*
X71923660Y-57866744D01*
X72052226Y-57941107D01*
X72061917Y-57946714D01*
X72213999Y-58034585D01*
X72385711Y-58133573D01*
X72562371Y-58235228D01*
X72729296Y-58331099D01*
X72849994Y-58400263D01*
X73235906Y-58621084D01*
X73236286Y-59017959D01*
X73235603Y-59142233D01*
X73233473Y-59250475D01*
X73230153Y-59336163D01*
X73225897Y-59392776D01*
X73220962Y-59413793D01*
X73220792Y-59413804D01*
X73200931Y-59403275D01*
X73146502Y-59372724D01*
X73059572Y-59323342D01*
X72942207Y-59256316D01*
X72796476Y-59172836D01*
X72624447Y-59074092D01*
X72428186Y-58961272D01*
X72209761Y-58835565D01*
X71971239Y-58698162D01*
X71714689Y-58550250D01*
X71442177Y-58393019D01*
X71155772Y-58227658D01*
X70857540Y-58055356D01*
X70585542Y-57898117D01*
X67966166Y-56383459D01*
X67966166Y-55982818D01*
X67966309Y-55843661D01*
X67967129Y-55741546D01*
X67969212Y-55671183D01*
X67973145Y-55627280D01*
X67979514Y-55604547D01*
X67988907Y-55597693D01*
X68001909Y-55601427D01*
G37*
X68001909Y-55601427D02*
X68008096Y-55604618D01*
X68033237Y-55618852D01*
X68091858Y-55652475D01*
X68180805Y-55703667D01*
X68296923Y-55770605D01*
X68437055Y-55851470D01*
X68598047Y-55944439D01*
X68776743Y-56047691D01*
X68969988Y-56159406D01*
X69174626Y-56277762D01*
X69262221Y-56328441D01*
X69490962Y-56460778D01*
X69725331Y-56596346D01*
X69959993Y-56732059D01*
X70189615Y-56864835D01*
X70408860Y-56991589D01*
X70612395Y-57109237D01*
X70794885Y-57214694D01*
X70950996Y-57304877D01*
X71067083Y-57371905D01*
X71236030Y-57469441D01*
X71415421Y-57573043D01*
X71595997Y-57677361D01*
X71768497Y-57777045D01*
X71923660Y-57866744D01*
X72052226Y-57941107D01*
X72061917Y-57946714D01*
X72213999Y-58034585D01*
X72385711Y-58133573D01*
X72562371Y-58235228D01*
X72729296Y-58331099D01*
X72849994Y-58400263D01*
X73235906Y-58621084D01*
X73236286Y-59017959D01*
X73235603Y-59142233D01*
X73233473Y-59250475D01*
X73230153Y-59336163D01*
X73225897Y-59392776D01*
X73220962Y-59413793D01*
X73220792Y-59413804D01*
X73200931Y-59403275D01*
X73146502Y-59372724D01*
X73059572Y-59323342D01*
X72942207Y-59256316D01*
X72796476Y-59172836D01*
X72624447Y-59074092D01*
X72428186Y-58961272D01*
X72209761Y-58835565D01*
X71971239Y-58698162D01*
X71714689Y-58550250D01*
X71442177Y-58393019D01*
X71155772Y-58227658D01*
X70857540Y-58055356D01*
X70585542Y-57898117D01*
X67966166Y-56383459D01*
X67966166Y-55982818D01*
X67966309Y-55843661D01*
X67967129Y-55741546D01*
X67969212Y-55671183D01*
X67973145Y-55627280D01*
X67979514Y-55604547D01*
X67988907Y-55597693D01*
X68001909Y-55601427D01*
G04 #@! TD*
D11*
G04 #@! TO.C,MX-E-3*
X49212500Y-120173750D03*
D12*
X51752500Y-111283750D03*
D11*
X49212500Y-110013750D03*
D13*
X49212500Y-115093750D03*
D12*
X54292500Y-117633750D03*
D14*
X51752500Y-111283750D03*
X54292500Y-117633750D03*
G04 #@! TD*
D11*
G04 #@! TO.C,MX20*
X106362500Y-120173750D03*
D12*
X108902500Y-111283750D03*
D11*
X106362500Y-110013750D03*
D13*
X106362500Y-115093750D03*
D12*
X111442500Y-117633750D03*
D14*
X108902500Y-111283750D03*
X111442500Y-117633750D03*
G04 #@! TD*
D11*
G04 #@! TO.C,MX17*
X53657500Y-124618750D03*
D12*
X62547500Y-127158750D03*
D11*
X63817500Y-124618750D03*
D13*
X58737500Y-124618750D03*
D12*
X56197500Y-129698750D03*
D14*
X62547500Y-127158750D03*
X56197500Y-129698750D03*
G04 #@! TD*
D11*
G04 #@! TO.C,MX-E-2*
X106362500Y-82073750D03*
D12*
X108902500Y-73183750D03*
D11*
X106362500Y-71913750D03*
D13*
X106362500Y-76993750D03*
D12*
X111442500Y-79533750D03*
D14*
X108902500Y-73183750D03*
X111442500Y-79533750D03*
G04 #@! TD*
D11*
G04 #@! TO.C,MX-E-4*
X91757500Y-124618750D03*
D12*
X100647500Y-127158750D03*
D11*
X101917500Y-124618750D03*
D13*
X96837500Y-124618750D03*
D12*
X94297500Y-129698750D03*
D14*
X100647500Y-127158750D03*
X94297500Y-129698750D03*
G04 #@! TD*
D11*
G04 #@! TO.C,MX-E-1*
X49212500Y-82073750D03*
D12*
X51752500Y-73183750D03*
D11*
X49212500Y-71913750D03*
D13*
X49212500Y-76993750D03*
D12*
X54292500Y-79533750D03*
D14*
X51752500Y-73183750D03*
X54292500Y-79533750D03*
G04 #@! TD*
D12*
G04 #@! TO.C,MX13*
X44132500Y-103028750D03*
D11*
X49212500Y-110648750D03*
D12*
X46672500Y-109378750D03*
D13*
X49212500Y-105568750D03*
D11*
X49212500Y-100488750D03*
D14*
X46672500Y-109378750D03*
X44132500Y-103028750D03*
G04 #@! TD*
D12*
G04 #@! TO.C,MX1*
X51752500Y-43338750D03*
D11*
X44132500Y-48418750D03*
D12*
X45402500Y-45878750D03*
D13*
X49212500Y-48418750D03*
D11*
X54292500Y-48418750D03*
D14*
X45402500Y-45878750D03*
X51752500Y-43338750D03*
G04 #@! TD*
D12*
G04 #@! TO.C,MX4*
X108902500Y-43338750D03*
D11*
X101282500Y-48418750D03*
D12*
X102552500Y-45878750D03*
D13*
X106362500Y-48418750D03*
D11*
X111442500Y-48418750D03*
D14*
X102552500Y-45878750D03*
X108902500Y-43338750D03*
G04 #@! TD*
D12*
G04 #@! TO.C,MX19*
X89852500Y-119538750D03*
D11*
X82232500Y-124618750D03*
D12*
X83502500Y-122078750D03*
D13*
X87312500Y-124618750D03*
D11*
X92392500Y-124618750D03*
D14*
X83502500Y-122078750D03*
X89852500Y-119538750D03*
G04 #@! TD*
D12*
G04 #@! TO.C,MX7*
X89852500Y-62388750D03*
D11*
X82232500Y-67468750D03*
D12*
X83502500Y-64928750D03*
D13*
X87312500Y-67468750D03*
D11*
X92392500Y-67468750D03*
D14*
X83502500Y-64928750D03*
X89852500Y-62388750D03*
G04 #@! TD*
D12*
G04 #@! TO.C,MX8*
X101282500Y-64928750D03*
D11*
X106362500Y-72548750D03*
D12*
X103822500Y-71278750D03*
D13*
X106362500Y-67468750D03*
D11*
X106362500Y-62388750D03*
D14*
X103822500Y-71278750D03*
X101282500Y-64928750D03*
G04 #@! TD*
D12*
G04 #@! TO.C,MX10*
X70802500Y-81438750D03*
D11*
X63182500Y-86518750D03*
D12*
X64452500Y-83978750D03*
D13*
X68262500Y-86518750D03*
D11*
X73342500Y-86518750D03*
D14*
X64452500Y-83978750D03*
X70802500Y-81438750D03*
G04 #@! TD*
D12*
G04 #@! TO.C,MX18*
X70802500Y-119538750D03*
D11*
X63182500Y-124618750D03*
D12*
X64452500Y-122078750D03*
D13*
X68262500Y-124618750D03*
D11*
X73342500Y-124618750D03*
D14*
X64452500Y-122078750D03*
X70802500Y-119538750D03*
G04 #@! TD*
D12*
G04 #@! TO.C,MX12*
X101282500Y-83978750D03*
D11*
X106362500Y-91598750D03*
D12*
X103822500Y-90328750D03*
D13*
X106362500Y-86518750D03*
D11*
X106362500Y-81438750D03*
D14*
X103822500Y-90328750D03*
X101282500Y-83978750D03*
G04 #@! TD*
D12*
G04 #@! TO.C,MX16*
X101282500Y-103028750D03*
D11*
X106362500Y-110648750D03*
D12*
X103822500Y-109378750D03*
D13*
X106362500Y-105568750D03*
D11*
X106362500Y-100488750D03*
D14*
X103822500Y-109378750D03*
X101282500Y-103028750D03*
G04 #@! TD*
D12*
G04 #@! TO.C,MX11*
X89852500Y-81438750D03*
D11*
X82232500Y-86518750D03*
D12*
X83502500Y-83978750D03*
D13*
X87312500Y-86518750D03*
D11*
X92392500Y-86518750D03*
D14*
X83502500Y-83978750D03*
X89852500Y-81438750D03*
G04 #@! TD*
D12*
G04 #@! TO.C,MX14*
X70802500Y-100488750D03*
D11*
X63182500Y-105568750D03*
D12*
X64452500Y-103028750D03*
D13*
X68262500Y-105568750D03*
D11*
X73342500Y-105568750D03*
D14*
X64452500Y-103028750D03*
X70802500Y-100488750D03*
G04 #@! TD*
D12*
G04 #@! TO.C,MX2*
X70802500Y-43338750D03*
D11*
X63182500Y-48418750D03*
D12*
X64452500Y-45878750D03*
D13*
X68262500Y-48418750D03*
D11*
X73342500Y-48418750D03*
D14*
X64452500Y-45878750D03*
X70802500Y-43338750D03*
G04 #@! TD*
D12*
G04 #@! TO.C,MX6*
X70802500Y-62388750D03*
D11*
X63182500Y-67468750D03*
D12*
X64452500Y-64928750D03*
D13*
X68262500Y-67468750D03*
D11*
X73342500Y-67468750D03*
D14*
X64452500Y-64928750D03*
X70802500Y-62388750D03*
G04 #@! TD*
D12*
G04 #@! TO.C,MX3*
X89852500Y-43338750D03*
D11*
X82232500Y-48418750D03*
D12*
X83502500Y-45878750D03*
D13*
X87312500Y-48418750D03*
D11*
X92392500Y-48418750D03*
D14*
X83502500Y-45878750D03*
X89852500Y-43338750D03*
G04 #@! TD*
D12*
G04 #@! TO.C,MX9*
X44132500Y-83978750D03*
D11*
X49212500Y-91598750D03*
D12*
X46672500Y-90328750D03*
D13*
X49212500Y-86518750D03*
D11*
X49212500Y-81438750D03*
D14*
X46672500Y-90328750D03*
X44132500Y-83978750D03*
G04 #@! TD*
D12*
G04 #@! TO.C,MX15*
X89852500Y-100488750D03*
D11*
X82232500Y-105568750D03*
D12*
X83502500Y-103028750D03*
D13*
X87312500Y-105568750D03*
D11*
X92392500Y-105568750D03*
D14*
X83502500Y-103028750D03*
X89852500Y-100488750D03*
G04 #@! TD*
D12*
G04 #@! TO.C,MX5*
X44132500Y-64928750D03*
D11*
X49212500Y-72548750D03*
D12*
X46672500Y-71278750D03*
D13*
X49212500Y-67468750D03*
D11*
X49212500Y-62388750D03*
D14*
X46672500Y-71278750D03*
X44132500Y-64928750D03*
G04 #@! TD*
D15*
G04 #@! TO.C,X3*
X70675500Y-116393750D03*
D16*
X70675500Y-131603750D03*
X46799500Y-131603750D03*
D15*
X46799500Y-116393750D03*
G04 #@! TD*
D16*
G04 #@! TO.C,X4*
X108775500Y-131603750D03*
X84899500Y-131603750D03*
D15*
X108775500Y-116393750D03*
X84899500Y-116393750D03*
G04 #@! TD*
D16*
G04 #@! TO.C,X2*
X113347500Y-65055750D03*
X113347500Y-88931750D03*
D15*
X98137500Y-88931750D03*
X98137500Y-65055750D03*
G04 #@! TD*
D16*
G04 #@! TO.C,X1*
X42227500Y-65055750D03*
D15*
X57437500Y-65055750D03*
X57437500Y-88931750D03*
D16*
X42227500Y-88931750D03*
G04 #@! TD*
D17*
G04 #@! TO.C,SW1*
X106362500Y-34968750D03*
X106362500Y-23768750D03*
D18*
X113862500Y-31868750D03*
D19*
X113862500Y-26868750D03*
X113862500Y-29368750D03*
X99362500Y-26868750D03*
X99362500Y-31868750D03*
G04 #@! TD*
D20*
G04 #@! TO.C,J3*
X38687500Y-97283750D03*
X38687500Y-94783750D03*
D21*
X41687500Y-97283750D03*
D22*
X41687500Y-94743750D03*
G04 #@! TD*
D20*
G04 #@! TO.C,J6*
X116887500Y-59212500D03*
X116887500Y-56712500D03*
D22*
X113887500Y-59252500D03*
X113887500Y-56712500D03*
G04 #@! TD*
D23*
G04 #@! TO.C,J1*
X70287500Y-37200000D03*
D24*
X67747500Y-37200000D03*
X65207500Y-37200000D03*
G04 #@! TD*
D20*
G04 #@! TO.C,J4*
X38687500Y-56752500D03*
X38687500Y-59252500D03*
D22*
X41687500Y-59252500D03*
X41687500Y-56712500D03*
G04 #@! TD*
D25*
G04 #@! TO.C,U7*
X46037500Y-27300000D03*
X46037500Y-20300000D03*
D26*
X48337500Y-30000000D03*
X43737500Y-28900000D03*
X43737500Y-24900000D03*
X43737500Y-21900000D03*
G04 #@! TD*
D20*
G04 #@! TO.C,J5*
X116887500Y-94753750D03*
X116887500Y-97253750D03*
D21*
X113887500Y-97293750D03*
D22*
X113887500Y-94753750D03*
G04 #@! TD*
D27*
G04 #@! TO.C,U2*
X55836560Y-23153134D03*
X61636408Y-23153134D03*
D28*
X54411363Y-19453362D03*
D29*
X63061605Y-23653261D03*
X54411363Y-23653261D03*
D28*
X63061605Y-19453362D03*
G04 #@! TD*
M02*
