M48
INCH,TZ
T1C0.0256
T2C0.0295
T3C0.0315
T4C0.0591
T5C0.0689
T6C0.1200
T7C0.1570
T8C0.1575
%
G90
G05
T1
X15231Y-22344
X15231Y-23328
X15231Y-37316
X15231Y-38301
X46019Y-22328
X46019Y-23312
X46019Y-37305
X46019Y-38289
T2
X21983Y-9115
X24266Y-9115
T3
X18125Y-7992
X18125Y-10748
T5
X17375Y-19063
X19375Y-24563
X19375Y-28313
X19375Y-28562
X19375Y-32063
X19375Y-32313
X19375Y-36063
X19375Y-39563
X19375Y-43313
X19375Y-43563
X19375Y-47313
X21125Y-49063
X21375Y-19063
X24875Y-19063
X24875Y-26563
X24875Y-34063
X24875Y-41563
X24875Y-49063
X25125Y-49063
X28875Y-19063
X28875Y-26563
X28875Y-34063
X28875Y-41563
X28875Y-49063
X32375Y-19063
X32375Y-26563
X32375Y-34063
X32375Y-41563
X32375Y-49063
X36125Y-49063
X36375Y-19063
X36375Y-26563
X36375Y-34063
X36375Y-41563
X36375Y-49063
X39875Y-19063
X40125Y-49063
X41875Y-24563
X41875Y-28313
X41875Y-28562
X41875Y-32063
X41875Y-32313
X41875Y-36063
X41875Y-39563
X41875Y-43313
X41875Y-43563
X41875Y-47313
X43875Y-19063
T6
X16625Y-25613
X16625Y-35012
X18425Y-51812
X27825Y-51812
X33425Y-51812
X42825Y-51812
X44625Y-25613
X44625Y-35012
T7
X18425Y-45824
X22613Y-25613
X22613Y-35012
X27825Y-45824
X33425Y-45824
X38637Y-25613
X38637Y-35012
X42825Y-45824
T8
X19375Y-19063
X19375Y-26563
X19375Y-30313
X19375Y-34063
X19375Y-41563
X19375Y-45313
X23125Y-49063
X26875Y-19063
X26875Y-26563
X26875Y-34063
X26875Y-41563
X26875Y-49063
X34375Y-19063
X34375Y-26563
X34375Y-34063
X34375Y-41563
X34375Y-49063
X38125Y-49063
X41875Y-19063
X41875Y-26563
X41875Y-30313
X41875Y-34063
X41875Y-41563
X41875Y-45313
T4
G00X42131Y-9358
M15
G01X41619Y-9358
M16
G05
G00X42131Y-13767
M15
G01X41619Y-13767
M16
G05
T0
M30
