G04 #@! TF.GenerationSoftware,KiCad,Pcbnew,(6.0.7)*
G04 #@! TF.CreationDate,2022-10-25T17:13:03-05:00*
G04 #@! TF.ProjectId,Container65,436f6e74-6169-46e6-9572-36352e6b6963,rev?*
G04 #@! TF.SameCoordinates,Original*
G04 #@! TF.FileFunction,Legend,Top*
G04 #@! TF.FilePolarity,Positive*
%FSLAX46Y46*%
G04 Gerber Fmt 4.6, Leading zero omitted, Abs format (unit mm)*
G04 Created by KiCad (PCBNEW (6.0.7)) date 2022-10-25 17:13:03*
%MOMM*%
%LPD*%
G01*
G04 APERTURE LIST*
%ADD10C,0.150000*%
%ADD11C,0.120000*%
%ADD12C,1.397000*%
G04 APERTURE END LIST*
D10*
G04 #@! TO.C,X3*
X57927976Y-126071130D02*
X58594642Y-127071130D01*
X58594642Y-126071130D02*
X57927976Y-127071130D01*
X58880357Y-126071130D02*
X59499404Y-126071130D01*
X59166071Y-126452083D01*
X59308928Y-126452083D01*
X59404166Y-126499702D01*
X59451785Y-126547321D01*
X59499404Y-126642559D01*
X59499404Y-126880654D01*
X59451785Y-126975892D01*
X59404166Y-127023511D01*
X59308928Y-127071130D01*
X59023214Y-127071130D01*
X58927976Y-127023511D01*
X58880357Y-126975892D01*
G04 #@! TO.C,X4*
X96027976Y-126071130D02*
X96694642Y-127071130D01*
X96694642Y-126071130D02*
X96027976Y-127071130D01*
X97504166Y-126404464D02*
X97504166Y-127071130D01*
X97266071Y-126023511D02*
X97027976Y-126737797D01*
X97647023Y-126737797D01*
G04 #@! TO.C,X2*
X107814880Y-77803273D02*
X108814880Y-77136607D01*
X107814880Y-77136607D02*
X108814880Y-77803273D01*
X107910119Y-76803273D02*
X107862500Y-76755654D01*
X107814880Y-76660416D01*
X107814880Y-76422321D01*
X107862500Y-76327083D01*
X107910119Y-76279464D01*
X108005357Y-76231845D01*
X108100595Y-76231845D01*
X108243452Y-76279464D01*
X108814880Y-76850892D01*
X108814880Y-76231845D01*
G04 #@! TO.C,X1*
X46664880Y-77803273D02*
X47664880Y-77136607D01*
X46664880Y-77136607D02*
X47664880Y-77803273D01*
X47664880Y-76231845D02*
X47664880Y-76803273D01*
X47664880Y-76517559D02*
X46664880Y-76517559D01*
X46807738Y-76612797D01*
X46902976Y-76708035D01*
X46950595Y-76803273D01*
G04 #@! TO.C,OL1*
X90957380Y-30821130D02*
X90957380Y-30630654D01*
X91005000Y-30535416D01*
X91100238Y-30440178D01*
X91290714Y-30392559D01*
X91624047Y-30392559D01*
X91814523Y-30440178D01*
X91909761Y-30535416D01*
X91957380Y-30630654D01*
X91957380Y-30821130D01*
X91909761Y-30916369D01*
X91814523Y-31011607D01*
X91624047Y-31059226D01*
X91290714Y-31059226D01*
X91100238Y-31011607D01*
X91005000Y-30916369D01*
X90957380Y-30821130D01*
X91957380Y-29487797D02*
X91957380Y-29963988D01*
X90957380Y-29963988D01*
X91433571Y-29154464D02*
X91433571Y-28821130D01*
X91957380Y-28678273D02*
X91957380Y-29154464D01*
X90957380Y-29154464D01*
X90957380Y-28678273D01*
X91957380Y-28249702D02*
X90957380Y-28249702D01*
X90957380Y-28011607D01*
X91005000Y-27868750D01*
X91100238Y-27773511D01*
X91195476Y-27725892D01*
X91385952Y-27678273D01*
X91528809Y-27678273D01*
X91719285Y-27725892D01*
X91814523Y-27773511D01*
X91909761Y-27868750D01*
X91957380Y-28011607D01*
X91957380Y-28249702D01*
D11*
G04 #@! TO.C,SW1*
X100262500Y-23468750D02*
X104362500Y-23468750D01*
X106862500Y-29368750D02*
X105862500Y-29368750D01*
X113862500Y-33168750D02*
X114162500Y-33468750D01*
X112462500Y-35268750D02*
X112462500Y-23468750D01*
X100262500Y-25868750D02*
X100262500Y-23468750D01*
X114162500Y-33468750D02*
X113562500Y-33468750D01*
X100262500Y-30668750D02*
X100262500Y-28068750D01*
X106362500Y-29868750D02*
X106362500Y-28868750D01*
X108362500Y-35268750D02*
X112462500Y-35268750D01*
X108362500Y-23468750D02*
X112462500Y-23468750D01*
X113562500Y-33468750D02*
X113862500Y-33168750D01*
X100262500Y-35268750D02*
X100262500Y-32868750D01*
X104362500Y-35268750D02*
X100262500Y-35268750D01*
X109362500Y-29368750D02*
G75*
G03*
X109362500Y-29368750I-3000000J0D01*
G01*
G04 #@! TD*
D12*
G04 #@! TO.C,OL1*
X95517500Y-33178750D03*
X95517500Y-30638750D03*
X95517500Y-28098750D03*
X95517500Y-25558750D03*
G04 #@! TD*
M02*
